<svg xmlns="http://www.w3.org/2000/svg" height="40" width="40" fill="#999"><path d="M23.708 18.625h10.834v-7.542H23.708Zm5.417-1.75-4.167-2.958v-1.5l4.167 3 4.125-3v1.5ZM4.083 32.708q-1 0-1.708-.708t-.708-1.75V9.75q0-1.042.708-1.75t1.708-.708h31.834q1 0 1.708.708t.708 1.75v20.5q0 1.042-.708 1.75t-1.708.708Zm10.542-9q1.708 0 2.937-1.208 1.23-1.208 1.23-2.958 0-1.709-1.23-2.938-1.229-1.229-2.937-1.229-1.75 0-2.958 1.229-1.209 1.229-1.209 2.938 0 1.75 1.209 2.958 1.208 1.208 2.958 1.208Zm-9.5 7.584h18.958q-1.833-2.209-4.25-3.542-2.416-1.333-5.208-1.333-2.833 0-5.271 1.333-2.437 1.333-4.229 3.542Z"/></svg>
