<?xml version="1.0" encoding="UTF-8"?>
<!-- Created with Inkscape (http://www.inkscape.org/) -->
<svg width="200" height="200" version="1.1" viewBox="0 0 79.375 79.375" xmlns="http://www.w3.org/2000/svg">
 <g>
  <circle cx="39.688" cy="39.688" r="37.916" fill="#35b5c1" style="paint-order:stroke markers fill"/>
  <path d="m25.392 29.551c-0.18749 0.75543 0.80243-0.10464 1.0179 0.16303 1.8474 2.2947 1.73 2.8412 2.5777 6.6788 0.08767 0.3969 0.64419 4.4994 0.46854 5.4691-0.15579 0.86006-0.66571 1.7483-1.0309 2.5332-0.49648 1.0669-0.9385 2.1896-1.4995 3.2236-0.43417 0.80028-0.96574 1.5089-1.3125 2.3605-0.30061 0.73834-0.52327 1.5736-0.65555 2.3598-0.07276 0.43248-0.04374 1.1305-0.26784 1.5625-0.37937 0.73131-1.1497 1.5899-1.2762 2.4078-0.14799 0.95679 0.23408 2.4815-0.40895 3.3113-0.25348 0.3271-0.99504 0.04157-1.3262 0.13837-0.22306 0.06521-0.41639 0.21153-0.63843 0.28017-0.35225 0.1089-0.83197-0.04326-1.1994 0-1.4464 0.17029-2.6837-0.14496-3.7271-1.2467-1.5761-1.6643-1.7834-4.3593-1.9865-6.4863-0.08632-0.90381 0.18684-1.9042-0.17125-2.7722-0.15212-0.36873-0.41952-0.82294-0.61103-1.1762-0.77173-1.4234-2.338-2.4039-3.049-3.9073-0.22325-0.47209-0.62592-1.0347-0.80077-1.5693-0.59694-1.8252-0.64665-3.5833-0.64665-5.502 0-0.54891-0.10475-1.2742 0-1.8153 0.1832-0.94618 1.3481-2.3688 2.2448-2.6996 0.76091-0.28071 1.2185-0.1371 1.9427-0.23016 1.7994-0.23121 3.6688-0.16783 5.4896-0.16783 0.67324 0 1.3996 0.08037 2.0646 0 0.93852-0.11342 1.587-0.82926 2.4236-1.1056 0.38116-0.1259 0.68968-0.39065 1.0823-0.53636 0.11453-0.0425 0.25075 0.03912 0.36648 0 0.16672-0.05637 0.28347-0.21926 0.45005-0.27606 0.11346-0.03869 0.30768 0.10804 0.35963 0 0.14509-0.30178 0.07992-0.66491 0.11987-0.99737z" fill="#56e839" style="paint-order:stroke markers fill"/>
  <path d="m29.228 13.501c1.7624-0.01371 3.3938 0.11729 5.0485 0.75967 0.631 0.24497 0.8444 0.4549 1.4995 0.63363 0.7249 0.19778 0.83602 0.06544 1.4056 0.34524 1.8088 0.88855 2.3632 2.2595 2.5058 4.182 0.06299 0.84967 0.0478 1.527-0.63774 2.1406-1.1461 1.0258-2.6891 0.93284-4.123 1.0364-0.30367 0.02193-0.79663-0.07319-1.1111 0-0.83679 0.19477-1.6659 0.97556-2.3544 1.5029-1.1514 0.88198-0.68784 2.0899-1.0542 3.2243-0.1384 0.4285-2.5068 0.63257-2.8469 0.5302-0.51388-0.15472-0.72124-0.71628-1.0118-1.0967-0.34587-0.45291-0.86534-0.93712-1.0453-1.4995-0.65909-2.0593-0.40826-5.1218-0.40826-7.3803 0-0.74848-0.30025-2.6749 0.34456-3.2408 0.17547-0.15398 0.81421 0.0793 1.0398 0 0.35233-0.12384 0.68585-0.39875 1.0953-0.46649 0.22838-0.03778 0.69467 0.12454 0.86585 0 0.27898-0.20297 0.52517-0.44754 0.78776-0.67131z" fill="#56e839" style="paint-order:stroke markers fill"/>
 </g>
 <circle cx="39.688" cy="39.688" r="66.526" display="none" fill="none" stroke="#000" stroke-linecap="square" stroke-linejoin="round" stroke-width="57.561" style="paint-order:stroke markers fill"/>
 <path d="m59.416 31.03c-1.8567 0.03406-1.2015-0.1795-3.3602 0.92542-1.8637 0.95394-1.419 1.0185-3.4006 1.7858-1.2208 0.47275-2.566 0.70705-3.8008 1.1184-1.0622 0.35383-4.0149 0.56678-4.8876 1.3383-0.53809 0.47571-0.52183 7.2868-0.97388 8.8064-0.58542 1.968-1.9939 3.9217-2.8736 5.8653-0.61036 1.3486-0.32893 1.5958-1.1736 2.9814-0.2054 0.33692-0.21758 2.9625-0.28368 3.5437-0.05541 0.48721-0.21324 1.1329-0.08595 1.5986 0.19585 0.71644 0.70886 1.2874 1.2898 1.529 1.6903 0.70283 5.4215-1.1048 7.4648-1.1345 0.50906-0.0074 0.9823 0.31579 1.5005 0.23345 1.4719-0.23391 3.2977-0.34775 4.775-1.0633 1.1243-0.54453 0.68814-2.0346 1.0182-2.9347 0.49392-1.3469 1.6021-1.2913 2.3264-2.3382 0.97627-1.4112 1.5907-3.5074 2.8636-4.5246 1.9741-1.5777 5.7373-2.1938 7.9632-3.1979 0.57002-0.25715 1.2127-0.17665 1.7757-0.46405 0.67994-0.3471 1.0035-1.2377 1.4662-1.8281 0.40487-0.51664 0.98401-0.45002 1.3372-1.0818 0.97822-1.7499 0.85068-4.3916 0.79534-6.2255-0.06327-2.0965 0.56141-4.8542-0.55262-6.5125-0.04742-0.0706-1.1512 0.31799-1.1825 0.30902-0.52368-0.15017-0.93551-0.56216-1.4444-0.75162-0.25463-0.0948-0.58436 0.26-0.8582 0.22427-0.37757-0.04926-0.70005-0.2736-1.072-0.3439-0.26354-0.04981-0.56475 0.22499-0.83842 0.21911-2.6105-0.05609-5.2081 0.37876-7.7878 1.9223z" fill="#56e839" opacity=".95003" style="paint-order:stroke markers fill"/>
</svg>
