<?xml version="1.0" encoding="UTF-8"?>
<!-- Created with Inkscape (http://www.inkscape.org/) -->
<svg width="200" height="200" version="1.1" viewBox="0 0 79.375 79.375" xmlns="http://www.w3.org/2000/svg">
 <defs>
  <clipPath id="clipPath5953">
   <path d="m-1.0775 22.727v4.6762c0.048673-0.08582 0.10137-0.16957 0.1602-0.25011 0.15426-0.20601 0.32512-0.398 0.48317-0.601 0.093603-0.112 0.14403-0.25504 0.21136-0.38292 0.078425-0.16499 0.13608-0.34005 0.23306-0.49609 0.16541-0.27839 0.35268-0.54362 0.58394-0.77205 0.14693-0.15323 0.29589-0.30488 0.42943-0.47026 0.20456-0.25332 0.4073-0.45511 0.60461-0.6196-0.24513-0.4245-0.24641-0.80136-0.097152-1.0842zm4.794 0c0.22838 0.22706 0.43383 0.53427 0.59428 0.93121 0.19824-0.10019 0.38533-0.14896 0.55345-0.15141 0.81516-0.01189 1.1795 1.061 0.15761 2.5962-0.017508 0.02631-0.034684 0.05224-0.052193 0.07855-0.12453 0.1818-0.2557 0.35967-0.40824 0.51935-0.14124 0.15131-0.28737 0.29792-0.43305 0.44493-0.02459 0.02482-0.049242 0.04966-0.073897 0.07441-0.063673 0.1103-0.13944 0.21343-0.22428 0.31057-0.06177 0.06693-0.13065 0.12427-0.20412 0.17518-0.00807 0.02146-0.015253 0.04127-0.019119 0.05064-1.913e-4 5.29e-4 -3.175e-4 7.94e-4 -5.291e-4 0.0016-0.00537 0.01789-0.00385 0.01349-0.01292 0.04289-0.048916 0.15048-0.12626 0.28857-0.20619 0.42426-0.020608 0.03221-0.039127 0.06689-0.058911 0.10335-0.017685 0.04395-0.03657 0.08748-0.05581 0.13074-0.00555 0.01484-0.00778 0.02019-0.010853 0.0279-0.00566 0.0186-0.0047 0.01675-0.014986 0.04961-0.012631 0.04069-0.01646 0.05013-0.018603 0.05529-0.00418 0.01722-0.011012 0.04487-0.028422 0.11111-0.00604 0.02313-0.05129 0.1518-0.069763 0.20102-0.025151 0.11758-0.092408 0.26555-0.16071 0.39274-0.00587 0.01704-0.013322 0.03749-0.02222 0.06098-0.00475 0.01781-0.00954 0.03601-0.017052 0.06304 0.0022 0.02379 0.00376 0.04752 0.0062 0.07132 0.031547 0.32104 0.061911 0.64297 0.11524 0.96118 0.077763 0.432 0.17327 0.86059 0.28267 1.2857 0.11176 0.50293 0.20003 1.014 0.17053 1.5317-0.049664 0.87166-0.2877 1.4787-0.59325 1.8252h77.589v-8.6409c-0.19246 0.18141-0.46768 0.0371-0.52814-0.43408-0.03304 0.03009-0.06538 0.05894-0.1049 0.09457-0.0428 0.03857-0.1081-0.03877-0.16226-0.05839-0.02543-0.01891-0.0503-0.03898-0.07493-0.05891-0.05106 0.1054-0.24682 0.05376-0.65009 0.14831-0.0019 3.97e-4 -0.04811-0.0701-0.05271-0.077-0.02424-0.03896-0.04931-0.07754-0.07389-0.11627-0.01474-0.01024-0.02901-0.02096-0.04083-0.03411-0.05253-0.04239-0.10483-0.0853-0.16123-0.12247-0.01709-0.01024-0.03568-0.01907-0.05478-0.02687 0.01378 0.02351 0.02707 0.0472 0.03979 0.07131 0.07771 0.15761 0.12195 0.30107 0.04754 0.47801-0.02061 0.04902-0.06542 0.08368-0.09818 0.12557-0.0759 0.03066-0.14871 0.06936-0.22738 0.09199-0.04796 0.01379-0.1254-0.0055-0.19637-0.03049-0.01302 0.02201-0.02802 0.04269-0.04754 0.05839-0.07572 0.06091-0.17289 0.0886-0.25942 0.13281-0.22757 0.01797-0.41433-0.09784-0.59273-0.22273-8e-3 0.08566-0.03405 0.18754-0.08527 0.23513-0.05161 0.04796-0.11264 0.08431-0.16898 0.12661-0.16337 0.05882-0.31329 0.0075-0.45682-0.06976-0.09263-0.05333-0.17922-0.11644-0.26355-0.1819-0.08428-0.06601-0.1626-0.13938-0.23978-0.21342-0.05913-0.05278-0.11136-0.11135-0.15761-0.17467-0.02201-0.01022-0.0444-0.02155-0.06718-0.03359-0.03407 0.02211-0.07761 0.04941-0.11782 0.0615 0.08542 0.7227-0.53711 0.79907-0.75344-0.03979-0.01796-0.06968-0.03122-0.14057-0.04392-0.21136-0.01535-0.07879-0.02365-0.15825-0.02946-0.23823-0.0047-0.06925-0.0062-0.13888-0.0072-0.20826-7.94e-4 -0.05191-7.94e-4 -0.10364-0.0011-0.15555-1.06e-4 -0.02582 2.7e-5 -0.05167 0-0.07751-0.0055-0.01481-0.01225-0.03232-0.01344-0.03566-0.01103-0.03264-0.01836-0.06677-0.02635-0.10025-0.0066-0.03017-0.01101-0.06039-0.0155-0.09095-0.0097-0.04031-0.0033-0.08302-0.0098-0.12351-0.0024-0.0092-0.0027-0.0059-0.01601-0.04393-0.01355-0.03954-0.02792-0.07839-0.04444-0.11679-0.0105-0.02556-0.02469-0.04959-0.03772-0.0739-0.0078-0.01627-0.02601-0.03826-0.04599-0.06511-0.03353-0.04518-0.06803-0.08913-0.10284-0.13332-0.02511-0.03263-0.05163-0.0641-0.07752-0.09612-0.03149-0.04056-0.06599-0.0791-0.10025-0.1173-0.05673-0.061-0.11317-0.1217-0.16795-0.18448-0.05024-0.05801-0.10077-0.11576-0.14934-0.17518-0.03232-0.03737-0.05866-0.07917-0.08785-0.11886-0.01693-0.02297-0.03487-0.04542-0.05271-0.0677-0.02188-0.02633-0.04252-0.0535-0.06201-0.08165-0.36424-0.52606 0.34051-0.21882 0.63149-0.17622-0.02273-0.05891-0.01524-0.12024 0.02119-0.17777-8.5e-5 -1.07e-4 8.5e-5 -3.97e-4 0-5.29e-4 -0.0059-0.0074-0.01167-0.01483-0.01757-0.02222-2.65e-4 -0.0013-0.02326-0.02825-0.02945-0.03617-0.0021-0.0026-0.0021-0.0032 0.0011 0 0.02103 0.02182 0.03193 0.03641 0.04806 0.05478 0.08245-0.12531 0.30604-0.23146 0.67076-0.25425 0.0414-0.0026 0.08324 0.0037 0.12454 0 0.0033-2.91e-4 0.0056-0.0038 0.0088-0.0047 0.03001-0.0082 0.06077-0.01359 0.09095-0.02119 0.10762-0.02527 0.21766-0.06371 0.3297-0.06201 0.04468 6.88e-4 0.08874 0.0058 0.13333 0.0088 0.06798 0.01162 0.13477 0.03043 0.19895 0.05529 0.0013-4.76e-4 0.0024-0.0011 0.0036-0.0016 0.08768-0.03535 0.16573-0.0319 0.2589-0.0248 0.0713 0.01468 0.14068 0.03586 0.20929 0.05994 0.0763 0.02717 0.1477 0.06484 0.21652 0.10697 0.01593-0.09722 0.03669-0.193 0.07286-0.28422 0.01635-0.04122 0.0865-0.01974 0.13074-0.02274 0.06339-0.0043 0.1396 8e-3 0.21239 0.02274 5e-6 -0.0287 0.0074-0.05668 0.01085-0.08527 0.0069-0.02746 0.01572-0.05311 0.02635-0.07751zm76.612 0c0.02559 0.03601 0.04933 0.07327 0.0708 0.11214 0.04428 0.08794 0.08674 0.25267 0.04238 0.34055-0.0363 0.07191-0.08474 0.13785-0.13539 0.2005-0.01651 0.02043-0.04269 0.03023-0.06408 0.04548-0.1137 0.06674-0.236 0.09148-0.36174 0.09663 0.08161 0.06835 0.161 0.1397 0.23874 0.21239 0.11817 0.11333 0.23175 0.2308 0.34468 0.34933 0.01244 0.01288 0.0245 0.02617 0.03669 0.03927v-1.3963zm-1.3839 3.2933c0.0091 0.01127 0.0149 0.01845 0.0036 0.0036-0.0011-0.0013-0.0024-0.0024-0.0036-0.0036zm-2.4133 0.3793c-0.0024 0.01382-0.0027 0.02596 0 0.03462 2.3e-4 -2e-3 5.29e-4 -0.0093 5.29e-4 -0.0124 6.6e-5 -0.0073-2.48e-4 -0.01496-5.29e-4 -0.02222zm-76.517 7.1784c-0.21213 0.75466-0.53191 1.2544-0.8692 1.5183h2.467c-0.21359-0.27249-0.36714-0.70502-0.40204-1.296-0.39955 0.32356-0.87421 0.24714-1.1958-0.22221z" fill="#f00"/>
  </clipPath>
  <clipPath id="clipPath6390">
   <path d="m72.961 22.122-65.064 5.29e-4c-0.40466 0.16865-0.91657 0.29272-1.5389 0.3452-0.088787 0.0075-0.17769 0.01334-0.26665 0.01809-3.969e-4 6.88e-4 -6.35e-4 0.0014-0.00103 0.0021-0.00318 0.0055-0.012676 0.02224-0.00982 0.01654 0.00329-0.0065 0.00613-0.01225 0.0093-0.0186-0.00119 6.4e-5 -0.00241-6.3e-5 -0.00362 0-0.016319 0.04177-0.032565 0.08337-0.049093 0.12506-0.12056 0.20158-0.27559 0.37898-0.43098 0.55397-0.063128 0.06639-0.12167 0.13692-0.18087 0.2067-0.037517 0.0866-0.080164 0.17034-0.12867 0.2527-0.013703 0.03056-0.028864 0.06036-0.044442 0.08992-0.020656 0.0398-0.041424 0.07953-0.062011 0.11937-0.00484 0.0079-0.00962 0.0159-0.01447 0.02377-0.010083 0.01821-0.020923 0.03586-0.031522 0.05374-0.01016 0.02374-0.020429 0.04669-0.034623 0.07493-0.011745 0.02336-0.14488 0.26591-0.022738 0.04237 0.00665-0.01412 0.027325-0.05624 0.020153-0.04237-0.054091 0.10458-0.06257 0.12257-0.07028 0.13746-0.00153 0.0028-0.00313 0.0055-0.00465 0.0083-0.01094 0.01998-0.02163 0.03995-0.032556 0.05994-0.012803 0.02414-0.018315 0.03418-0.024805 0.04599-0.00577 0.01188-0.0028 0.0058-0.00982 0.02015-0.00444 0.0076-0.018296 0.03312-0.028422 0.05168-0.027017 0.06697-0.057312 0.13244-0.089917 0.19689-0.037748 0.10285-0.086502 0.20073-0.14004 0.29611-0.00146 0.0038-0.00103 0.0026-0.00259 0.0067-0.021124 0.0479-0.033187 0.07434-0.047542 0.10335-0.01578 0.04507-0.031758 0.08994-0.048059 0.13539-0.00458 0.01275-0.018732 0.05091-0.013952 0.03824 0.049066-0.13001-0.00246 0.04798-0.00827 0.0801-0.016849 0.09039-0.034606 0.18073-0.053227 0.27078-0.011938 0.03915-0.058767 0.26034-0.02377 0.09405-0.024675 0.12247-0.054317 0.23691-0.092501 0.35553-0.050358 0.1528-0.13351 0.28944-0.21652 0.42581-0.054999 0.08824-0.11002 0.1769-0.16588 0.26458-0.039007 0.05858-0.079687 0.11614-0.12092 0.17312-0.012925 0.02379-0.019696 0.03548-0.032556 0.05891-0.00188 0.0039-0.0023 0.0052-0.00362 0.0078-0.00757 0.01463-0.015835 0.02897-0.02377 0.04341 0.00305-0.0059 0.00626-0.01215 0.0093-0.0181-0.013322 0.02405-0.032328 0.05884-0.038241 0.06873-3.175e-4 7.94e-4 -7.143e-4 0.0016-0.00103 0.0026 0.00132-0.0021 0.00167-0.0019 0.0031-0.0041-0.00175 0.0032-0.0034 0.0066-0.00517 0.0098-0.0023 0.0064-0.00487 0.01273-0.00723 0.01913-2.524e-4 0.0011-2.503e-4 0.0024-5.292e-4 0.0036 0.00343-0.0089 0.00415-0.01064 0.0062-0.01603 0.00926-0.02262-0.00358 0.01019-0.00672 0.0186-0.00281 0.01307-0.00518 0.02627-0.00827 0.03927-0.0013 0.0054-0.00574 0.01902-0.00878 0.02894-0.00543 0.02717-5.821e-4 -0.0011-0.019119 0.09612-0.033051 0.13715-0.083768 0.26896-0.14263 0.39688-0.016528 0.03887-0.020664 0.04792-0.026355 0.06046-0.011152 0.03054-0.034547 0.09277-0.022738 0.06201 8.202e-4 -0.0027-0.00161 0.0052-0.00259 0.0078-0.023519 0.07414-0.049546 0.14495-0.076998 0.21704 0.00534-0.01389 0.014907-0.04324 0.010853-0.03256-0.010821 0.02849-0.021767 0.05518-0.032556 0.08268 0.00673-0.01495 0.013367-0.02983 0.019637-0.04496-0.00546 0.01431-0.010438 0.02837-0.016021 0.04289-0.0056 0.01212-0.015931 0.03608-0.024289 0.05478-3.175e-4 7.93e-4 -7.144e-4 0.0013-0.00103 0.0021-0.027112 0.06666-0.05504 0.13232-0.088367 0.19895-0.046652 0.09022-0.097265 0.17809-0.15296 0.26303-0.01153 0.03342-0.023651 0.06667-0.037207 0.09922-0.019891 0.07944-0.04681 0.1563-0.071313 0.23616-0.036511 0.08622-0.040991 0.10351-0.062528 0.16123-0.00285 0.01241-0.00399 0.01934-0.0093 0.04289-0.00534 0.1043-0.023252 0.20732-0.040824 0.31006 1.871e-4 0.0068-0.014015 0.06729-0.025839 0.1173-0.00499 0.03033-0.012012 0.07152-0.017052 0.0987-2.349e-4 0.0013-2.91e-4 0.0035-5.292e-4 0.0047-0.0018 0.01172-0.00492 0.02302-0.00723 0.03462-0.00864 0.04803-0.018685 0.10368-0.038241 0.2005-0.00535 0.0265-0.018357 0.06878-0.030489 0.10697v5.29e-4c0.00175-0.0029-0.00307 0.01506-0.0062 0.02635-0.020569 0.11148-0.064002 0.24939-0.097152 0.34623-8.467e-4 0.0029-0.00296 0.0117-0.00206 0.0088 0.029022-0.09455 0.012258-0.02815 0.00672-0.0093-0.018137 0.12032-0.050467 0.23744-0.084749 0.35398-0.04082 0.13016-0.097339 0.25425-0.15348 0.37827v0.0011c-0.00899 0.03082-0.00235 8e-3 -0.021187 0.06718-0.00316 0.01974-0.048203 0.1485-0.084233 0.24495-0.00204 0.0122-0.00567 0.03023-0.012919 0.06098-0.016499 0.063-0.024524 0.12714-0.035657 0.1912-1.3e-4 0.01029-0.04955 0.24267-0.034107 0.17518-0.00332 0.0122-0.010292 0.05013-0.016536 0.08268-9.525e-4 0.04197-0.011922 0.12919-0.01757 0.17725-0.00199 0.08052-0.025561 0.15824-0.042891 0.23616 7.567e-4 -7.94e-4 -0.01529 0.08997-0.021187 0.12557-7.011e-4 0.0062-7.54e-4 0.0064-0.011886 0.10749-0.00419 0.02053-0.00503 0.03179-0.00723 0.04702-2.989e-4 0.01212-8.81e-4 0.02405-0.00103 0.03617-6.217e-4 0.04703-9.392e-4 0.09403-0.00103 0.14108-1.177e-4 0.06557 1.9e-5 0.13132 0 0.19689-1.72e-5 0.06709 2.9e-6 0.13393 0 0.20102-2.4e-6 0.06537 4e-7 0.131 0 0.19637v0.16433c0.00207 0.10666-0.00465 0.2129-0.016536 0.31884-0.0051 0.05344 0.00165-0.01026-0.00982 0.13591 6.35e-4 9e-3 -0.015205 0.11545-0.010335 0.09199-0.00115 0.02413-0.00178 0.04821-0.00207 0.07235-2.598e-4 0.0232-4.63e-4 0.04649-5.159e-4 0.06976h74.301c-0.0029-0.01826-0.0059-0.0365-0.0088-0.05478-0.02138-0.14159-0.03723-0.28387-0.05581-0.42582-0.02347-0.16236-0.03671-0.32574-0.04703-0.48938-0.0062-0.1011-0.0097-0.20262-0.01241-0.30386-0.0013-0.05316-0.0021-0.10598-0.0026-0.15916-2.41e-4 -0.04168-5.3e-4 -0.08337-5.3e-4 -0.12506-2.9e-5 -0.04142 8e-6 -0.08311 0-0.12454 0-0.04561 8e-6 -0.09133 0-0.13694v-2.2024c-5.29e-4 -0.01492 1.65e-4 -0.03001 5.3e-4 -0.04496-0.02927-0.10389-0.04794-0.21074-0.06821-0.31678-0.02228-0.0949-0.02999-0.19286-0.05168-0.28784-0.0016-0.0072 0.0016 0.01439 0.0026 0.0217-0.0066-0.01715-0.0064-0.01863-0.0093-0.02687-0.0019-2.65e-4 -0.0067-6e-3 -0.0186-0.02585-0.10101-0.16647-0.18946-0.33997-0.27182-0.51625-0.02932-0.06733-0.05714-0.13506-0.08475-0.20309-0.0084-0.01297-0.01807-0.02516-0.02635-0.03824-0.04405-0.06811-0.08988-0.1348-0.13746-0.2005-0.05278-0.07706-0.10351-0.15542-0.15916-0.23048-0.03368-0.04626-0.06703-0.09278-0.10594-0.13487-0.08076-0.09719-0.15949-0.19597-0.231-0.30024-0.08147-0.11704-0.15992-0.23646-0.23099-0.36018-0.04411-0.07712-0.08502-0.15467-0.12454-0.23358-2.01e-4 -2.65e-4 -1.85e-4 -7.94e-4 -5.29e-4 -0.0011l-5.29e-4 -5.3e-4h-5.29e-4c-0.06124-0.08191-0.12111-0.16444-0.17466-0.25166-0.0773-0.1255-0.14876-0.25457-0.2036-0.39171-0.06654-0.16002-0.13118-0.32199-0.16795-0.49196-0.04464-0.24648-0.07336-0.49461-0.03514-0.74414-5.29e-4 -0.0021-0.0011-0.0041-0.0016-0.0062-0.03961-0.04425-0.07776-0.08973-0.11265-0.13798-0.07267-0.0972-0.14883-0.21042-0.20412-0.32504-0.03703-0.08294-0.07429-0.16545-0.10439-0.25115-0.05641-0.16164-0.10352-0.327-0.11679-0.49868-0.0096-0.10251-0.0205-0.20482-0.0186-0.30799-6.6e-5 -0.02785-1.99e-4 -0.05579-5.29e-4 -0.08372-0.11183-0.36867-0.15171-0.69683-0.13126-0.97617-0.15214-0.08486-0.29817-0.17853-0.4191-0.31109-0.07117-0.08307-0.14053-0.16705-0.20102-0.25735zm1.8919 5.0348c-0.0181-0.03616-0.03638-0.07217-0.05375-0.10904-0.0069-0.01474 0.01381 0.02917 0.02066 0.04393 0.01167 0.02119 0.02056 0.04446 0.03307 0.06511zm0.0011 0.0016c0.0043 7e-3 0.0091 0.01389 0.01447 0.02016 0.0046 0.0053 0.01691 0.02233 0.01291 0.01654-0.0061-0.0087-0.01273-0.01738-0.01913-0.02582-0.0027-0.0037-0.0055-0.0072-0.0083-0.01085zm-70.991-0.31631c0.00638-0.01151 0.010885-0.01995 0.018087-0.03307 0.00847-0.01773 0.021651-0.04669 0.01602-0.03514-0.011515 0.02363-0.022706 0.04594-0.034106 0.06821zm-25.326-4.7196v11.956h17.58c0.11467-0.22064 0.23076-0.44082 0.3359-0.66611 0.14518-0.30131 0.29353-0.60044 0.4408-0.90072 0.12996-0.27308 0.25001-0.55087 0.36897-0.82889 0.11609-0.27535 0.22711-0.55287 0.34158-0.82889 0.10847-0.26166 0.21832-0.52283 0.33176-0.78238 0.11356-0.2699 0.21894-0.54298 0.29146-0.82734 0.16924-0.60966 0.30202-1.2279 0.42736-1.8479 0.17223-0.81565 0.34163-1.6317 0.51108-2.4479 0.16371-0.76559 0.3278-1.533 0.56844-2.2789 0.059378-0.18298 0.12104-0.36539 0.185-0.54674zm101.4 0c0.09382 0.33101 0.19 0.66143 0.28112 0.99322 0.12357 0.46098 0.23837 0.92418 0.37931 1.3803 0.14073 0.4397 0.28693 0.87762 0.42633 1.3177 0.12048 0.38849 0.23775 0.77837 0.3514 1.1689 0.08904 0.31137 0.19032 0.61857 0.28216 0.92914 0.05741 0.20681 0.13563 0.40733 0.20929 0.60875 0.09536 0.24993 0.1718 0.50652 0.26097 0.75861 0.04091 0.13308 0.1066 0.25497 0.17053 0.37775 0.12218 0.2183 0.20854 0.4519 0.28112 0.6904 0.05092 0.18119 0.08215 0.36676 0.1111 0.55242 0.03954 0.11448 0.0084 0.25243 0.05116 0.36535 0.04894 0.22773 0.08526 0.45795 0.11524 0.68885 0.03378 0.28331 0.04888 0.56821 0.05994 0.85318 0.0073 0.20274 0.01 0.40538 0.01188 0.60823 0.0013 0.15839 0.0019 0.31703 0.0021 0.47542 9.6e-5 0.06256 2.12e-4 0.12507 5.29e-4 0.18759h21.952v-11.956zm-73.789 0.22531c-7e-3 0.01228-0.014118 0.02451-0.021188 0.03669-0.00135 0.0024 0.011684-0.01967 0.021704-0.03669zm-0.65216 0.83561c-0.00844 0.02442-0.017886 0.04795-0.026872 0.07183 0.00392-9e-3 0.012229-0.02801 0.013435-0.03101 0.0045-0.0136 0.018116-0.05435 0.013436-0.04082zm-0.60513 1.1808c-0.0058 0.01735-0.01139 0.03479-0.017052 0.05219 1.061e-4 -2.13e-4 9.26e-4 -0.0012 0.00103-0.0016 0.00752-0.02127 0.021643-0.06747 0.016021-0.05064zm-0.17157 0.3483c-0.010906 0.0361-0.02286 0.07108-0.034623 0.10645 0.00558-0.01516 0.011917-0.03224 0.017052-0.04547 0.00584-0.02047 0.02372-0.08135 0.017571-0.06098zm-0.86971 2.0345c-0.0078 0.037-0.014584 0.07397-0.021704 0.11111 0.00156-0.0038 0.00311-0.0075 0.00465-0.01138 0.00314-0.0145 0.00608-0.03115 0.013436-0.07235 0.00161-0.0091 0.00553-0.03639 0.00362-0.02739zm-0.069247 0.27337c-0.00829 0.02103-0.021302 0.05379-0.021704 0.05478-0.00175 0.0042 0.015391-0.03588 0.017571-0.04238 0.00138-0.0042 0.00275-0.0083 0.00414-0.01241zm-0.81494 2.39c-0.00185 0.0078-0.00257 0.01-0.00414 0.01654 9.5e-6 5.29e-4 -4.498e-4 0.0057-5.292e-4 0.0067 0.0014-0.0055-2e-7 -5.29e-4 0.00206-0.0088 0.00159-0.0087 0.0013-0.0075 0.00259-0.01447zm73.402 0.55139c-5.3e-5 0.0051 2.41e-4 0.01093-5.29e-4 0.01394 2.64e-4 4e-3 7.93e-4 0.0079 0.0011 0.01188 1.35e-4 -0.0087-2.04e-4 -0.01717-5.29e-4 -0.02585zm3.3347 1.0253c2.65e-4 0.02516 0.0019 0.05026 0.0021 0.07545 5.29e-4 0.03904 1.93e-4 0.07826 5.29e-4 0.1173 0.03992 0.07379 0.0768 0.14932 0.1111 0.22582-0.0026-0.01926-0.0052-0.03863-0.0078-0.05787-0.01127-0.07276-0.0182-0.13811-0.03617-0.20929 0.0042 0.0104 0.0035 0.02471 0.01241 0.03152 0.0083 0.0063-0.0072-0.01955-0.01035-0.02946-0.01516-0.04852-0.0379-0.09316-0.06356-0.13746-0.0028-0.0053-0.0055-0.01069-0.0083-0.01603z" fill="#f00"/>
  </clipPath>
  <clipPath id="clipPath7690">
   <path d="m-8.6692 37.199v2.7332c0.23356-0.12333 0.47863-0.24472 0.73794-0.36277 0.41918-0.19083 0.85533-0.25592 1.3084-0.33331 0.049992-0.0019 0.099366-3e-3 0.14831-0.0031 1.5173-0.0031 2.5357 0.88265 3.3125 2.0965 0.016936 0.02647 0.033034 0.05341 0.049609 0.0801-0.03126-0.76568 0.29655-1.1971 0.72657-1.202 0.043788-5.29e-4 0.089295 0.0075 0.13488 0.01601 0.67412-0.78915 1.4114-1.1622 2.0779-1.1524 1.413 0.02074 2.5067 1.7602 2.0092 4.8855 0.040544 0.21401 0.08183 0.42783 0.1142 0.64337 0.025524 0.17825 0.042061 0.3577 0.068213 0.53588 0.018816 0.1168 0.033604 0.23421 0.045992 0.35192 0.034557 0.123 0.071406 0.24539 0.10387 0.36897 0.11748 0.46744 0.22905 0.9358 0.34106 1.4046 0.084636 0.34952 0.17034 0.69893 0.24805 1.0501 0.039898 0.1752 0.072169 0.35193 0.098185 0.52968 3.969e-4 0.0029 7.673e-4 0.0058 0.00103 0.0088 4.233e-4 -5.29e-4 5.027e-4 -0.0013 0.00103-0.0016 0.011941-0.0077 0.00761 0.02727 0.011885 0.04083 0.00919 0.02911 0.018891 0.05779 0.028422 0.08682 0.068055 0.20722 0.020799 0.05984 0.10077 0.31161 0.1051 0.3377 0.21657 0.67332 0.31213 1.0139 0.056442 0.21075 0.099272 0.42457 0.15658 0.6351 0.084156 0.2971 0.16686 0.59466 0.2558 0.89038 0.070116 0.22246 0.14084 0.44453 0.19792 0.67076 0.029435 0.10077 0.038685 0.20696 0.068729 0.30748 0.010641 0.04472 0.027625 0.08748 0.042892 0.13074 0.2782 0.78852 0.27088 1.3942 0.10439 1.774 0.028401 0.09802 0.056994 0.19597 0.085266 0.29404 0.10286 0.36117 0.22011 0.71827 0.31729 1.0811l0.037207 0.14934c0.097272 0.38963 0.13307 0.73112 0.12196 1.0211h77.499v-20.057h-2.3559c-0.0021 0.20894-0.0096 0.41794-0.0181 0.62684-0.01656 0.34906-0.02064 0.69875-0.031 1.048-0.0123 0.32066-0.02003 0.64137-0.02532 0.96222-0.0027 0.16991-0.0035 0.33971-0.0047 0.50953 0.15331 0.36833 0.24357 0.86561 0.22738 1.4919-0.0088 0.3412-0.10554 0.673-0.20206 0.99787-0.0097 0.03008-0.01958 0.05991-0.02946 0.08992v3.0794c0.0027 0.11846-0.0028 0.23656-0.01344 0.3545-0.01656 0.18704-0.07137 0.36694-0.13178 0.54364-0.02874 0.07904-0.03132 0.10175-0.05478 0.18655-0.0042 0.01651-0.04095 0.12257-0.05684 0.1664-0.0042 0.01603-0.0052 0.01998-0.0057 0.0217-0.7416 2.7932-2.855 2.3572-2.3502-0.24185-0.2575-0.39262-0.3828-1.0519-0.23048-1.9606 0.0011-0.0067 7.94e-4 -0.0029 0.0011-0.0047-1.72e-4 0.0019-8.2e-5 3e-3 5.29e-4 0.0016l5.29e-4 -0.0072 0.0026-0.04186c0.01024-0.13297 0.02302-0.26569 0.04444-0.39739 0.02024-0.13446 0.04076-0.26894 0.06615-0.40256 0.02252-0.1236 0.04639-0.24635 0.0553-0.37207 0.0208-0.15565 0.04624-0.31046 0.07648-0.46457 0.04138-0.18985 0.09055-0.37843 0.154-0.56224 0.03128-0.09463 0.06342-0.18887 0.0956-0.28319v-0.09612c0-0.13415-3e-6 -0.26789 0-0.40204 5e-6 -0.09316-1.9e-5 -0.18641 0-0.27957 3.7e-5 -0.16149-1.38e-4 -0.32324 0-0.48472 2.01e-4 -0.215 5.29e-4 -0.42993 0.0016-0.64492 0.0013-0.27885 0.0033-0.55782 0.0078-0.83664 0.0055-0.33134 0.01312-0.66259 0.02582-0.99374 0.01087-0.35759 0.01482-0.71541 0.03204-1.0728 0.0072-0.1771 0.01442-0.35409 0.01654-0.53123zm1.2728 8.1633c-0.45472 0.11683-0.87912 0.19351-1.2728 0.23564v11.658h5.8782c-0.12434-0.35117-0.23889-0.72834-0.34055-1.1348-0.11192-0.44748-0.24985-0.88728-0.40308-1.3224-0.40651-1.1434-0.89051-2.2568-1.3358-3.3853-0.44715-1.1274-0.86589-2.2645-1.2904-3.4003-0.37174-0.9015-0.78083-1.7878-1.2356-2.6505z" fill="#f00"/>
  </clipPath>
  <clipPath id="clipPath7798">
   <path d="m-7.2404 44.202v18.741h11.737c-0.018076-0.036203-0.03565-0.072586-0.05426-0.10852-0.13388-0.27017-0.26857-0.53992-0.40308-0.80977-0.46494 0.64981-1.554 0.33661-2.2779-1.3653-0.139-0.32682-0.27894-0.65338-0.42478-0.9772-0.19929-0.44902-0.39324-0.90019-0.59583-1.3477-0.18723-0.4034-0.38896-0.8003-0.57206-1.2056-0.10585-0.23997-0.201-0.48405-0.30799-0.72347-0.16563-0.36883-0.32863-0.739-0.50953-1.1007-0.21047-0.43636-0.40918-0.87837-0.57413-1.3343-0.2423-0.64484-0.4771-1.2931-0.6904-1.9482-0.24707-0.75718-0.48053-1.5184-0.72347-2.2769-0.2983-0.91263-0.61786-1.8182-0.93224-2.7254-0.25559-0.73787-0.52897-1.4726-0.72192-2.2298-0.01397-0.05738-0.03353-0.15601-0.049093-0.21911-0.00324-0.01312-0.014758-0.02424-0.013951-0.03772 4.234e-4 -0.0072 0.016248 0.02217 0.015502 0.01497-0.00122-0.01164-0.011332-0.02027-0.017052-0.03049 0.00641 0.0046 0.02335 0.02003 0.019121 0.01344-0.03905-0.0612-0.066054-0.07779-0.10025-0.10542 0.00831 0.0024 0.032294 0.01177 0.024805 0.0072-0.061922-0.03619-0.13413-0.05476-0.2005-0.08061-0.12446-0.04851-0.24095-0.09911-0.35192-0.1509zm5.2209 0c0.0024 0.0096 0.00485 0.01931 0.00723 0.02894 0.015285 0.06412 0.028263 0.12875 0.045992 0.19224 0.018599 0.06661 0.16798 0.52913 0.1757 0.55242 0.070735 0.21345 0.14556 0.42561 0.21911 0.6382 0.28682 0.25479 0.57723 0.62767 0.84233 1.1364 0.04116 0.07898 0.083461 0.1574 0.12506 0.23616 0.078364-0.02252 0.15832-0.04033 0.23875-0.05426 0.038893-0.0068 0.07785-0.01617 0.11731-0.01497 0.14112 4e-3 0.28189 0.01995 0.42271 0.02997 0.072314 0.02257 0.15128 0.02919 0.21652 0.0677 0.17492 0.10325 0.34075 0.22321 0.49661 0.35347 0.12676 0.10593 0.29825 0.45037 0.35037 0.55036 0.036349 0.06974 0.3032 0.64837 0.30903 0.66094 0.012914 0.02774 0.025811 0.05548 0.038757 0.0832 0.48346 0.02566 1.127 0.36218 1.8004 1.1203 0.20754 0.23367 0.32035 0.52404 0.41186 0.81752 0.083711 0.27379 0.10905 0.55895 0.14159 0.84181 0.030061 0.23536 0.057704 0.47104 0.078031 0.70745 0.00269 0.03182 0.00289 0.06376 0.00517 0.0956 0.048426 0.10732 0.092862 0.21615 0.13643 0.32556 0.00526 0.01344 0.010827 0.02685 0.016021 0.04031-8.996e-4 -0.0033-0.00206-0.0065-0.00206-0.0088-1.4e-5 -0.0073 0.00808 0.0123 0.011885 0.0186 0.00806 0.01323 0.015721 0.02654 0.02377 0.03979 0.058179 0.09575 0.00568 0.0076 0.084749 0.14159 0.10321 0.17509 0.20605 0.35024 0.30437 0.52814 0.11049 0.20232 0.2072 0.41191 0.31833 0.61392 0.1054 0.18034 0.20356 0.36398 0.29146 0.55345 0.066472 0.11013 0.085683 0.24802 0.154 0.35657 0.00418 0.0081 0.00779 0.01617 0.011885 0.02429-0.00196-0.0043-0.00328-8e-3 -5.292e-4 -0.0078 0.00946 7.94e-4 0.011364 0.01513 0.017052 0.02273 0.036401 0.04855 0.073294 0.09643 0.11007 0.1447 0.11895 0.1478 0.22524 0.30436 0.32143 0.46767 0.10105 0.18115 0.16881 0.37651 0.22221 0.57619 0.022363 0.09533 0.053802 0.18818 0.081132 0.28215 0.019367 0.06363 0.032503 0.12881 0.048576 0.19327 0.00296 0.01188 0.01342 0.04722 0.011369 0.03514-0.00228-0.01333-0.00688-0.02619-0.010335-0.03927 0.077682 0.15571 0.14676 0.31495 0.21136 0.47646 0.093591 0.23944 0.15355 0.48918 0.19637 0.74207 0.00435 0.03026 0.00857 0.06069 0.01292 0.09095 0.066204 0.46068 0.066137 0.85814 0.017571 1.1901 0.056096 0.13342 0.11087 0.26728 0.17002 0.39946 0.17286 0.3691 0.34415 0.73899 0.51625 1.1085 0.17003 0.36499 0.35242 0.72373 0.53588 1.0821 0.061119 0.11738 0.1209 0.23574 0.18035 0.35398 0.17272 0.34351 0.28922 0.66033 0.35863 0.9462h76.04v-18.741h-3.5915c-0.11078 0.32608-0.20684 0.65693-0.29611 0.9896-0.14122 0.52524-0.24505 1.0592-0.35192 1.5921-0.05153 0.26721-0.10832 0.53356-0.1664 0.79944 2.35e-4 0.44654 0.0019 0.89288 0.0098 1.3395 0.03256 1.1767 0.05573 2.354 0.07235 3.531 0.01209 0.88555 0.01918 1.7711 0.02376 2.6567 0.0026 0.53234 0.0038 1.0644 0.0047 1.5968 2.64e-4 0.21438 7.93e-4 0.42901 0.0011 0.64337 0.0024 3.0199-2.3442 3.0211-2.3466 0.0016-1.7e-4 -0.21371-7.94e-4 -0.42708-0.0011-0.64079-1.03e-4 -0.06098-5.29e-4 -0.12195-5.29e-4 -0.18294-0.50567 0.18931-1.0404-0.18545-1.2361-1.0893-0.04399 0.09173-0.087 0.18384-0.12816 0.27698-0.07958 0.18182-0.1475 0.36881-0.22014 0.55346-0.05887 0.13184-0.10315 0.26697-0.15296 0.40204-0.01328 0.03196-0.02625 0.06399-0.04031 0.0956-0.04486 0.10083-0.09468 0.19892-0.1478 0.29559-0.03792 0.069-0.05597 0.09072-0.03256 0.06098-0.0021 0.0052-0.0042 0.01029-0.0062 0.0155-1.1004 2.8123-3.3854 1.8076-2.1472-0.94671l0.04031-0.0894c0.047-0.09324 0.0983-0.18418 0.14469-0.2775 0.04686-0.13502 0.10079-0.27974 0.15865-0.41599 0.08523-0.21615 0.16455-0.43477 0.25942-0.64699 0.13965-0.31248 0.29102-0.61964 0.45062-0.92242 0.05498-0.1065 0.11256-0.21199 0.15813-0.32298-0.0085 0.05145 0.01662-0.05411 0.01707-0.05581 0.03102-0.12072 0.01905-0.08688 0.06305-0.22583 0.0069-0.02191 0.01566-0.04294 0.02326-0.06459 0.04835-0.1313 0.09832-0.26246 0.15193-0.39171 0.06821-0.1597 0.14086-0.31752 0.22944-0.46715 0.08062-0.14196 0.15932-0.28498 0.2496-0.42116 0.06352-0.09877 0.12756-0.19731 0.18604-0.29921 0.03577-0.06648 0.06585-0.14148 0.09353-0.21394 0.07115-0.17504 0.15273-0.34527 0.24908-0.50798 0.06602-0.10341 0.13557-0.20343 0.20774-0.30231-7.94e-4 -0.05476-0.0019-0.10964 0.0036-0.16381 0.0048-0.1237 0.01148-0.24758 0.02066-0.37104 0.0097-0.14856 0.0061-0.29786 0.0155-0.44648 7e-3 -0.18372 0.01215-0.36698 0.01035-0.55087 0.0013-0.19084 0.0037-0.38182 0.0098-0.57258 0.0096-0.29496 0.02265-0.58993 0.05219-0.88367 0.04048-0.39159 0.09233-0.78276 0.16691-1.1694 0.09434-0.47542 0.20827-0.94702 0.39274-1.3968 0.119-0.28457 0.24757-0.57337 0.44597-0.81081z" fill="#f00"/>
  </clipPath>
  <clipPath id="clipPath7983">
   <path d="m-24.144 38.341v24.952h23.406c-1.159-0.61017-2.2401-2.3326-2.6107-5.2514-0.016452-0.1296-0.030791-0.26005-0.064596-0.38654-2.91e-4 -0.0013-7.408e-4 -0.0024-0.00103-0.0036-1.3461-0.35662-2.6342-2.2239-2.8391-5.6772-0.00167-0.02792-0.00299-0.0558-0.00465-0.08372-0.12341-2.0801 0.21129-3.6379 0.7798-4.6602-0.023654-0.32249-0.040168-0.65558-0.040308-1.0098v-0.06821c-6.82e-5 -0.12764 3.5e-6 -0.25528-5.291e-4 -0.38292-4.763e-4 -0.14722-8.996e-4 -0.29412-0.0031-0.44132-0.00278-0.16085-0.00709-0.32199-0.015502-0.48266-0.012827-0.24755-0.030592-0.49449-0.061495-0.74052-0.034991-0.3331-0.061518-0.66771-0.12971-0.99632-0.13028-0.6973-0.28621-1.3903-0.46405-2.0769-0.2206-0.87619-0.4492-1.7531-0.59583-2.6453-0.00185-0.01516-0.00336-0.03032-0.00517-0.04547zm26.406 0c-0.00283 0.05252-0.00582 0.10504-0.00723 0.15761 3.228e-4 0.17504-0.035006 0.34593-0.083716 0.51315-0.00682 0.02053-0.013471 0.04161-0.020671 0.06201-0.022886 0.06481-0.048424 0.1279-0.077515 0.19017-0.012117 0.02593-0.034557 0.06907-0.020154 0.04134 3.281e-4 -7.94e-4 1.972e-4 -0.0013 5.159e-4 -0.0021-0.00911 0.01855-0.017552 0.03737-0.026872 0.05581-9.578e-4 0.0021-8.758e-4 0.0011-0.00207 0.0036-0.00156 0.0035-8.28e-5 7.94e-4 -0.00207 0.0052-0.00382 8e-3 -0.00738 0.0159-0.011369 0.02376-0.00245 0.0049-0.00389 0.0072-0.011369 0.0217-0.018266 0.04448-0.03817 0.08843-0.060461 0.13178-3.81e-4 0.0011-6.879e-4 0.0021-0.00103 0.0031v5.29e-4c-2.644e-4 7.93e-4 -8.043e-4 0.0013-0.00103 0.0021-0.00753 0.01871-0.029647 0.06962-0.048059 0.11214-0.010959 0.03517-0.023698 0.07063-0.038241 0.10645-0.00387 0.01336-0.00333 0.01246-0.00878 0.03101-6.403e-4 0.0021-4.525e-4 0.0013-0.00103 0.0031 7.647e-4 -0.0034 0.00364-0.02466-0.00568 0.05271-0.00978 0.0615-0.01152 0.08056-0.01912 0.13901-0.00963 0.06631-0.00392 0.02585-0.011369 0.09612-0.00502 0.03621-0.00768 0.07255-0.0093 0.10904-0.00175 0.0372-0.00256 0.07439-0.0031 0.11162-6.164e-4 0.0429-4.445e-4 0.08577-5.159e-4 0.12868-9.68e-5 0.06866 1.61e-5 0.13753 0 0.20619-1.58e-5 0.07963 2.3e-6 0.15911 0 0.23874-1.7e-6 0.06374 4e-7 0.12746 0 0.1912v1.9844c0.065216 0.07122 0.12507 0.14813 0.1819 0.22738 0.046444 0.07484 0.083462 0.15435 0.12144 0.23358 0.029783 0.06009 0.05529 0.12223 0.080099 0.18448 0.043231 0.10955 0.066529 0.22438 0.082682 0.34055 0.00823 0.04565 0.017463 0.11226 0.022221 0.16072 0.00604 0.06888 0.0074 0.13812 0.00827 0.20722 5.371e-4 0.05121 9.34e-4 0.10227 0.00103 0.15348-2.295e-4 0.01101 3.572e-4 0.04039 5.16e-4 0.0646 0.00125 0.0052 0.011946 0.12448 0.00362 0.03049 0.00882 0.07714 0.018785 0.1539 0.027905 0.23099 0.00884 0.08747 0.021553 0.17464 0.031523 0.262 0.00992 0.08446 0.014754 0.16931 0.018087 0.25425 0.079313 0.10634 0.16291 0.20944 0.24495 0.31368 0.14884 0.17543 0.25582 0.37548 0.34727 0.58498 0.068501 0.17733 0.10804 0.36343 0.13591 0.55087 0.015994 0.11104 0.024019 0.22285 0.028939 0.33486 0.00257 0.06598 0.00393 0.13189 0.00465 0.19792 4.233e-4 0.0434 4.233e-4 0.08683 5.291e-4 0.13022 6.75e-5 0.03866-1.03e-5 0.07761 0 0.11627 7.4e-6 0.0311-1.3e-6 0.06192 0 0.09302 0.01678 0.05789 0.032057 0.11622 0.045992 0.17518 0.00307 0.0035 0.00801 0.01278 0.016536 0.03204 0.00597 0.01347 0.012057 0.02685 0.018087 0.04031 0.061391 0.12898 0.11854 0.25951 0.17002 0.39274 0.056338 0.1566 0.099846 0.31726 0.13384 0.48007 0.022778 0.11386 0.037453 0.2286 0.048059 0.34417 8.04e-5 0.0016 4.233e-4 0.0063 5.291e-4 0.0083 0.0046 0.01172 0.00235 0.0048 0.010335 0.02479 0.020476 0.04447 0.034308 0.09181 0.053227 0.13694-0.00249-0.0067-0.0058-0.01381-0.00568-0.0181 2.299e-4 -0.0087 0.0089 0.01503 0.01292 0.02273 0.014227 0.02722 0.027909 0.05429 0.041858 0.08165 0.092665 0.17477 0.15661 0.36179 0.20722 0.55242 0.030272 0.11119 0.049662 0.22466 0.069763 0.33796 0.02223 0.09022 0.020386 0.18453 0.036174 0.27543 0.015333 0.11712 0.022791 0.23503 0.028422 0.35295 0.00439 0.10142 0.00656 0.20288 0.00775 0.30437 9.26e-4 0.09231 0.00138 0.18466 0.00156 0.27698 1.273e-4 0.07101-2.86e-5 0.1419 0 0.21291 2.38e-5 0.07402-3.7e-6 0.14819 0 0.22221 2.6e-6 0.06429-5e-7 0.12845 0 0.19275v0.14987c6.14e-5 -0.0013 0.00225 0.0058 0.00517 0.01497 0.0035 0.01095 0.00322 0.0078 0.00672 0.01963 0.016727 0.04546 0.032307 0.0913 0.047025 0.13746 0.00566 0.01215 0.013565 0.04573 0.021188 0.07907 0.00492 0.01125 0.010665 0.02238 0.015502 0.03307 0.028589 0.05934 0.057254 0.1568 0.072864 0.19947 0.032749 0.08011 0.058743 0.16254 0.083199 0.24546 0.010282 0.04081 0.012697 0.05093 0.017052 0.06976-1.492e-4 -2.64e-4 6.35e-4 0.0013 5.292e-4 0.0011-0.00334-0.0078 0.00375 0.01003 0.011369 0.02945 0.00428 0.0084 2.313e-4 -0.0013 0.024805 0.05116 0.039071 0.0892 0.071127 0.18135 0.10284 0.27337 0.00135 0.0041 0.00273 0.0083 0.00414 0.01241-8.996e-4 -0.0037 0.00324 0.0068 0.00465 0.01035 0.018963 0.04685 0.036346 0.09414 0.053744 0.1416-0.021355-0.03954 0.047273 0.12216 0.032556 0.07906 0.010253 0.01939 0.020217 0.03921 0.031006 0.05994 5.08e-5 3.5e-5 4.498e-4 0.0011 5.292e-4 0.0011 0.00747 6e-3 0.091768 0.13863 0.093018 0.14056 0.048527 0.07797 0.095085 0.15667 0.14108 0.23616 0.056562 0.09499 0.098964 0.19734 0.13849 0.30024 0.031938 0.08373 0.052 0.17092 0.067696 0.2589-8.995e-4 -0.0041 0.00204 0.0086 0.00156 0.0062 4.233e-4 0.0011 6.085e-4 0.0021 0.00103 0.0031 0.00633 0.01458 0.012327 0.02931 0.018603 0.04392 0.025919 0.05941 0.04843 0.11984 0.072864 0.17984 0.024119 0.06026 0.046134 0.12171 0.067696 0.18293 0.03127 0.08764 0.050111 0.17902 0.064079 0.27078 0.0028 0.01839-0.00528-0.03686-0.00775-0.05529 0.028351 0.09071 0.0599 0.18061 0.089917 0.27078 0.035006 0.09334 0.059237 0.19141 0.098185 0.28319 0.036576 0.09132 0.078607 0.18021 0.12041 0.26923 0.060776 0.12873 0.12263 0.25711 0.1819 0.38654 0.062003 0.14046 0.11341 0.28564 0.16433 0.43047 0.041327 0.10997 0.060429 0.2269 0.10129 0.33693 0.04425 0.12378 0.079438 0.25075 0.11679 0.37672 0.020344 0.06849 0.044015 0.13602 0.067179 0.2036 0.038467 0.06443 0.079814 0.12748 0.12402 0.1881 0.010202 0.01445 0.03527 0.04004 0.082166 0.0894 0.019944 0.02008 0.048906 0.04605 0.080615 0.07597-0.010041-0.0089 0.00982 0.0097 0.028939 0.0279 0.00238 0.0016-0.00707-7e-3 0.012401 0.0088 0.06092 0.04851 0.11953 0.09969 0.17725 0.15193 0.08934 0.08095 0.16177 0.17767 0.23203 0.27492 0.016293 0.02379 0.018865 0.02548 0.036174 0.04599 0.035666 0.04167 0.070958 0.08375 0.10645 0.12557 0.043857 0.04871-0.00447-0.0033 0.071313 0.07028 0.098106 0.09437 0.18514 0.19905 0.26975 0.30541 0.069785 0.08998 0.13424 0.18387 0.19895 0.2775 0.047897 0.06838 0.098732 0.13462 0.14728 0.20257 0.04017 0.05951 0.082473 0.11753 0.12454 0.1757 0.049264 0.06843 0.097971 0.13726 0.14573 0.20671 0.00656 0.01222 0.025717 0.03801 0.041858 0.06046 0.086184 0.09849 0.15762 0.20549 0.22686 0.31833 0.040808 0.08245 0.085896 0.15317 0.14469 0.24805 0.044447 0.06808 0.08326 0.13997 0.13488 0.20309 0.00674 0.0085 0.010724 0.02003 0.020153 0.02532 0.037778 0.0214-0.025442-0.02707-0.02222-0.02997 0.00177-0.0016 0.00388 0.0029 0.00568 0.0047 0.015095 0.01333 0.029503 0.0268 0.044442 0.04031 0.057021 0.0508 0.11165 0.10439 0.17105 0.15244 0.13173 0.10728 0.25355 0.22626 0.3731 0.34675 0.12893 0.13033 0.24898 0.26898 0.36432 0.41135 0.064402 0.07977 0.12624 0.16159 0.19069 0.24133 0.018322 0.02331 0.037203 0.04617 0.05581 0.06924 0.6791 0.32071 1.2282 0.68115 1.6531 1.0604h57.668c0.01008-0.01447 0.02037-0.02906 0.02997-0.04393 0.0335-0.05243 0.06807-0.10421 0.10542-0.154 0.02976-0.03937 0.06087-0.07757 0.0894-0.11782 0.01924-0.01672 0.02193-0.05025 0.03514-0.0708 0.03384-0.08197 0.06867-0.16383 0.12506-0.23358 0.03993-0.05288 0.08102-0.105 0.12196-0.1571 0.03782-0.0459 0.07733-0.08999 0.11576-0.13539 0.02956-0.03559 0.05826-0.07214 0.08682-0.10852 0.03157-0.04028 0.06351-0.08045 0.09612-0.11989 0.03569-0.04127 0.07275-0.08109 0.1111-0.11989 0.02556-0.02651 0.05155-0.05243 0.07751-0.07855 0.03378-0.03376 0.06849-0.06674 0.1049-0.09767 0.03297-0.02867 0.06634-0.05645 0.10129-0.08268 0.0286-0.02233 0.05748-0.04458 0.08268-0.0708 0.03881-0.03906 0.07466-0.08065 0.11162-0.12144 0.02976-0.03199 0.06029-0.06345 0.09043-0.09508 0.03281-0.03301 0.06684-0.065 0.1049-0.09198 0.01918-0.01495 0.03845-0.03027 0.05788-0.04496 0.0195-0.01582 0.03822-0.03384 0.05788-0.05013 0.01516-0.01294 0.03046-0.02561 0.04496-0.03927 0.02236-0.01717 0.03723-0.04406 0.05787-0.06304 0.0045-0.0051 0.0084-0.01016 0.01447-0.01707 0.02315-0.06474 0.05066-0.12773 0.08475-0.18758 0.04054-0.07276 0.08613-0.1427 0.12919-0.21394 0.05849-0.09979 0.1137-0.2011 0.17828-0.29714 0.0586-0.08236 0.12134-0.16232 0.19482-0.23099 0.01381-0.07437 0.02506-0.14923 0.04289-0.22272 0.08222-0.31404 0.18215-0.62445 0.34933-0.90537 0.11802-0.21063 0.23682-0.42119 0.37569-0.61908 0.11638-0.16912 0.23643-0.33568 0.35346-0.50436 0.08073-0.11723 0.14853-0.24045 0.21446-0.3669 0.07846-0.13663 0.16083-0.27086 0.23978-0.40721 0.06643-0.11482 0.13684-0.22818 0.21136-0.33745 0.03492-0.20402 0.08047-0.41705 0.13849-0.63975 0.01873-0.0719 0.0376-0.14411 0.05633-0.21601 0.1243-0.44351 0.27095-0.8793 0.41496-1.3167 0.11631-0.36226 0.2291-0.72585 0.33641-1.0909 0.11487-0.34336 0.2418-0.68374 0.39791-1.0108 0.0087-0.01841 0.01728-0.03689 0.02582-0.05529 0.0026-0.03644 0.0058-0.07273 0.01034-0.10904 0.01741-0.16021 0.03883-0.32001 0.06511-0.47904 0.02627-0.17003 0.05141-0.34037 0.08578-0.50901 0.32673-1.6032 0.99991-2.5251 1.6728-2.8391 0.01326-0.0687 0.02876-0.13709 0.05064-0.2036 0.03023-0.09265 0.06483-0.18341 0.10232-0.27337 0.01852-0.0463 0.03906-0.09269 0.05426-0.14004 5.3e-4 0.01442-2.64e-4 0.0016 0.0057-0.02842 0.0063-0.03131 0.01381-0.06224 0.02222-0.09302 0.0027-0.01005 0.0055-0.01995 0.0083-0.02998 0.0047-0.01447 0.0062-0.01783 0.0088-0.02532v-0.01344c2e-6 -0.02726-2.4e-5 -0.05439 0-0.08165 2.9e-5 -0.03102-1.14e-4 -0.062 0-0.09302 1.98e-4 -0.04697 5.29e-4 -0.09412 0.0016-0.14108 0.0013-0.05654 0.0036-0.11317 0.0088-0.1695 0.0059-0.05928 0.01381-0.11808 0.02429-0.17673 0.01659-0.08447 0.03673-0.16892 0.07286-0.24753 0.03549-0.07408 0.07773-0.14506 0.13229-0.20567v-1.4596c3e-6 -0.04445-5e-6 -0.08887 0-0.13332 8e-6 -0.04319-3.7e-5 -0.08652 0-0.12971 5.3e-5 -0.04945 2.04e-4 -0.09886 5.29e-4 -0.14831 5.3e-4 -0.07041 7.94e-4 -0.14045 0.0026-0.21084 0.0031-0.12356 0.0077-0.24713 0.01498-0.37052 0.01217-0.19555 0.02799-0.39088 0.05529-0.58498 0.02429-0.19144 0.04367-0.38367 0.0677-0.57516 0.03454-0.27268 0.07392-0.54528 0.13281-0.8139 0.047-0.2136 0.09309-0.42809 0.154-0.6382 0.0168-0.05766 0.02379-0.0769 0.02687-0.08113 0.0011-0.01008 0.0011-0.01458 0.0057-0.04444 0.0013-0.02162 0.0042-0.07442 0.0057-0.08785-0.29273-1.3948-0.14097-2.405 0.23203-2.9817-0.0011-0.03272-0.0016-0.06548-0.0026-0.09818zm78.847 0c0.0048 0.16398 0.0097 0.32796 0.01394 0.49196 0.02164 0.88524 0.03166 1.7707 0.03876 2.6562 0.0047 0.62404 0.0066 1.2482 0.0078 1.8722 7.94e-4 0.4455 7.94e-4 0.89083 0.0011 1.3364 1.06e-4 0.24002-2.7e-5 0.48034 0 0.72037 1.3e-5 0.13908 5.29e-4 0.27796 5.29e-4 0.41703 3e-6 0.10553 0 0.21125 0 0.31678v5.3888c0.43253-0.58675 0.95174-0.85286 1.432-0.85266 1.175 5.29e-4 2.1144 1.5918 0.96738 3.962-0.12565 0.25965-0.27021 0.50864-0.45114 0.73432-0.19214 0.25066-0.39043 0.497-0.58446 0.74621-0.1718 0.21505-0.34813 0.42622-0.5147 0.64544-0.17209 0.22285-0.3468 0.44519-0.47904 0.69505-0.31998 0.54217-0.65265 1.0766-1.002 1.6004-0.29936 0.44811-0.60287 0.89408-0.91571 1.3333-0.0013 0.17071-0.0044 0.34139-0.0052 0.51212-0.0016 0.39282-0.0019 0.78539-0.0021 1.1782-2.39e-4 0.34534-5.3e-4 0.69077-5.3e-4 1.0361-8e-6 0.0539 0 0.10783 0 0.16175h48.31v-24.952zm-79.05 0.91054c-0.012366 0.03814-0.026974 0.07404-0.040824 0.11059 0.00952-0.02225 0.019162-0.04386 0.028939-0.06976 0.00408-0.01365 0.016286-0.05439 0.011886-0.04082zm-0.10697 0.18759c-0.017311 0.06158-0.030929 0.11286-0.045475 0.16433-1.392e-4 5.29e-4 -3.784e-4 0.0011-5.159e-4 0.0016-2.779e-4 0.0011-7.859e-4 0.0021-0.00103 0.0031-0.00344 0.0056-0.00341 0.0056-0.00723 0.01188-0.021412 0.03923-0.020859 0.03976 0.00723-0.01085-0.00382 0.01342-0.0084 0.02922-0.012402 0.04237 0.00632-0.01545-0.0086 0.01945 0.014469-0.03514 0.00461-0.01405 0.00545-0.0172 0.00827-0.02585 0.00658-0.01188 0.00328-0.0057 0.012402-0.02223 3.175e-4 -7.94e-4 7.488e-4 -0.0013 0.00103-0.0021 6.164e-4 -0.0013 7.752e-4 -0.0024 0.00155-0.0041-6.456e-4 0.0013-0.00142 0.0024-0.00207 0.0036-0.00423 0.0079-0.00852 0.01585-0.012919 0.02376 3.837e-4 -0.0011 7.038e-4 -0.0026 0.00103-0.0036 1.092e-4 -2.65e-4 4.101e-4 -7.94e-4 5.159e-4 -0.0011 0.00952-0.02918 0.013484-0.04332 0.029456-0.11317 0.00242-0.01058 0.00862-0.04302 0.00568-0.03256zm72.679 13.3c-5.29e-4 0.0028-5.29e-4 0.0044-0.0011 0.0067-2.65e-4 0.01413-0.0016 0.04339-0.0011 0.03256 5.29e-4 -0.01307 0.0016-0.02619 0.0021-0.03927z" fill="#f00"/>
  </clipPath>
 </defs>
 <circle cx="39.688" cy="39.688" r="37.916" fill="#de6e32" stroke="#de6e32" style="paint-order:stroke markers fill"/>
 <rect x="-21.463" y="22.122" width="126.35" height="11.956" clip-path="url(#clipPath6390)" fill="#9a7968" opacity=".57401" style="paint-order:stroke markers fill"/>
 <rect x="-24.144" y="38.341" width="152.07" height="24.952" clip-path="url(#clipPath7983)" fill="#90593c" opacity=".57401" style="paint-order:stroke markers fill"/>
 <path d="m84.413 44.711c-2.5405-1.1712-3.9886-0.13838-6.0783 1.2627-1.8085 1.2125-3.5338 2.5726-5.2366 3.9318-0.92249 0.73637-1.6589 2.2406-2.7416 2.6604-0.84404 0.3272-1.9139 0.22063-2.8157 0.33962-3.2257 0.42563-6.5659-0.02833-9.7808 0.46734-4.0274 0.62094-8.1386 0.17753-12.213 0.36284-6.9719 0.31708-13.917 0.78129-20.853 0.12627-0.37024-0.03496-2.6964 0.03993-2.9782 0-0.34962-0.04952-0.65098-0.28274-0.99419-0.36575-0.5691-0.13763-1.2357 0.10184-1.8128 0-2.5842-0.45603-4.9046-0.94086-7.5776-1.0581-3.8311-0.16796-8.3021 0.68316-11.792-1.1538-0.68294-0.35944-5.4727-5.1357-5.672-4.6647-0.67807 1.6027-1.33 6.0653-1.0348 7.9593 0.10213 0.65535 0.72282 1.15 1.2583 1.5414 2.3133 1.6904 9.1639 0.89497 12.112 1.0972 6.4252 0.44087 12.869 0.36284 19.319 0.36284 6.1226 0 12.265-0.19629 18.258 0.71552 2.0168 0.30682 4.4702-0.16396 6.447 0.4746 3.8408 1.2407 9.0446 4.2304 13.102 4.1727 1.0734-0.01529 2.5437-2.2916 3.1829-2.9027 0.66085-0.63186 0.94521-3.7073 2.2917-3.9695 1.2866-0.25052 2.6006-0.85831 3.9434-1.0232 0.52532-0.06451 1.0693 0.10611 1.5878 0 2.5808-0.52811 1.1921-0.72808 3.1771-1.0972 0.89891-0.16718 1.7323-0.27176 2.6444-0.56168 1.4844-0.47187 2.3135-5.0371 2.3135-6.3077 0-0.0078-0.03499-2.3972 0-2.4006 0.64528-0.06308 1.2966 0.02032 1.9448 0.03048z" clip-path="url(#clipPath7798)" fill="#8c4b3c" opacity=".95003" style="paint-order:stroke markers fill"/>
 <path d="m-8.6685 56.882c2.6157 0.99185 3.9886-0.13907 5.9759-1.6819 1.7199-1.3352 3.3465-2.8118 4.9507-4.2861 0.86909-0.79868 1.4992-2.3505 2.5502-2.8444 0.81927-0.38506 1.8939-0.35307 2.7853-0.53442 3.1883-0.64871 6.552-0.42791 9.7247-1.1457 3.9745-0.89924 8.1066-0.74254 12.159-1.2105 6.9331-0.80069 13.829-1.7463 20.794-1.5748 0.37177 0.0092 2.6871-0.22717 2.971-0.20692 0.35222 0.02511 0.66905 0.23683 1.0172 0.29579 0.57729 0.09776 1.2256-0.18744 1.8084-0.12594 2.6096 0.27539 4.9582 0.59784 7.6328 0.52903 3.8335-0.09862 8.2346-1.2583 11.844 0.33177 0.70626 0.31112 5.8163 4.7431 5.9824 4.2594 0.56508-1.646 0.90541-6.143 0.47935-8.012-0.14742-0.64667-0.80098-1.097-1.3624-1.4502-2.4251-1.5256-9.2039-0.25614-12.159-0.25311-6.4403 0.0066-12.863 0.53209-19.298 0.98025-6.1078 0.42537-12.221 1.0479-18.264 0.55471-2.0333-0.16596-4.448 0.47414-6.4644-0.02554-3.9177-0.97087-9.3166-3.5918-13.36-3.2524-1.0698 0.08983-2.3783 2.4628-2.9735 3.1169-0.61535 0.67625-0.68535 3.764-2.0104 4.1191-1.2661 0.3393-2.5346 1.0369-3.8628 1.2947-0.51957 0.10085-1.0741-0.03156-1.584 0.11031-2.5379 0.70614-1.1386 0.80914-3.0931 1.3153-0.88512 0.22922-1.7093 0.39146-2.599 0.74405-1.4481 0.57386-1.9579 5.1856-1.8697 6.4532 5.42e-4 0.0078 0.20146 2.3889 0.16678 2.3948-0.63934 0.10776-1.2948 0.06981-1.9422 0.10471z" clip-path="url(#clipPath7690)" fill="#9a5b38" opacity=".95003" style="paint-order:stroke markers fill"/>
 <path d="m79.96 23.074c-2.7159 1.0766-5.5731 0.88724-8.4339 1.0842-1.9393 0.1335-4.0806 0.30715-6.0276 0.11901-3.3201-0.32083-4.8953-1.3379-8.6502-0.75326-1.9733 0.30726-1.631 2.3861-2.9623 2.9173-1.8574 0.7411-4.5843 0.17865-6.5341 0.41364-2.146 0.25865-6.9713 0.69008-9.0595 0.23948-0.82151-0.17727-1.951-0.42732-2.5965-1.0261-0.44199-0.40999-0.62397-0.87984-1.2162-1.1234-1.3933-0.5729-3.9911-0.68086-5.5051-0.43251-1.5213 0.24956-3.6483 1.1763-4.9405 1.9985-0.38362 0.24412-0.4869 0.70029-0.83599 0.955-1.3575 0.99053-9.218 0.81567-11.498 0.81567-1.5664 0-3.2047 0.02169-4.7242-0.32946-1.8785-0.43412-5.5829-3.7672-7.2902-0.96226-0.25039 0.41135-0.089517 0.9128-0.24238 1.3541-0.26556 0.76671-0.61369 1.9193-0.49782 2.7504 0.15895 1.1401 1.9047 1.0201 2.7808 1.1132 5.2566 0.55862 10.618 0.59361 15.952 0.59361 1.8745 0 1.9204-1.2528 3.4398-2.6879 0.26214-0.24761 0.08638 0.73868 0.27431 1.0464 0.37624 0.61614 1.1228 0.61946 1.7779 0.68795 0.64955 0.06791 1.6137-0.08548 2.2293 0.08998 2.4422 0.69608 4.5598 2.1821 6.9231 3.0377 0.49467 0.1791 1.3486-0.04274 1.8723 0 1.7422 0.14222 2.6829 0.3974 4.2903-0.88679 0.47188-0.37702 1.0885-1.557 1.7025-1.6633 4.898-0.84773 10.226-0.35123 15.222-0.35123 1.2791 0 4.4576 0.42279 5.3048-0.11176 2.1665-1.3669 5.0816-6.0798 7.3439-6.2786 2.5024-0.21994 10.146 0.38577 11.881-0.11611 0.79842-0.23103 0.68897-1.9997 0.02032-2.4935-0.49345-0.36436-2.102-0.34688-3.0493-0.34688" clip-path="url(#clipPath5953)" fill="#9a5b38" opacity=".95003" style="paint-order:stroke markers fill"/>
 <g stroke-linecap="square" stroke-linejoin="round">
  <circle cx="39.688" cy="39.688" r="66.526" display="none" fill="none" stroke="#000" stroke-width="57.561" style="paint-order:stroke markers fill"/>
  <path d="m30.819 19.805c-4.1837-0.35626-8.8038-1.1231-12.809-2.1261-2.9403-0.73629-7.1633-2.0521-7.3009-2.2749-0.132-0.21359 3.3586-3.6421 5.216-5.1232 4.2083-3.3557 8.8902-5.7626 13.713-7.0497 3.5851-0.95678 4.2371-1.0413 8.6847-1.1259 5.5602-0.10582 7.7529 0.16897 12.086 1.5147 5.6605 1.7578 10.575 4.6584 15.016 8.8616 0.70741 0.66963 1.2336 1.2697 1.1693 1.3336-0.20738 0.20586-4.157 1.6917-6.5735 2.4729-5.0983 1.6482-10.149 2.7038-15.848 3.3125-2.6237 0.28022-10.965 0.40804-13.353 0.20463z" fill="#a40" opacity=".71369" stroke="#808080" stroke-width=".19693" style="paint-order:stroke markers fill"/>
  <path transform="scale(.26458)" d="m141.92 293c-26.62-1.5286-52.848-10.668-74.4-25.924l-2.9923-2.1183 1.0337-0.18557c1.2286-0.22056 13.463-0.83467 28.847-1.448 14.218-0.56684 67.748-0.65499 81.611-0.13439 9.6472 0.36229 24.266 1.0123 27.813 1.2366 10.213 0.64599 19.172 1.2559 23.112 1.5734 2.5854 0.20836 5.024 0.37958 5.419 0.38049 0.39499 9.2e-4 0.71694 0.0898 0.71544 0.19753-4e-3 0.28339-6.7278 4.6851-10.91 7.1422-23.832 14.001-52.448 20.876-80.249 19.28z" fill="#a05a2c" opacity=".71369" stroke="#808080" stroke-width=".35047" style="paint-order:stroke markers fill"/>
 </g>
</svg>
