<?xml version="1.0" encoding="UTF-8"?>
<!-- Created with Inkscape (http://www.inkscape.org/) -->
<svg width="200" height="200" version="1.1" viewBox="0 0 79.375 79.375" xmlns="http://www.w3.org/2000/svg">
 <defs>
  <clipPath id="clipPath10346">
   <path d="m0.55035 13.832v1.635c0.013624-0.03771 0.027882-0.07519 0.040824-0.11317 0.029865-0.07955 0.045456-0.16237 0.066663-0.24443 0.035083-0.09125 0.055016-0.19466 0.10697-0.27905 0.038616-0.06273 0.079816-0.12371 0.11989-0.18552 0.29157-0.289 0.28037-0.30656 0.74879-0.1664 0.00943-8e-3 0.01871-0.01611 0.028422-0.02377 0.038279-0.03021 0.078907-0.05761 0.11834-0.0863 0.18162-0.1113 0.39287-0.19955 0.6103-0.19585 0.076395 0.0013 0.15269 0.0104 0.22893 0.0155 0.29826 0.04601 0.56119 0.19292 0.81029 0.35502 0.18548 0.12233 0.34547 0.27539 0.49454 0.43873 0.016566-0.0072 0.033022-0.01459 0.049609-0.0217 0.28945-0.12227 0.58211-0.23655 0.87333-0.3545 0.27465-0.11507 0.54292-0.24305 0.80822-0.37827 0.22297-0.11013 0.44693-0.2214 0.68471-0.29662 0.17147-0.04967 0.34494-0.08824 0.524-0.09664 0.00707-6.08e-4 0.014115-0.0014 0.021188-0.0021zm9.2335 0c0.00151 0.02373 0.00214 0.04455 0.00413 0.07028 0.14537 0.31904 0.23014 0.70272 0.14056 0.91364 0.00709 0.03288 0.012385 0.0624 0.020153 0.09663 0.00692 0.03054-0.058157 0.02327-0.08785 0.03307-0.00172 5.56e-4 -0.00346 9e-4 -0.00517 0.0016 0.23777 0.32426 0.072528 0.96977-0.73329 1.6485-0.057122 0.04811-0.10998 0.1011-0.16381 0.15296 0.46952 0.28852 0.32354 1.0623-0.78858 1.6831 0.25275-0.01178 0.34177 0.14002 0.036174 0.66973-0.021304 0.03693-0.0429 0.07344-0.067179 0.10852-0.046171 0.06296-0.093466 0.12466-0.14728 0.18138-0.052558 0.0579-0.10633 0.11483-0.16226 0.1695-0.00563 0.0056-0.00681 0.0069-0.010853 0.01085-7.144e-4 0.0064-0.00122 0.01276-0.00206 0.01912-0.00863 0.06171-0.00529 0.02968-0.00982 0.06976-0.00937 0.06521-0.021341 0.12993-0.039791 0.19327-0.025241 0.09225-0.05667 0.1828-0.10232 0.26717-0.036149 0.06897-0.075463 0.13632-0.12041 0.19999-0.026495 0.03868-0.053004 0.07697-0.076998 0.11731-0.035692 0.05586-0.072253 0.11142-0.11007 0.16588-0.00569 0.0083-0.058118 0.09468-0.028939 0.03721 0.00262-0.0051-0.00554 0.0099-0.00827 0.01499-0.027831 0.05084-0.051489 0.10382-0.080615 0.154-0.02204 0.04089-0.047421 0.08598-0.061495 0.11627-0.00254 0.0057-0.023728 0.05306-0.032556 0.07131-5.557e-4 0.0079-9.79e-4 0.01533-0.00259 0.03204-0.00333 0.03453-0.00771 0.06932-0.010853 0.10387-0.00122 0.01343-0.00254 0.02687-0.00362 0.04031-0.00672 0.07807-0.01275 0.156-0.019121 0.2341-0.00826 0.07503-0.019468 0.14942-0.028939 0.22428-0.00815 0.07809-0.013139 0.15685-0.019121 0.23513-0.011972 0.14312-0.030524 0.28599-0.068729 0.42478-0.052595 0.18688-0.11724 0.37041-0.20361 0.54467-0.091463 0.18451-0.19089 0.36472-0.29817 0.54054-0.090982 0.15074-0.1825 0.30126-0.28215 0.44648-0.050864 0.07337-0.10571 0.14427-0.15038 0.22169-0.033599 0.05841-0.064733 0.11861-0.0894 0.18138-0.043314 0.0933-0.090401 0.1845-0.13849 0.27544-0.060296 0.11676-0.1243 0.23158-0.20412 0.33641-0.085812 0.11508-0.17699 0.2264-0.27905 0.32763-0.084413 0.08523-0.17173 0.16712-0.2558 0.2527-0.091412 0.09212-0.1836 0.18374-0.27492 0.27595-0.123 0.12425-0.24275 0.25156-0.36845 0.3731-0.18034 0.1718-0.36741 0.33629-0.56276 0.49093-0.077425 0.06346-0.15428 0.12751-0.23151 0.1912-0.043125 0.21978-0.098269 0.43698-0.14831 0.65526-0.054543 0.23208-0.10535 0.46467-0.15348 0.69815-0.066342 0.32744-0.1444 0.65237-0.22014 0.97772-0.090989 0.37396-0.15393 0.75387-0.22324 1.1322-0.064729 0.34004-0.14016 0.67792-0.20205 1.0185-0.036931 0.21356-0.075816 0.42643-0.1111 0.64027-0.01513 0.09922-0.028514 0.19888-0.039274 0.29869-0.010062 0.08797-0.019252 0.17612-0.029456 0.26406-0.013651 0.0911-0.02361 0.18291-0.034107 0.2744-0.011409 0.09877-0.021195 0.19764-0.03514 0.29611-0.00921 0.07256-0.027493 0.1437-0.034623 0.21652-0.00515 0.0688-0.01092 0.1375-0.01757 0.20619-0.00318 0.03589-0.00752 0.07146-0.00879 0.10749-0.00121 0.02816-0.00129 0.05658-0.00155 0.08475 0.00503 0.15585-0.035763 0.30339-0.082682 0.4501-0.050437 0.12914-0.1202 0.24946-0.19069 0.36845-0.029897 0.04744-0.055275 0.10719-0.086816 0.17208-0.015511 0.03964-0.04144 0.07568-0.05581 0.11576-4e-3 0.01116 0.00975-0.02196 0.01602-0.03204 0.00165-0.0027-7.409e-4 0.0063-0.00155 0.0093-0.00342 0.01273-0.00724 0.02556-0.010852 0.03824-0.023373 0.07365-0.039612 0.14866-0.054777 0.22427-0.00665 0.03055-0.011833 0.06116-0.017053 0.09199-0.00564 0.03328-0.012854 0.06351-0.01912 0.0956 0.010501 0.04582 0.02014 0.09186 0.028939 0.13798 0.021266 0.12302 0.037131 0.24675 0.049093 0.37104 0.010586 0.11326 0.01516 0.22685 0.014986 0.34055-0.00341 0.09206-0.0067 0.184-0.012402 0.27595-0.0053 0.07604-0.01382 0.15161-0.025838 0.22686-0.011285 0.06421-0.0043 0.02156-0.015503 0.0987-0.00263 0.01217-0.00306 0.01609-0.00413 0.02273-0.00505 0.05186-0.0077 0.07353-0.010335 0.11059-0.00244 0.02963-0.00313 0.05969-0.00362 0.0894-6.429e-4 0.04179-8.44e-4 0.08327-0.00103 0.12506-1.299e-4 0.02927 2.63e-5 0.05858 0 0.08785-2.56e-5 0.03143-5.133e-4 0.06314-5.16e-4 0.09457-3.1e-6 0.03675 6e-7 0.07333 0 0.11007v4.6808c0 1.5583-0.8802 1.9831-1.3606 1.2754v18.277h56.581v-47.647zm-2.6376 7.1546c-5.98e-5 8.2e-4 -4.498e-4 0.0046-5.291e-4 0.0057 5.027e-4 -0.0016 1.34e-5 -5.55e-4 5.291e-4 -0.0021-8.49e-5 -0.0012 2.268e-4 -0.0067 0-0.0036z" fill="#f00"/>
  </clipPath>
  <clipPath id="clipPath11364">
   <path d="m26.139 61.228v13.735c0.1439 0.05226 0.28717 0.10656 0.42891 0.16433 0.14569 0.05804 0.28889 0.12169 0.43047 0.18914 0.12228 0.05737 0.24384 0.11714 0.35915 0.18758 0.06614 0.02836 0.12847 0.10198 0.19689 0.12351 0.03865 0.01786 0.07816 0.03353 0.11886 0.04599 0.04222 0.01302 0.08623 0.01614 0.12971 0.02273 0.04896 0.0058 0.09642 0.01781 0.14314 0.03256 0.27899-0.40942 0.87777-0.71675 1.7663-0.71882 0.27018-5.29e-4 0.56708 0.02688 0.88987 0.08837 0.22697 0.04324 0.43176 0.13661 0.63045 0.25011 0.0921 0.04977 0.17566 0.1113 0.25632 0.17673 0.08696-0.01175 0.17798-0.01831 0.27337-0.01913 0.37973-0.0031 0.82515 0.08467 1.3291 0.29507 0.05872 0.02453 0.12024 0.04077 0.18035 0.06098 0.02262 0.0076 0.04386 0.01831 0.06667 0.02532 0.06348 0.01945 0.12853 0.03401 0.19224 0.05271 0.18494 0.04386 0.36885 0.09201 0.55604 0.12557 0.17898 0.02154 0.35524 0.06065 0.52813 0.1111 0.03122 0.0081 0.06253 0.0154 0.09354 0.02429 0.17501 0.05002 0.0013 0.0069 0.17053 0.04909 0.05622 0.01402 0.11351 0.02302 0.17002 0.03617 0.02339 0.0043 0.04712 0.0074 0.07028 0.01291 0.0698 0.01648 0.13867 0.03641 0.20826 0.05374 0.05377 0.01339 0.1074 0.02323 0.16123 0.03721 0.12136 0.02466 0.2399 0.06113 0.36122 0.08578 0.07231 0.0098 0.14496 0.01461 0.21756 0.0217 0.11565 0.0047 0.23136 0.0074 0.34675 0.01707 0.17311 9e-3 0.34652 0.02069 0.51831 0.04496 0.13812 0.01386 0.27659 0.01992 0.41496 0.02997 0.15196 0.0054 0.30416 9e-3 0.45579 0.02066 0.22827 0.0024 0.45608 0.01897 0.68161 0.05426 0.14047 0.01587 0.12577 0.01439 0.11369 0.01344-0.0011 7.94e-4 0.0222 0.0052 0.14056 0.0217 0.04015 0.0056 0.08081 0.0081 0.12092 0.01394 0.03948 0.0057 0.07832 0.01505 0.11782 0.02066 0.07454 0.01064 0.14968 0.01717 0.22427 0.02739 0.0378 0.0024 0.07596 4e-3 0.11369 0.0072 0.11672 0.0098 0.23324 0.02032 0.35037 0.02532 0.40053 0.01709-0.1726-0.0159 0.23203 0.0088 0.03901 4.3e-5 0.0783-0.0011 0.1173 0 0.0408 0.0011 0.08168 0.0054 0.12247 0.0062 0.16288 0.0033 0.32546-5.29e-4 0.48834 0.0036 0.22542 7.94e-4 0.45105-0.0094 0.67644-0.0057 0.19996-0.0024 0.40002-0.0079 0.59996-0.0026 0.17291-2.01e-4 0.34544-0.01161 0.51831-0.0098 0.14564-0.0035 0.2916-0.0058 0.43718 0 0.16423 0.0021 0.32885-0.0019 0.49299 0.0047 0.18254 5.29e-4 0.36476-0.0016 0.54725 0.0026 0.18824 0.0011 0.37712-0.0057 0.56534 0.0011 0.19206 0.0013 0.38408-0.0038 0.57619-5.29e-4 0.02532-2.65e-4 0.05065 2.64e-4 0.07596 0-0.57712-1.2921 0.91335-2.5338 2.9166-1.0402 0.06094 0.0057 0.12065 0.01175 0.13332 0.01291 0.2344-0.0032 0.46795-0.01865 0.70022-0.05116 0.12069-0.01688 0.24062-0.03981 0.36122-0.05736 0.21959-0.04385 0.44005-0.08265 0.65888-0.13022 0.19319-0.04702 0.09664-0.02527 0.28835-0.06511 0.24739-0.05912 0.4933-0.12367 0.73949-0.18758 0.19626-0.05726 0.39059-0.12126 0.58808-0.17415 0.25411-0.07975 0.5077-0.16273 0.76584-0.22893 0.27066-0.08043 0.01344-0.0074 0.31678-0.08165 0.05084-0.01246 0.10097-0.02836 0.15193-0.04031 0.05416-0.0127 0.10909-0.02109 0.1633-0.03359 0.35421-0.08166-0.0659 0.0024 0.32608-0.07234 0.05416-0.01331 0.10765-0.02852 0.16226-0.03979 0.06684-0.01378 0.13506-0.02259 0.20205-0.03565 0.06047-0.0118 0.1199-0.02736 0.18035-0.03928 0.06044-0.01191 0.1215-0.0199 0.1819-0.03204 0.70424-0.14147-0.37795 0.06476 0.34416-0.07132 0.0387-9e-3 0.0026-2.64e-4 0.02739-0.0062 0.1892-0.13602-0.07821 0.04453 0.18552-0.13229 0.03599-0.02772 0.07201-0.05547 0.108-0.0832 0.02697-0.01836 0.05517-0.03501 0.08113-0.05478 0.02178-0.01659 0.04057-0.0367 0.06201-0.05374 0.01979-0.01574 0.04178-0.02868 0.06149-0.04444 0.11155-0.08899 0.0039-0.01453 0.0956-0.07596 0.06414-0.04924 0.12952-0.09611 0.19534-0.14314 0.06607-0.04896 0.13602-0.09094 0.20671-0.13281 0.12899-0.08418 0.26-0.16586 0.39636-0.23771 0.1421-0.07924 0.28917-0.14916 0.4377-0.21549 0.12923-0.06243 0.26124-0.11923 0.38861-0.18552 0.11081-0.05986 0.22061-0.12052 0.33021-0.18242 0.09922-0.06279 0.20071-0.12229 0.29197-0.19689 0.19876-0.1594 0.40595-0.31011 0.62477-0.4408 0.26992-0.16839 0.55194-0.31681 0.83871-0.45424 0.52065-0.26404-0.17673 0.08715 0.33486-0.16226 0.06016-0.02933 0.11876-0.06188 0.1788-0.09147 0.06017-0.02966 0.12199-0.05611 0.1819-0.0863 0.06504-0.03278 0.12761-0.06977 0.19275-0.10232 0.05636-0.02815 0.11443-0.05307 0.17157-0.07958 0.05716-0.03082 0.11441-0.06167 0.17157-0.0925 0.05362-0.0263 0.10807-0.05084 0.16071-0.07906 0.02267-0.01214 0.04459-0.02553 0.06666-0.03876 0.18794-0.34767 0.3739-0.69654 0.57878-1.033-0.0465-0.03101-0.09315-0.06182-0.13953-0.09302-0.40591-0.26832-0.81743-0.52808-1.2335-0.78031-0.08472-0.05136-0.16929-0.10286-0.25476-0.15296-0.08277-0.04852-0.17602-0.08218-0.25011-0.14314-0.09933-0.08173-0.17627-0.1871-0.26458-0.2806 0.51212-0.6603 0.94348-1.3918 1.5363-1.9808 0.0154-0.01529 0.03271-0.02204 0.05116-0.02223 0.07991-7.94e-4 0.18303 0.11779 0.26665 0.16071 0.10694 0.0549 0.20566 0.1253 0.31058 0.18397 0.09352 0.0523 0.19095 0.097 0.28474 0.14883 0.66274 0.36622-0.01897 0.01384 0.63562 0.3452 0.10665 0.0572 0.21215 0.11642 0.31988 0.17157 0.09891 0.05063 0.20055 0.09665 0.30024 0.14573 0.09423 0.04639 0.18711 0.09532 0.28164 0.14108 0.21273 0.10296 0.42811 0.20109 0.64337 0.29869 0.05854-0.0609 0.11959-0.12181 0.18448-0.18294 0.08473-0.07982 0.17635-0.14975 0.27027-0.21807 0.02095-0.01524 0.04007-0.03344 0.06304-0.04547 0.1148-0.06018 0.23291-0.11409 0.34933-0.17105 0.05407-0.01791 0.10758-0.03777 0.16226-0.05374 0.05036-0.01471 0.10166-0.02513 0.15244-0.03824 0.15978-0.04127 0.31964-0.08104 0.48162-0.11266 0.02751-0.0056 0.05514-0.01056 0.08268-0.01601-0.08302-0.33725 0.03616-0.77592 0.39946-1.2459 0.19549-0.38828 0.61466-0.78825 1.2898-1.1172 0.05283-0.04519 0.10534-0.08837 0.15761-0.12919 0.1342-0.13253 0.29208-0.23882 0.45889-0.32763 0.0711-0.03769 0.14412-0.07058 0.21911-0.09974 0.01278-0.0052 0.02633-0.0082 0.03928-0.01291 0.279-0.12507 0.54245-0.18868 0.78393-0.20205 0.0096-0.03471 0.02066-0.06914 0.03359-0.10284 0.0092-0.02968 0.01923-0.05918 0.02997-0.08888-0.01207 0.03606-0.014 0.042-0.0057 0.01963 0.04057-0.12056 0.09059-0.23836 0.15761-0.34675 0.03202-0.05119 0.06504-0.092 0.09457-0.14521 0.03114-0.05258 0.06524-0.10382 0.09198-0.154 0.06971-0.12784 0.15753-0.2452 0.25218-0.35553 0.09703-0.10842 0.20181-0.20856 0.31419-0.30127 0.08833-0.07288 0.1759-0.14041 0.26252-0.20309-0.06244-0.52068-0.01101-0.95328 0.11782-1.294zm34.444 5.7464c-0.01924 0.0037-0.03692 0.04711-0.02532 0.06459 0.04727 0.07129 0.11693 0.1238 0.18138 0.18087 0.01603-0.02445 0.03202-0.04894 0.04806-0.07338-0.06523-0.05699-0.11742-0.1343-0.19586-0.17105-0.0027-0.0013-0.0055-0.0016-0.0083-0.0011zm4.762 0.98909c-9e-3 0.02718-0.0054 0.01958-0.0021 0.01138 0.0024-0.01201 0.0013-7e-3 0.0021-0.01138zm-5.8834 1.1958c-0.0057-7.94e-4 -0.0041 0.01061-0.0062 0.01603 0.0034-0.0051 0.0065-0.0104 0.0098-0.0155-0.0013-1.72e-4 -0.0024-1.56e-4 -0.0036-5.3e-4zm13.818 0.50333c-0.10183 0.20654-0.20553 0.4129-0.32246 0.61133-0.10035 0.18492-0.2012 0.36934-0.29611 0.55707-0.01117 0.0266-0.02019 0.05428-0.03307 0.0801-0.01749 0.03505-0.04025 0.06733-0.05788 0.10232-0.0731 0.14512-0.13146 0.29735-0.1943 0.447-0.01241 0.03419-0.0236 0.06859-0.03721 0.10232-0.01614 0.04001-0.03519 0.07899-0.05168 0.11886-0.05482 0.13249-0.10489 0.26685-0.15813 0.39997-0.03667 0.10324-0.0808 0.20318-0.10594 0.31006-0.0054 0.03894-0.01603 0.0818-0.0098 0.12144-0.0055 0.04678-0.0021 0.09653-0.01035 0.14314-5.29e-4 0.04183-0.0032 0.08324-0.0052 0.12506 2.01e-4 0.06187 0.0013 0.12366 0.0011 0.18552 7.94e-4 0.02635 0.0016 0.05272 0.0031 0.07907 0.13206 2.4426-1.3464 3.1721-2.1782 2.1921-0.30484 0.21564-0.67182 0.26135-1.0149 0.15141-0.0029 0.01799-0.0067 0.03569-0.0093 0.05374-0.02365 0.15213-0.05437 0.30362-0.0708 0.45682-0.0024 0.11946-0.02823 0.23484-0.05684 0.35037-0.05688 0.18518-0.14081 0.36012-0.25218 0.51883-0.01921 0.02737-0.08383 0.11069-0.11007 0.1447-0.09124 0.11733-0.1965 0.22201-0.30231 0.32608-0.08187 0.0781-0.1702 0.14939-0.25115 0.22841-0.08165 0.07151-0.16188 0.14428-0.24598 0.21291-0.14128 0.11069-0.3017 0.18697-0.46974 0.24753-0.13885 0.04733-0.28279 0.06457-0.42788 0.07441-0.10719 0.09657-0.21337 0.18477-0.31781 0.26458 0.16089 0.1081 0.25955 0.25871 0.20671 0.47284-0.50912 2.0631-0.77853 2.0786-1.7642 1.8159-0.32196-0.08497-0.64353-0.17276-0.9617-0.2713-0.09726-0.01273-0.1952-0.02037-0.29249-0.03307-0.13127-0.01714-0.26221-0.03758-0.39326-0.05633-0.26773-0.0064-0.53258-0.04924-0.79943-0.06615-0.13032-0.0083-0.26074-0.0071-0.39119-0.01291-0.1314-0.0059-0.26283-0.01802-0.39429-0.02222-0.49364-0.0027-0.24689 0.0024-0.73949-0.01447-0.11427 0.0013-0.22835 0.0021-0.34262 0.0036-0.11188-0.0021-0.224-0.0064-0.3359-0.0057-0.10481 7.94e-4 -0.2094 0.0076-0.31419 0.0098-0.10038 0.0021-0.20093-5.29e-4 -0.30127 0.0031-0.37743 0.02373-0.18982 0.01471-0.56379 0.02739-0.08897 8e-3 -0.17768 0.0163-0.26665 0.02429-0.0908 0.0047-0.1817 0.0067-0.27234 0.01394-0.08727 7e-3 -0.1737 0.02133-0.26097 0.02842-0.09685 0.0079-0.19456 0.0092-0.29146 0.01654-0.6486 0.04886 0.12495 0.0065-0.54415 0.03927-0.51806 0.04496 0.01749 0.0024-0.51366 0.03204-0.07854 0.0044-0.15657 0.01357-0.23513 0.01757-0.07841 0.0041-0.15723 0.0029-0.23564 0.0067-0.57293 0.02796 0.1435 0.0058-0.4346 0.02119-0.48701 0.03482 0.08698-0.0035-0.4129 0.02119-0.06344 0.0031-0.12671 0.01032-0.19017 0.01291-0.06631 0.0027-0.13262 7.94e-4 -0.19895 0.0031-0.42968 0.01479 0.07188 8e-3 -0.36845 0.01138-0.3538 0.01691 0.019 0.0031-0.35708 0.0041-0.05843 2.01e-4 -0.11675 0.0055-0.17518 0.0052-0.06539-5.3e-4 -0.13046-0.0066-0.19585-0.0072-0.06251-5.29e-4 -0.12507 0.0024-0.18759 0.0036l-0.19947-0.0047c-0.06263 0.0016-0.12546 0.0051-0.1881 0.0052-0.06684 0-0.13366-0.0052-0.2005-0.0052-0.06299 0-0.12614 0.0045-0.18914 0.0052-0.0637 7.94e-4 -0.12698-0.0021-0.19068-0.0011-0.23305 0.0088-0.11691 0.0062-0.3483 0.0078-0.27153 7e-3 -0.54332 0.02109-0.81494 0.02429-0.1773 0.0073-0.3543 0.01548-0.53175 0.01603-0.14167 0.0048-0.28366 0.0065-0.4253 5.29e-4 -0.1615-0.0021-0.32323 1.04e-4 -0.48472-0.0036-0.14816 7.93e-4 -0.29629 0.0095-0.44442 0.0062-0.13124 1e-4 -0.26261 0.0051-0.39377 0.0011-0.13273 0.0021-0.26517 5.29e-4 -0.39791 0-0.07352 0.0026-0.14721 0.0048-0.22066 0.0088-0.0136 7.94e-4 -0.02721 0.0032-0.04083 0.0026-0.07726-0.0033-0.15432-0.0097-0.23151-0.01447-0.7085-0.15785-0.62973-0.10465-0.5457-0.91984-0.04702-7.94e-4 -0.09404-7.94e-4 -0.14108-0.0011-0.14647 0.0019-0.2928 0.0021-0.43925 0.0026-0.13677 0.0058-0.27396-0.0021-0.41083-0.0021-0.0489 0.0011-0.09782 7.94e-4 -0.14676 5.29e-4 0.08065 0.7717-0.8271 1.5466-2.6484 1.309-0.22196-0.02897-0.44475-0.0536-0.66508-0.09405-0.39425-0.06095-0.78406-0.14664-1.1762-0.21962-0.89512-0.13344 0.42994 0.06706-0.42995-0.07338-0.07263-0.01185-0.14585-0.01828-0.21859-0.02946-0.07357-0.01132-0.14647-0.02707-0.22014-0.03772-0.07753-0.01122-0.15528-0.0186-0.23306-0.02791-0.07659-0.01193-0.15337-0.02373-0.22996-0.03565-0.85834-0.08742 0.36393 0.04046-0.47956-0.05891-0.08373-0.0099-0.16786-0.01447-0.25167-0.02376-0.0826-0.0092-0.16486-0.02355-0.24753-0.03204-0.08718-9e-3 -0.17478-0.01156-0.262-0.02016-0.08299-0.0082-0.16577-0.02043-0.24856-0.03049-0.08643-0.0056-0.17247-0.01093-0.2589-0.01654-0.08347-0.0086-0.16694-0.01974-0.25063-0.02585-0.08613-0.0064-0.17268-0.0069-0.2589-0.01188-0.0874-0.0051-0.17452-0.0149-0.262-0.0186-0.09071-0.0038-0.18159-5.3e-4 -0.27234-0.0036-0.08267-0.0028-0.16495-0.0093-0.24753-0.01394l-0.24392 0.0036c-0.07733-0.0019-0.15468-0.0065-0.23203-0.0057-0.07508 7.94e-4 -0.15028 0.0084-0.22531 0.01085-0.08014 0.0026-0.1602 7.94e-4 -0.2403 0.0047-0.76804 0.03671 0.27115 0.0045-0.5023 0.02532-0.64632 0.04316 0.09449-0.0024-0.55035 0.02479-0.10108 0.0042-0.20227 0.01376-0.30334 0.0181-0.07898 0.0033-0.15819 0.0031-0.23719 0.0057 0.17711 0.26012-0.09348 0.54628-0.69763 0.39067l-0.02792-0.0073c-0.06276-0.01603-0.12639-0.03011-0.18862-0.04806-0.0803-0.02434-0.15985-0.05004-0.2403-0.0739-0.0099-0.0029-0.02-0.0054-0.02997-0.0083-0.07153 0.06006-0.18148 0.10556-0.32866 0.12402 0.04628 0.02842 0.09204 0.05761 0.13849 0.08578 0.44359 0.2625 0.90047 0.50174 1.355 0.74466 0.32807 0.17178 0.6577 0.34064 0.98857 0.50695 0.17726 0.08591 0.35265 0.17511 0.52865 0.26355 0.0368 0.02003 0.07585 0.03576 0.11472 0.05116 0.84084 0.33311 0.52956 1.0321-0.28629 0.64182-0.04992-0.02387-0.09933-0.04816-0.1478-0.07493-0.17344-0.09192-0.34414-0.18906-0.51883-0.27854-0.19982-0.10456-0.39779-0.21251-0.59634-0.31936-0.75443-0.32573-1.5172-0.6314-2.2805-0.93586 0.07498 0.04493 0.14944 0.09052 0.21032 0.13436 1.556 0.66597 1.7034 1.8755 0.89348 2.404 2.9861 1.0117 1.9202 3.7058-1.1813 2.4371-0.02495-0.01021-0.04999-0.02029-0.07493-0.03049-0.17732-0.06979-0.34959-0.15123-0.524-0.22789-0.17008-0.07267-0.33585-0.15399-0.50074-0.23771-0.0557-0.02828-0.1124-0.05465-0.16743-0.08423-0.04868-0.02617-0.09582-0.05552-0.14366-0.0832-0.34117-0.18929-0.66872-0.40358-0.98082-0.63769-0.42391-0.30226 0.03858 0.03228-0.3638-0.27182-0.06549-0.04949-0.13337-0.09586-0.19896-0.14521-0.06769-0.05093-0.13302-0.10503-0.20102-0.15555-0.07463-0.05544-0.15194-0.10722-0.22686-0.16226-0.07691-0.0565-0.15224-0.1151-0.22841-0.1726-0.34206-0.23538-0.17198-0.11452-0.51056-0.36277-0.09376-0.06564-0.19183-0.12512-0.28526-0.1912-0.08628-0.06107-0.16746-0.12912-0.25373-0.19017-0.09098-0.06441-0.18541-0.124-0.27802-0.18604-0.0909-0.06525-0.18144-0.1306-0.27234-0.19585-0.96086-0.62014 0.34654 0.22974-0.58601-0.39584-0.1037-0.06956-0.21158-0.13215-0.31574-0.20102-0.10507-0.06947-0.20607-0.14519-0.31161-0.21394-0.11386-0.07416-0.23222-0.14104-0.34623-0.21497-0.06121-0.03969-0.12169-0.08068-0.1819-0.12196v7.2833h47.141zm-7.9856 0.29507c-0.0013 2.65e-4 -0.0024 7.94e-4 -0.0036 0.0011 0.01423 0.01627 0.02864 0.03244 0.04238 0.04909 0.03406 0.04129 0.03367 0.04134 0.05426 0.06667 0.0029-0.0047 0.0059-0.0093 0.0088-0.01394-0.03758-0.03318-0.06952-0.06807-0.1018-0.10284zm-5.21 1.9766c-7.93e-4 0.0031-0.0019 0.0062-0.0026 0.0093 0.0096 0.0088 0.02788 0.02141 0.03566 0.02946 0.0053-0.0098 0.01072-0.01961 0.01601-0.02946-0.0026-0.0016-0.0052-0.0035-0.0078-0.0052-0.01365-0.0021-0.02756-0.0035-0.04134-0.0041zm-1.666 3.391c-0.0046 0.0487 0.05118 0.15352 0.09715 0.04134-0.03198-0.01466-0.06445-0.0286-0.09715-0.04134zm-32.28 0.37724v0.04289c0.11076 0.0496 0.22114 0.10028 0.33073 0.15244 0.0055 0.0021 0.01101 0.0045 0.01654 0.0067 0.14135 0.05032 0.28301 0.10002 0.42478 0.14935-0.06841-0.0386-0.13765-0.0755-0.20878-0.10904-0.13-0.06071-0.26044-0.1208-0.39326-0.17518-0.05662-0.02257-0.11319-0.04505-0.17002-0.06718zm21.755 0.03669c0.0072 0.0051 0.01426 0.01077 0.02273 0.01241 7.94e-4 1.37e-4 0.0094 7.93e-4 0.01085 0.0011-0.01125-0.0046-0.02127-0.0085-0.03359-0.01344zm-16.019 4.3279c0.04088 0.01744 0.08159 0.03532 0.12247 0.05271 0.01802 0.0075 0.16154 0.06693 0.22944 0.09509-7e-3 -0.0047-0.01416-0.0092-0.02119-0.01394-0.03276-0.0213-0.06544-0.04274-0.09818-0.06408-0.07773-0.0223-0.15551-0.04524-0.23254-0.06977zm17.528 0.09302c-0.01513 0.0068-0.02987 0.01442-0.04393 0.02326-0.01315 0.0083-0.03805 0.03782-0.02273 0.04082 0.02511 5e-3 0.07318-0.0061 0.07028-0.03153-0.0013-0.01124-0.0024-0.02143-0.0036-0.03255zm14.792 0.20774c0.17358 0.10663 0.42517 0.13616 0.58808 0.15968-0.11727-0.02734-0.22508-0.08489-0.34158-0.1142-0.08101-0.02037-0.1643-0.03047-0.2465-0.04548z" fill="#f00"/>
  </clipPath>
  <clipPath id="clipPath11782">
   <path d="m68.713 37.646v12.604h7.3226c0.03168-0.08136 0.07398-0.15877 0.12402-0.22996 5.29e-4 -7.94e-4 0.0024-0.0036 0.0031-0.0047-1.93e-4 -7.93e-4 -2.64e-4 -0.0019-5.29e-4 -0.0026-0.0013-0.0061-3e-3 -0.01199-0.0047-0.0181-5.3e-4 -0.0024-7.94e-4 -0.0039-0.0011-0.0047l-5.29e-4 5.3e-4c-0.0026-0.0095-4e-3 -0.01916-0.0052-0.02894-2.4e-5 -2.65e-4 3.1e-5 -0.0011 0-0.0016v-0.001058c-5.3e-5 -5.29e-4 -5.3e-4 -0.0011-5.3e-4 -0.0016-2.6e-5 -5.29e-4 0-7.94e-4 0-0.0011-6e-5 -0.0011 8.5e-5 -0.0016 0-0.0011-7.93e-4 -0.0079-0.0019-0.01881-0.0011-0.02532 0.0013-0.01183 0.0038-0.02336 0.0057-0.03514 0.0079-0.03069 0.02627-0.05676 0.04857-0.07855 0.0013-0.0013 0.0024-0.0026 0.0036-0.0036 4e-3 -0.0037 0.0076-7e-3 0.01138-0.01035 0.0038-0.03215 0.0096-0.06173 0.0186-0.08682-3e-3 -0.43767 0.06772-0.78928 0.18397-1.0537-0.08874-0.17505-0.11722-0.43201-0.02842-0.76016 0.0064-0.02381 0.01236-0.04787 0.02016-0.07132 0.01887-0.06127 0.04343-0.12107 0.06511-0.18138 0.02016-0.05744 0.04123-0.11399 0.06098-0.17157 0.0066-0.01913 0.01241-0.03882 0.01913-0.05788 0.0048-0.01363 0.01029-0.02684 0.0155-0.04031 0.01405-0.04378 0.02999-0.08709 0.04599-0.13022 0.0034-0.04358 0.01005-0.09401 0.02066-0.15296 7.93e-4 -0.0047 0.0019-0.0088 0.0026-0.01344 0.0024-0.01225 0.0048-0.02908 0.0093-0.04134 5.29e-4 -0.0011 2.06e-4 -0.0013 5.29e-4 -0.0021 0.0021-0.01238 0.0044-0.02561 0.0062-0.03721 0.0047-0.02936 0.01048-0.05849 0.01757-0.08733-0.0021 0.01064-0.0013 0.0074 0.0031-0.0155 0.0041-0.02064 0.0089-0.0407 0.01447-0.06098 0.0042-0.02035 0.0091-0.04057 0.01344-0.06046 7.94e-4 -0.0075 0.0016-0.0113 0.0021-0.01497v-5.29e-4c-5.29e-4 -0.0013-0.0013-0.0033-0.0016-0.0041-0.21385-0.56272-0.06099-0.92202 0.18294-1.0082 0.0011-0.04192 0.0021-0.08447 0.0047-0.12816 2.59e-4 -0.0049 7.94e-4 -0.01013 0.0011-0.01498 0.0016-0.04335 0.0038-0.08636 0.0052-0.12971 0.0011-0.04661 0.0044-0.09373 0.0088-0.14004 0.0011 0.01106 0.0016 0.0067 0.0026-0.02429 0.0011-0.03061 0.0019-0.06086 0.0031-0.09147 5.3e-4 -0.0094 0.0021-0.01902 0.0026-0.02842 0-0.04214 3e-3 -0.06903 0.0036-0.11679 2.01e-4 -0.06981 0.0036-0.13968 0.0088-0.20929 0.0046-0.09233 0.0081-0.18486 0.01551-0.27698 0.0024-0.08426 0.0062-0.16846 0.0093-0.2527 0.0034-0.11714 0.01363-0.23392 0.02635-0.35037 9e-3 -0.11803 0.02867-0.23526 0.03617-0.35347 0.0092-0.15469 0.0284-0.30822 0.04237-0.4625-2.2e-5 -0.01929-2.62e-4 -0.03865 0-0.05788 3.7e-5 -0.0013 0.0019-0.0016 0.0021-0.0036-4.5e-5 -5.3e-4 -0.0021-0.0011-0.0021-0.0016-7.94e-4 0.0064-0.0021 0.01275-0.0031 0.01913-2.46e-4 0.0013-0.0013 0.0021-0.0016 0.0036-2.38e-4 0.0013-1.58e-4 0.0028-5.29e-4 0.0041-5.29e-4 0.0072-7.93e-4 0.01106-5.29e-4 -0.01394-0.0013-0.03265 2.65e-4 -0.06526-0.0052-0.09767-0.07264-0.45691-0.03259-0.8245 0.07596-1.1033 0.01125-0.04642 0.02355-0.09269 0.03721-0.13849 0.02995-0.10513 0.0639-0.20985 0.10645-0.31057 0.03283-0.07986 0.06816-0.15852 0.108-0.23513 0.0108-0.025 0.02199-0.04967 0.03152-0.07493 5.3e-4 -0.01836 0.0019-0.03652 0.0016-0.05478 2.65e-4 -0.05492 0.0024-0.10957 0.0067-0.16433 0.0041-0.07021 0.01286-0.14045 0.02429-0.2098 0.01476-0.09907 0.02482-0.19888 0.04134-0.29766 0.01294-0.1202 0.03244-0.23957 0.05013-0.35915 0.01823-0.16744 0.03721-0.33472 0.05839-0.50178 4e-3 -0.04546 0.0087-0.09096 0.01291-0.13643 2.48e-4 -0.0067 5e-5 -0.01341 5.29e-4 -0.02016 7.94e-4 -0.06822-0.0024-0.13644-0.0026-0.20464-5.29e-4 -0.02551-0.0019-0.05099-0.0026-0.07648-4e-3 -0.03179-0.0024-0.06459-0.0083-0.09612-0.03542-0.18866-0.05045-0.36199-0.04961-0.52038-0.0091-0.05036-0.01474-0.10131-0.01601-0.15244-0.0021-0.04613 7.94e-4 -0.09175 0.0026-0.13798 0.0044-0.05325 0.0118-0.09608 0.02273-0.15141 0.0028-0.01381 0.01413-0.05452 0.01085-0.04082 0.0057-0.02487 0.01371-0.05119 0.02119-0.07597 0.0388-0.12741 0.07663-0.23114 0.11369-0.31471zm10.994 0c0.0068 0.04724 0.02196 0.09235 0.03359 0.13849 0.04841 0.14622 0.08791 0.29563 0.11937 0.44648 0.02207 0.09796 0.04234 0.19658 0.05995 0.29559 0.05801 0.13011 0.1105 0.27439 0.15555 0.43356 0.04985 0.17619 0.06565 0.35769 0.06614 0.54002 0.0021 0.03024 5e-3 0.06066 0.0062 0.09095 0.0013 0.03595-2.65e-4 0.07206 0.0016 0.108 0.0013 0.03376 0.0057 0.06701 0.0072 0.10077 0.0019 0.03913 0.0011 0.07869 0.0026 0.11782 0.0042 0.10031 0.0061 0.1164 0.0067 0.11265 1.19e-4 -0.01164-2.65e-4 -0.02326 0.0021 0.10956 0.0021 0.03493 0.0048 0.06992 0.0057 0.1049 0.0011 0.03811-0.0013 0.07608-5.29e-4 0.1142 7.94e-4 0.03501 0.0039 0.06988 0.0047 0.1049 5.29e-4 0.0374-0.0016 0.07474-0.0011 0.11214 0.0036 0.29419 5e-3 -0.07979 0.0026 0.20206 0.0064 0.11794 0.0056 0.09972 0.0047 0.08578-7.94e-4 -4e-3 -0.0013 0.01519 0.0021 0.12196 0.0011 0.0341 0.0048 0.06821 0.0057 0.10232 0.0011 0.03722-7.94e-4 0.0744 0 0.11162 6e-3 0.26545 5e-3 -0.06563 0.0041 0.21239 0.0045 0.19469 0.01125 0.38968 0.01085 0.58446 0.0027 0.16532 0.0081 0.33072 0.0057 0.49609 0.0027 0.17211 0.0021 0.34443-0.0098 0.51625-0.0011 0.02835-0.0011 0.05697-0.0031 0.08527-0.0021 0.03139-0.0071 0.06269-0.0098 0.09405-0.0099 0.11618-0.01857 0.23217-0.03411 0.34778-0.0173 0.18214-0.05943 0.36048-0.11369 0.53485-0.03985 0.12522-0.08574 0.24851-0.13332 0.37104-0.04089 0.11575-0.08034 0.23218-0.12454 0.34675-0.0214 0.06989-0.0496 0.13781-0.0708 0.20774-0.01754 0.06773-0.0085 0.03608-0.02635 0.09405-0.02551 0.11274-0.03572 0.22782-0.05168 0.3421-0.01394 0.13634-0.0131 0.27356-0.0186 0.41031-0.0038 0.11024 0.0013 0.22052-0.0011 0.33073 5.3e-4 0.08234 3e-5 0.16465 5.3e-4 0.24701 0.0035 0.06534 5.29e-4 0.13048 5.29e-4 0.19586 7.1e-5 0.06007-0.0011 0.11829-0.0036 0.17518 0.02487 0.06908 0.01566 0.04887 0.05478 0.23358 0.01008 0.04761 0.02278 0.09458 0.03049 0.14263 0.0099 0.06215 0.01352 0.12524 0.02222 0.18758 0.0518 0.37096 0.0038-0.05399 0.04651 0.35088 0.0084 0.05659 0.01691 0.11343 0.02532 0.17002 0.0065 0.05573 0.01122 0.11136 0.01913 0.16692 0.0075 0.05282 0.01926 0.10532 0.02687 0.15813 0.0082 0.05714 0.01259 0.11442 0.02066 0.17157 0.06617 0.46883-0.01307-0.15862 0.04548 0.3204 0.0081 0.04931 0.01738 0.09832 0.02429 0.14779 0.0072 0.05142 0.01117 0.10357 0.0181 0.15503 0.0062 0.04653 0.0154 0.09249 0.0217 0.13901 0.0061 0.04533 0.0093 0.0911 0.0155 0.13643 0.0057 0.04163 0.01445 0.08285 0.01963 0.12454 0.0059 0.04741 0.0093 0.09508 0.01394 0.14263 0.02829 0.2323 0.04659 0.46591 0.05736 0.6997 2.3e-4 4e-3 1.66e-4 0.0079 5.29e-4 0.01188h2.4877v-12.604zm-2.2831 3.4597c-0.0011-7.94e-4 -0.0044 0.01688-0.0078 0.03669 0.0031-0.0093 0.0059-0.01834 0.0083-0.02791 2.64e-4 -0.0058 5.5e-5 -0.0085-5.3e-4 -0.0088zm-0.71985 5.6224c5.29e-4 0.0052 0.0043 0.02387 0.0057 0.03359 2.64e-4 -0.0037 5.29e-4 -0.0079 0-0.01603-7.94e-4 0.01886-0.0029-0.01085-0.0047-0.01654-7.94e-4 -0.0028-0.0013-0.0026-0.0011-0.0011zm-0.05271 0.32039c-0.0021 0.0082-0.0043 0.01714-0.0016 0.01085 5.29e-4 -3e-3 7.94e-4 -0.0073 0.0016-0.01085z" fill="#f00"/>
  </clipPath>
 </defs>
 <circle cx="39.688" cy="39.688" r="37.916" fill="#d7451e" style="paint-order:stroke markers fill"/>
 <g fill="#fe622c">
  <path d="m5.238 15.501c0.6836 0.57571 1.4249 1.0891 2.0508 1.7271 0.59994 0.61158 1.6977 2.1707 2.1103 3.0638 0.52736 1.1417 0.062426 2.5097 1.0624 3.4194 0.69412 0.6315 5.0119 0.56225 6.0101 0.10014 0.80157-0.37105 1.3057-1.712 2.2191-1.6154 0.97886 0.10353 0.0097 3.7348 0.79245 4.2162 1.8312 1.1262 6.0586 0.07106 8.3657 0.79825 1.2458 0.39266 0.89885 4.3341 1.3759 4.8998 0.82917 0.98326 9.2136 0.99114 10.515 0.87228 0.90794-0.08292 1.5104-0.684 2.0566-1.3019 2.642-2.9887-1.1258 1.5573 1.2438-1.2032 1.1415-1.3298-0.35707-5.5607 1.6067-6.3599 3.6162-1.4718 8.5355-2.0822 11.512 1.1916 0.34564 0.38012 0.1902 1.1269 0.30043 1.5733 0.18574 0.75217 1.0059 2.721 0.51959 3.5109-0.1498 0.24333-1.8719-0.10688-2.1582 0-0.55094 0.20571-1.0149 0.60057-1.5544 0.83454-0.63574 0.27568-1.6308-0.17445-2.3048 0-1.2117 0.31364-7.8149 3.192-8.4963 4.0276-1.7773 2.1794-1.3069 5.817-1.7736 8.4963-0.10545 0.60546 0.05865 1.2101-0.11756 1.7779-0.34777 1.1206 0.18984 2.5859 0 3.746-0.03396 0.20754-0.32239 0.29158-0.40203 0.48621-0.08865 0.21663 0.03755 0.46022-0.07257 0.69956-1.4157 3.077-4.5785 1.5864-6.6415 3.2177-0.87782 0.69412-1.1988 4.5387-2.1277 5.7532-0.16696 0.21831-0.77296 0.97963-0.99709 1.0726-1.771 0.73431-9.9539 1.6275-11.724 0.2656-3.4847-2.6807-4.0956-6.6774-4.5805-10.823-0.10853-0.92771 0.32441-2.2152-0.08128-3.0871-0.7147-1.536-7.9304-0.58599-9.0188-0.89114-0.11921-0.033422-0.77709-0.98156-0.88098-1.1742-0.36755-0.68137-1.1914-1.7181-1.6967-2.2496-0.99823-1.0501-1.4274-7.8034-1.6052-9.3236-0.37346-3.1925 0-6.6565 0-9.8737 0-2.3881-0.67508-5.9088 0.48476-8.029 1.408-2.5738 2.6884 0.283 4.0072 0.18142 1.0653-0.08205 1.8638-1.0561 2.8505-1.4659 0.4246-0.17633 1.4411-0.38274 1.3774 0.07257-0.00616 0.04404-1.7952-0.0063-1.8708 0-0.96899 0.08116-1.52 0.81904-2.357 1.3933z" clip-path="url(#clipPath10346)" opacity=".95003" style="paint-order:stroke markers fill"/>
  <path d="m82.563 38.849c-2.4022-1.051-6.184-1.9242-8.5529-0.32075-4.4967 3.0436-4.606 3.663-5.1567 8.4093-0.13592 1.1713-0.48209 2.22 0.8984 2.7881 1.057 0.43495 7.2197 0.64972 8.3265 0.44847 0.60326-0.10968 1.3244-0.83974 1.7054-1.3106 1.0978-1.3569 0.82728-6.3287 0.82728-8.1393 0-0.28157-0.13859-2.1072 0.14514-2.1451 0.60362-0.08078 1.2046 0.17997 1.807 0.26996z" clip-path="url(#clipPath11782)" opacity=".95003" style="paint-order:stroke markers fill"/>
  <path d="m73.277 64.453c-0.84808-0.26754-1.6737-0.62108-2.5443-0.80261-1.4115-0.29432-3.1224 0.19377-4.5152-0.17852-1.1046-0.29524-3.0447-2.2936-4.3875-1.5936-1.1439 0.59632-2.7889 1.7391-3.5472 2.8505-0.18127 0.26568-0.13104 0.73896-0.4296 1.045-0.78242 0.80198-3.7616 0.67772-4.7402 0.54862-1.0691-0.14105-2.0563-1.2574-3.1364-1.5094-1.8707-0.43649-8.164-1.3687-9.8301-0.5283-2.7539 1.3891-3.0514 3.9725-4.8447 6.0058-0.65191 0.73916-1.4939 1.1613-2.3178 1.6676-1.1199 0.68819-2.3801 0.5497-3.5675 0.97532-0.65102 0.23335-1.5675 0.86038-1.8665 1.5036-0.77991 1.678 0.5357-0.50131 0 0.72714-0.17594 0.40348-0.55782 0.68522-0.78229 1.0639-0.40866 0.68933-0.28549 1.9743-0.34542 2.7562-0.08499 1.1087-0.59252 2.9155 0 4.0072 1.182 2.1779 3.1907 3.3732 5.3556 4.3831 2.6067 1.2161 4.7483 1.2082 7.5457 1.3411 0.92901 0.04414 1.8496 0.26812 2.7794 0.24528 6.8977-0.16942 16.675-6.8901 22.239-10.734 3.4668-2.3953 0.95833-0.89357 3.5733-2.9274 1.3258-1.0312 2.7524-1.7282 3.7416-3.1335 0.97765-1.3889 0.33834-3.9458 0.78955-5.5384 1.0409-3.674 1.3051-0.71528-0.36865-4.6371-0.10176-0.23843-0.02726-0.54503-0.17562-0.75762-0.03916-0.05612-0.35993 0.36443-0.73004 1.1147-0.13368 0.27098 1.461 1.5015 2.1045 2.1059z" clip-path="url(#clipPath11364)" opacity=".95003" style="paint-order:stroke markers fill"/>
  <path d="m48.117 9.013c-1.8922-1.5282-6.3586-2.7355-7.8505 0.25254-0.48802 0.97743-0.37003 2.4124-0.49927 3.5167-0.04218 0.3604-0.51598 1.8633-0.28447 2.2221 0.54315 0.84164 1.5844 0.64873 2.4325 0.7344 1.4114 0.14257 3.2783 0.58365 4.5704-0.29753 0.28954-0.19746 0.33347-1.189 0.43106-1.4557 0.64959-1.7757 1.1277-3.0299 1.2003-4.9724z" opacity=".95003" style="paint-order:stroke markers fill"/>
  <g fill="#fc602b">
   <path d="m8.1834 18.591c-4.491 5.851-6.7923 13.344-6.3599 20.707 0.057304 0.97583 0.16077 1.9489 0.30993 2.915" style="paint-order:stroke markers fill"/>
   <path d="m69.179 63.518c-4.4341 5.4875-10.431 9.6975-17.099 12.003-6.6676 2.3059-13.984 2.7003-20.861 1.1245-1.3049-0.29901-2.594-0.6672-3.86-1.1025" style="paint-order:stroke markers fill"/>
   <path d="m77.545 37.57c0.22324 3.5214-0.07478 7.0754-0.88134 10.51-0.17107 0.72857-0.36486 1.4518-0.58099 2.1683" style="paint-order:stroke markers fill"/>
  </g>
 </g>
 <circle cx="39.688" cy="39.688" r="66.526" display="none" fill="none" stroke="#000" stroke-linecap="square" stroke-linejoin="round" stroke-width="57.561" style="paint-order:stroke markers fill"/>
</svg>
