<?xml version="1.0" encoding="UTF-8"?>
<!-- Created with Inkscape (http://www.inkscape.org/) -->
<svg width="200" height="200" version="1.1" viewBox="0 0 79.375 79.375" xmlns="http://www.w3.org/2000/svg">
 <g>
  <circle cx="39.688" cy="39.688" r="37.916" fill="#978691" style="paint-order:stroke markers fill"/>
  <g fill="#717171">
   <path d="m18.348 15.158c10.498 8.4948 20.261 2.3818 9.7785 8.5297-10.483 6.1479-4.1128 6.0548-4.1128 6.0548s1.2878 17.502-4.5375 4.4046c-5.8253-13.097-10.331-7.494-1.1282-18.989z" style="paint-order:stroke markers fill"/>
   <path d="m61.728 22.115c-5.0073 12.252 3.7214 20.274-5.2535 11.561-8.975-8.713-7.0007-2.5418-7.0007-2.5418s-16.337 5.4643-5.5502-3.3519c10.786-8.8162 4.1006-11.849 17.804-5.667z" style="paint-order:stroke markers fill"/>
   <path d="m35.753 66.035c-6.3562-8.7319-21.608-6.54-5.5095-8.5877 16.098-2.0477 8.744-3.4842 8.744-3.4842s10.191-13.185 8.1303-2.1694c-2.0606 11.015 6.8327 7.9561-11.365 14.241z" style="paint-order:stroke markers fill"/>
  </g>
 </g>
</svg>
