<?xml version="1.0" encoding="UTF-8"?>
<!-- Created with Inkscape (http://www.inkscape.org/) -->
<svg width="200" height="200" version="1.1" viewBox="0 0 79.375 79.375" xmlns="http://www.w3.org/2000/svg">
 <circle cx="39.688" cy="39.688" r="37.916" fill="#4d72b8" style="paint-order:stroke markers fill"/>
 <path d="m10.91 18.537c0.26935 0 0.5417 0.04005 0.80806 0 0.34334-0.05162 0.63075-0.29331 0.95888-0.40678 0.93975-0.32498 1.9613-0.71113 2.9372-0.87851 2.6376-0.45238 5.3942-0.27798 8.0574-0.27798 2.1046 0 4.3082-0.18786 6.4011 0.04624 1.5406 0.17232 3.1005 0.52242 4.594 0.9253 4.0822 1.1011 7.8608 3.0886 12.049 3.8399 0.83784 0.15032 0.75531 0.06732 1.6568 0.09248 1.854 0.05174 3.649 0.0099 5.4973-0.13871 0.80126-0.06442 1.6035 0.0094 2.4022-0.04679 0.55589-0.03911 1.022-0.22757 1.5534-0.35944 0.4361-0.10822 0.93559-0.15435 1.3728-0.26201 0.78916-0.19433 1.5846-0.70172 2.3075-1.0525 0.88353-0.42868 1.7839-0.96594 2.711-1.2958 0.22075-0.07854 0.46129-0.09622 0.67815-0.18495 0.1636-0.06694 0.28625-0.2158 0.45192-0.27742 0.09183-0.03416 0.20028 0.02879 0.29394 0 0.1582-0.04863 0.28381-0.17757 0.44201-0.22623 0.32204-0.09907 0.73307 0.06437 1.0651 0 0.86598-0.16787 1.797-0.22458 2.6873-0.22458" fill="#4d72b8" opacity=".71369" style="paint-order:stroke markers fill"/>
 <g fill="#bfc1c7">
  <path d="m2.248 27.342c4.366 0-2.2694 0.02894 3.9197-0.13871 1.606-0.04351 3.2141 0.05687 4.8197 0 2.5151-0.08909 1.0865-0.1495 3.5394-0.3699 0.94336-0.08477 1.6264-0.02418 2.5607-0.04624 1.7906-0.04229 3.6326-0.1718 5.4219-0.04624 1.9226 0.13492 3.7932 0.61087 5.7235 0.69356 0.85278 0.03653 1.709-0.05602 2.5607 0 2.2497 0.14798 4.5968 0.68604 6.7777 1.2027 1.4723 0.34883 3.2121 0.73976 4.6689 1.2027 1.8891 0.60035 3.6552 1.4957 5.5727 2.0356 0.52115 0.14674 1.0575 0.23388 1.5814 0.37045 0.30496 0.0795 0.59233 0.2296 0.90383 0.27743 0.29761 0.04569 0.60219 0 0.90328 0 0.3765 0.06165 0.75338 0.12107 1.1295 0.18495 1.8622 0.31626 3.755 0.73026 5.6481 0.83283 2.7726 0.15022 5.5736-0.37061 8.2837-0.87906 0.89605-0.16811 1.5796-0.44886 2.4853-0.50916 0.35065-0.02334 2.7482 0.02122 3.1629 0 0.40377-0.02066 0.8015-0.11218 1.2049-0.13871 0.30063-0.01976 0.60554 0.04227 0.90384 0 0.35974-0.05097 0.69865-0.20216 1.0541-0.27743 2.8949-0.61299-0.07728 0.02336 1.7323-0.18495 0.5101-0.05872 0.99638-0.2611 1.506-0.32366 0.19942-0.02447 0.40315 0.02307 0.60274 0 0.45809-0.05294 0.89806-0.21738 1.3552-0.27798 0.44637-0.05917 0.93188 0.09423 1.3662-0.03853" opacity=".71369" style="paint-order:stroke markers fill"/>
  <path d="m76.886 14.189c-0.27321-0.37651-0.44987-0.84723-0.81962-1.1295-0.80909-0.6177-2.7436-0.48596-3.464-0.46238-3.9201 0.12837-4.7372 0.45286-9.1875 1.2027-7.7299 1.3025-15.448 2.6799-23.222 3.7051-2.4808 0.32717-4.9601 0.69041-7.4553 0.87906-3.79 0.28655-8.533 0.23119-12.426 0.23119h-6.1755c-1.3896 0-2.9042 0.13748-4.2924 0-3.1223-0.30921-6.107-1.4827-9.1121-2.2667-0.42595-0.11114-0.85822-0.19876-1.2803-0.32366-0.79387-0.2349-1.4044-0.6721-2.2491-0.6721" opacity=".71369" style="paint-order:stroke markers fill"/>
  <path d="m75.772 58.228c-11.511-1.3987-17.766-2.1155-31.72-4.337-3.155-0.50226-6.2494-1.3314-9.3829-1.9535-11.958-2.3743-4.3401-0.77757-14.776-2.6212-4.7513-0.83937-9.4665-1.7867-14.233-2.5447-3.5703-0.56782-7.1538-1.4576-10.769-1.7113-0.37558-0.02635-0.75343 0.01775-1.1295 0-0.47699-0.02252-4.9513-0.5521-4.9513 0.42604" opacity=".71369" style="paint-order:stroke markers fill"/>
  <path d="m-8.4802 46.059 76 20.769" opacity=".71369" style="paint-order:stroke markers fill"/>
  <path d="m85.88 71.542-78.026-3.404" opacity=".71369" style="paint-order:stroke markers fill"/>
  <path d="m-4.2693 57.153 70.942 11.581" opacity=".71369" style="paint-order:stroke markers fill"/>
  <path d="m-13.308 52.285 89.984 15.487" opacity=".71369" style="paint-order:stroke markers fill"/>
  <path d="m17.471 40.02 3.7937 22.557" opacity=".71369" style="paint-order:stroke markers fill"/>
  <path d="m71.958 68.685c-0.42293-0.10642-0.83512-0.27312-1.2688-0.31926-0.57418-0.06108-1.1548 0-1.7323 0-1.0543 0-2.1087-0.01887-3.1629 0-4.0475 0.07238-5.9761 0.31258-10.166 0.04624-1.4426-0.0917-9.0548-1.0661-10.543-1.249-5.0931-0.62575-10.195-1.1431-15.287-1.7581-0.29905-0.03612-3.686-0.5831-4.0667-0.60109-1.6654-0.07866-2.1617 0.16471-3.7656 0.41614-2.1702 0.3402-4.3281 0.72936-6.476 1.2027-0.93122 0.20523-1.8457 0.49159-2.7864 0.64788-0.92427 0.15356-1.8543 0.27452-2.7864 0.3699-1.9439 0.19892-0.81152-0.14631-2.8618 0.18495-0.45867 0.07411-0.89742 0.24752-1.3558 0.32366-1.4029 0.23308-2.9303 0.1844-4.3595 0.1844" opacity=".71369" style="paint-order:stroke markers fill"/>
 </g>
 <g fill="#283e80">
  <path d="m-25.164 38.568c2.6596 0.54091 5.3174 0.42538 8.0167 0.45026 8.1396 0.07503 16.38 0.42726 24.4 1.9431 11.124 2.1026-5.1322-0.91458 5.7984 1.2952 3.1115 0.62904 6.2769 0.96941 9.4132 1.4345 3.4735 0.51506 6.9354 1.2814 10.468 0.97099 1.711-0.15035 2.0145-0.27027 3.6902-0.55485 2.2444-0.38116 4.5273-0.73881 6.7022-1.4339 3.8733-1.2379-1.4863 0.43444 1.9579-0.74035 0.90396-0.30834 1.8276-0.55428 2.711-0.9253 0.21026-0.08831 0.38556-0.2541 0.60274-0.32366 0.56213-0.18005 1.1739-0.17699 1.7317-0.3699 0.86701-0.29983 0.35334-0.32612 1.3557-0.46292 2.4483-0.33413 5.0261-0.18495 7.4976-0.18495" opacity=".71369" style="paint-order:stroke markers fill"/>
  <path d="m80.463 24.176-66.517-1.0805" opacity=".71369" style="paint-order:stroke markers fill"/>
  <path d="m73.737 21.444c-2.2012 0.88312-5.3469 1.6046-7.7288 1.6046-1.9207 0-3.7578-0.4362-5.6481-0.69411-2.2721-0.30999-3.9631-0.48094-6.2503-0.55485-3.7986-0.12276-1.4958 0.05208-5.3465 0.23119-2.7987 0.13017-5.6321 0.04624-8.4345 0.04624-1.4739 0-2.9012-0.06152-4.3678-0.13871-1.5258-0.0803-3.0662 0.03474-4.594 0-1.3216-0.03005-2.6699-0.12473-3.9913-0.04624-2.2032 0.13088-4.4147 0.3121-6.6268 0.3699-2.1632 0.05652-1.0533-0.10418-3.3137 0.13871-1.132 0.12164-2.1946 0.49529-3.3131 0.64788-1.188 0.16207-2.4324-0.05682-3.6175 0.08972-2.0067 0.24812-4.1598 0.17834-6.187 0.17834" opacity=".71369" style="paint-order:stroke markers fill"/>
  <path d="m52.681 77.033c-0.68859 0.03515-1.3681-0.27772-2.0311-0.33082-0.30188-0.02418-0.60165 0.07242-0.90384 0.09247-7.5812 0.50322 5.3567-0.47899-4.4427 0.37045-4.0645 0.35232-8.1254 0.32366-12.2 0.32366-2.4374 0-4.8676-0.13871-7.3044-0.13871-1.4703 0-3.2281 0.19665-4.6694 0-0.73769-0.18119-1.2266-0.3309-1.9579-0.41669-0.9614-0.11277-0.49986 0.03561-1.3552-0.13871-0.40189-0.08191-0.73219-0.33399-1.113-0.45632-0.20829-0.06691-0.54022 0.1001-0.70677-0.1277-0.68526-0.93726 1.8347-1.7187 2.1258-1.8269 2.6498-0.9852 5.319-1.4599 8.1328-1.5264 1.0356-0.02445 2.1291-0.13957 3.1629-0.04624 1.467 0.13244 1.367 0.27141 2.7864 0.78659 1.4325 0.51995 2.8544 1.0695 4.2929 1.5726 2.9404 1.0284 2.0086 0.57065 4.97 1.4802 0.63439 0.19483 1.2388 0.48676 1.8825 0.64787 0.204 0.05106 4.2792 0.71156 4.4432 0.74035 1.1328 0.19888 2.2453 0.52695 3.3891 0.64732 2.3466 0.24696 0.24663-0.2297 1.9579 0.13871 1.2987 0.27958 2.6076 0.65995 3.9159 0.87906 1.2683 0.21241 1.3314 0.1097 2.5601 0.13871 0.96321 0.02275 1.7657 0.16793 2.6889-0.11614" opacity=".71369" style="paint-order:stroke markers fill"/>
  <path d="m74.027 77.695-42.812 0.28898" opacity=".71369" style="paint-order:stroke markers fill"/>
  <path d="m72.067 75.88-20.274-3.1612" opacity=".71369" style="paint-order:stroke markers fill"/>
  <path d="m72.382 77.14-28.859-0.93191" opacity=".71369" style="paint-order:stroke markers fill"/>
  <path d="m63.572 71.657 7.5554 3.0902" opacity=".71369" style="paint-order:stroke markers fill"/>
  <path d="m75.064 76.16-7.8956-2.5122" opacity=".71369" style="paint-order:stroke markers fill"/>
  <path d="m65.953 73.758c-0.65634-1.3056-1.687-2.1528-2.9328-2.8667-0.57563-0.32989-1.2245-0.79062-1.8825-0.9253-2.2598-0.46251-4.4363 0.33435-6.4055 1.3866-0.74472 0.39793-0.96013 0.62394-1.6568 1.1103-1.5093 1.0535-3.1012 2.1847-4.7443 3.0071-1.0442 0.52268-2.1078 0.9848-3.1629 1.4802-1.2211 0.57327-2.3913 1.2202-3.6902 1.6194-1.1583 0.35605-2.3757 0.26258-3.5394 0.55485-0.53711 0.1349-1.0376 0.40457-1.5814 0.50916-1.0431 0.20062-2.4697 0.18385-3.5768 0.18385" opacity=".71369" style="paint-order:stroke markers fill"/>
 </g>
 <circle cx="39.688" cy="39.688" r="66.526" display="none" fill="none" stroke="#000" stroke-linecap="square" stroke-linejoin="round" stroke-width="57.561" style="paint-order:stroke markers fill"/>
</svg>
