<?xml version="1.0" encoding="UTF-8"?>
<!-- Created with Inkscape (http://www.inkscape.org/) -->
<svg width="200" height="200" version="1.1" viewBox="0 0 79.375 79.375" xmlns="http://www.w3.org/2000/svg">
 <ellipse cx="39.717" cy="39.442" rx="32.832" ry="32.629" fill="none" stroke="#ffb650" stroke-linecap="square" stroke-linejoin="round" stroke-width="9.8414" style="paint-order:stroke markers fill"/>
 <ellipse cx="39.688" cy="39.688" rx="22.789" ry="22.487" fill="#ffb650" style="paint-order:stroke markers fill"/>
 <g fill="none" stroke-linecap="square" stroke-linejoin="round">
  <ellipse cx="39.717" cy="39.442" rx="32.832" ry="32.629" stroke="#a8853d" stroke-width="7.8041" style="paint-order:stroke markers fill"/>
  <ellipse cx="39.717" cy="39.442" rx="32.832" ry="32.629" stroke="#ffb650" stroke-width="5.0789" style="paint-order:stroke markers fill"/>
  <ellipse cx="39.717" cy="39.442" rx="32.832" ry="32.629" stroke="#92763e" stroke-width=".42227" style="paint-order:stroke markers fill"/>
 </g>
 <g fill="#857135">
  <path d="m22.199 26.516c0.29745-0.30862 0.53425-0.69876 0.89235-0.92586 0.73364-0.46524 1.9803-0.30256 2.7944-0.32271 1.4813-0.03666 2.9594-0.0461 4.4419-0.0461h5.5882c0.7511 0 2.2639-0.19906 2.9955 0.04061 1.8488 0.60572 3.4962 1.6722 5.3018 2.3983 0.96949 0.38989 1.2482 0.02339 2.4016 0.54388 1.167 0.52666 2.4284 1.4297 3.7255 1.4297 0.55929 0 1.1601 0.17519 1.7109 0.09001 1.0269-0.15881 0.23847-0.11382 1.3443-0.31941 0.66042-0.12278 1.3674 0.03108 2.0272-0.12842 0.74139-0.17924 2.5321-1.7619 3.1447-1.6102 0.20777 0.05144-0.28391 0.15093-0.53573 0.15093-0.43615 0-0.85849 0.07383-1.282 0.16465" opacity=".71369" style="paint-order:stroke markers fill"/>
  <path d="m19.478 33.27c1.5446-0.85479 2.9732-0.37277 4.5936-0.19867 0.89635 0.0963 1.8076-0.01307 2.7029 0.0922 2.8592 0.33617 5.5596 1.2089 8.3344 1.8912 0.40586 0.19072 0.85601 0.09502 1.2766 0.1844 0.50414 0.10715 1.001 0.24587 1.5016 0.36881 0.57572 0.0922 1.1549 0.1651 1.7271 0.27661 1.0173 0.1982 1.9665 0.53424 3.0031 0.59986 0.8621 0.05457 1.8447 0.06076 2.6503-0.2305 0.63725-0.23041 1.1745-0.76572 1.7985-0.96647 0.43611-0.1403 0.99743-0.22532 1.461-0.27276 1.2073-0.12356 4.5189-0.24832 5.9218-0.0922 0.40526 0.0451 0.80091 0.15367 1.2014 0.2305 0.42552 0.0461 0.85031 0.09953 1.2766 0.1383 1.1187 0.10176 2.264 0.0461 3.389 0.0461" opacity=".71369" style="paint-order:stroke markers fill"/>
  <path d="m58.641 47.495c-0.90325 0.15196-1.8017-0.14296-2.7013-0.09275-0.35814 0.01998-0.69466 0.18994-1.051 0.23105-0.89556 0.10333-1.8015 0.07871-2.7029 0.0922-2.7226 0.04077-5.4641-0.12146-8.184 0-0.6779 0.03027-1.3495 0.153-2.0273 0.1844-2.3225 0.10762-4.6586-0.06205-6.9832 0-1.2705 0.03391-2.5577 0.10856-3.8291 0.0461-0.64847-0.03185-0.86099-0.13873-1.5016-0.2305-0.71368-0.10224-1.4671 0.02727-2.1832-0.09001-0.9031-0.1479-1.7819-0.45711-2.687-0.59602-1.8992-0.29147-3.8526-0.2585-5.7741-0.2585" opacity=".71369" style="paint-order:stroke markers fill"/>
  <path d="m29.479 43.375c-0.62693-0.0081-1.2502 0.06897-1.8759 0.08726-1.3796 0.04034-2.7659 0-4.1463 0-0.72682 0-1.5559 0.11889-2.2644-0.03952-0.41533-0.09285-0.13248-0.74365-0.5576-0.74365" opacity=".71369" style="paint-order:stroke markers fill"/>
  <path d="m48.703 56.397c-2.4239 0.35044-4.8728 0.3743-7.3191 0.3743-0.63175 0-1.3284 0.09286-1.9522 0-1.423-0.21185-2.6365-0.6023-3.9795-1.0148-0.56801-0.17445-1.2417-0.1269-1.8303-0.18715-0.76015-0.0778-1.1841-0.88031-1.9533-0.88031" opacity=".71369" style="paint-order:stroke markers fill"/>
 </g>
 <circle cx="39.688" cy="39.688" r="66.526" display="none" fill="none" stroke="#000" stroke-linecap="square" stroke-linejoin="round" stroke-width="57.561" style="paint-order:stroke markers fill"/>
</svg>
