<?xml version="1.0" encoding="UTF-8"?>
<!-- Created with Inkscape (http://www.inkscape.org/) -->
<svg width="200" height="200" version="1.1" viewBox="0 0 79.375 79.375" xmlns="http://www.w3.org/2000/svg">
 <defs>
  <clipPath id="clipPath13588">
   <path d="m18.19 9.957c0.06768 0.13534 0.10931 0.27663 0.12557 0.4191-0.02491-0.0022-0.04433-0.0046 0.04806 0.0052 0.01594 0.0016 0.03212 0.0025 0.04806 0.0041 0.01284 0.0013 0.0254 0.0033 0.03824 0.0046 0.10469 0.0106-0.01974-0.0042 0.06563 0.0062 0.05593 0.0037 0.11187 7e-3 0.16795 0.0067 0.08802-2.91e-4 0.17608-7.14e-4 0.26407-0.0031 0.07033-0.0029 0.14069-0.0047 0.21084-0.01085 0.01713-0.0016 0.03459-0.0039 0.05168-0.0057 0.01584-0.0017 0.03169-0.0031 0.04754-0.0047l0.04651-0.0072c0.01324-0.0015 0.02658-0.0029 0.03979-0.0047 0.01339-0.0018 0.02639-0.0045 0.03979-0.0062 0.01052-0.0014 0.02147-0.0017 0.03204-0.0026 0.04687-0.0039 0.02754-4e-3 0.06511-0.0031 0.01226 7.94e-4 0.02447 0.0013 0.03669 0.0026 0.02369 0.0023 0.04636 0.0093 0.06976 0.01344v5.29e-4c0.08083 0.01402 0.14451 0.03824 0.19224 0.06821 0.0054-0.0031 0.01055-0.0068 0.01602-0.0098 0.02517-0.01452 0.05043-0.02848 0.07596-0.04237 0.01779-0.0099 0.0357-0.02004 0.05374-0.02946 0.01305-0.0071 0.02627-0.01357 0.03927-0.02067 0.01857-0.01073 0.0272-0.01877 0.03359-0.01964 0.01284-0.0017 0.01741 0.02479 0.07803 0.11266 0.0015-0.0012 0.0032-0.0023 0.0047-0.0036 0.0049-0.0039 0.0098-0.0079 0.01499-0.01137 3e-3 -0.0052 0.0059-0.01059 0.0093-0.0155 0.0074-0.0099 0.01527-0.01952 0.02377-0.02842 0.0099-0.01085 0.02059-0.02002 0.03256-0.02842 0.01018-0.0071 0.02099-0.01352 0.03204-0.01912 0.0097-0.0057 0.01984-0.01077 0.03049-0.01447 0.0082-3e-3 0.01692-0.0057 0.02532-0.0083 0.02417-0.0074 0.04614-0.01133 0.06615-0.0124 0.0025-1.37e-4 0.0053-4.76e-4 0.0078-5.29e-4 0.15588-0.0029 0.17119 0.17256-0.03101 0.18758-3e-3 2e-4 -0.0054 0.0011-0.0083 0.0021-1e-3 6.61e-4 1.31e-4 -2.58e-4 -1e-3 5.29e-4 -5e-3 0.0028 0.0033-0.0014-0.0067 0.0036-0.0034 0.0018-7e-3 0.0036-0.01033 0.0057-0.0013 8.2e-4 -0.0017 8.99e-4 -0.0021 1e-3l-5.3e-4 5.29e-4c-0.0012 0.0011-0.0024 2e-3 -0.0036 0.0031-3.44e-4 2.91e-4 -8.47e-4 8.2e-4 -1e-3 1e-3 -0.0024 0.0027-0.0043 0.0055-0.0067 0.0083 0.0037-0.0053-3e-3 0.0064-0.0031 0.0067-0.0037 0.0074-0.0083 0.01375-0.01344 0.02015-0.0081 0.01023-0.01824 0.01877-0.02842 0.02687-0.0052 0.0035-0.0099 0.0079-0.0155 0.01085-0.0074 0.0059-0.01472 0.01229-0.02222 0.01809-0.0067 0.0054-0.01387 0.01072-0.02067 0.01602-0.0098 0.0075-0.02041 0.0133-0.03152 0.0186-6e-3 3e-3 -0.01219 0.0066-0.01809 0.0098-0.0055 0.0032-0.01062 0.0059-0.01602 0.0093-0.0068 0.0044-0.01367 0.0089-0.02067 0.01292-0.0057 0.0035-0.01125 0.0074-0.01705 0.01085-0.0049 3e-3 -0.0094 0.0068-0.01395 0.01033-0.0093 0.0077-0.01862 0.01512-0.02842 0.02222-0.01504 0.01135-0.03102 0.02162-0.04703 0.03152-0.01679 0.01059-0.03402 0.02045-0.05116 0.03049-0.01505 0.0088-0.02993 0.01807-0.04496 0.02687-0.0054 0.0032-0.01108 0.0063-0.01654 0.0093l-5.29e-4 5.29e-4c-0.03251 0.03184-0.08086 0.05862-0.14469 0.07545-0.0063 0.0037-0.01302 0.0068-0.01912 0.01085-0.01148 0.0078-0.02224 0.01662-0.03307 0.02532-0.01292 0.01083-0.02526 0.02181-0.03824 0.03256-0.01354 0.01146-0.02769 0.02241-0.04186 0.03307-0.0083 0.0061-0.01629 0.01262-0.02429 0.01912-0.0073 0.0059-0.01419 0.01282-0.02119 0.01912-8e-3 0.0076-0.01632 0.01479-0.02532 0.02119-0.0088 0.0062-0.01839 0.01102-0.02791 0.01602-0.01272 0.0067-0.02338 0.0094-0.03514 0.01395-0.032 0.03156-0.06497 0.03705-0.08837 0.01912-0.03788-0.0018-0.06297-0.01842-0.07235-0.04237-0.02825-0.01405-0.05719-0.02815-0.08423-0.04444-0.0016 1e-3 -0.0029 0.0021-0.0047 0.0031-0.01793 0.0121-0.03501 0.02478-0.05271 0.03721-0.03679 0.0259-0.07206 0.04111-0.12661-0.0057-0.02666-0.02285-0.03229-0.04378-0.02894-0.06356-0.05346 0.0049-0.10712 0.0078-0.16071 0.01033-0.01219 5.02e-4 -0.02397 0.0018-0.03617 0.0021-0.01465 2.91e-4 -0.02927-3.44e-4 -0.04393-5.29e-4 -0.0831-8.73e-4 -0.16631-6e-3 -0.24908-0.01344-0.06257-0.0032-0.12499-0.01122-0.18707-0.01912-0.05224-0.0067-0.05206-7e-3 -0.05064-0.0067-0.26849 0.71788-1.2347 1.3036-2.8975 1.1012-0.1352-0.0164-0.27289-0.0072-0.40928-0.0083-0.21096 0.0025-0.42207 3e-3 -0.63304 0.0067-0.16202 0.0066-0.32368 8e-3 -0.48576 0.0041-0.16016-0.0021-0.32045 2e-3 -0.48059 0.0036-0.15049 6.08e-4 -0.30112-8.2e-4 -0.45165-0.0036-0.19644-0.0034-0.39315-0.0016-0.58963-0.0052-0.22907-0.0035-0.45776 0.0077-0.68678 0.0031-0.32723 6.87e-4 -0.65477 0.0023-0.98185-0.0088-0.44438-0.0033-0.88901 9.8e-5 -1.3333-0.0124-0.53576-0.0053-1.0714 0.0015-1.6071-0.0057-0.54189 0.0011-1.0839 0.01003-1.6257-0.0016-0.55973-0.0026-1.1198 0.0081-1.6795 0.0016-0.54514 0.0041-1.0905 0.0082-1.6356-0.0036-0.64663-0.0041-1.2934-0.0017-1.9399-0.01602-0.71086-0.0021-1.4213 0.0067-2.1322 0.0031-0.6306 0.0044-1.2617-5e-3 -1.8924-0.0124-0.38142-0.0012-0.76283 0.0077-1.1441 0.01602l-0.11369 0.0036c-2.3695 0.08038-3.2985-1.121-2.8045-2.0438h-15.339v4.5578h88.6c-0.24798-0.06245-0.53859-0.26407-0.817-0.64957-0.01926-0.02668-0.03869-0.05309-0.05891-0.07906-0.07381-0.09092-0.15155-0.17906-0.23099-0.2651-0.03921-0.04071-0.08032-0.07953-0.11989-0.11989-0.26976 0.1595-0.74141 0.12255-1.2769-0.30179-0.06866-0.05441-0.13465-0.11197-0.19792-0.1726-0.08015-0.07222-0.15824-0.14691-0.23513-0.22272-0.02132 0.03894-0.05154 0.07352-0.08888 0.1018 0.09567 0.14567-0.04823 0.25138-0.20826 0.0801-0.0011-0.0011-0.0021-2e-3 -0.0031-0.0031-0.11251 0.0086-0.24338-0.023-0.37827-0.11369-0.03461 0.03704-0.10714 0.04321-0.19947-0.02584-1.35e-4 0.03837-0.03504 0.04534-0.05736 0.0021-3e-3 -6.61e-4 -0.0021 0.0026-0.0062 1e-3 -0.0033-0.0013-0.0062-0.0014-0.0093-0.0031-0.0055-0.0031-0.01-0.0065-0.01447-0.01085-0.0046-0.0056-0.0089-0.01109-0.01085-0.01809-0.0011-0.0036-0.0026-0.0072-0.0031-0.01085-2.59e-4 -2e-3 -0.0021-0.0043-0.0031-0.0062-2.62e-4 -3.97e-4 -0.0013-1e-3 -0.0016-1e-3 -3e-3 -0.0032-0.0062-0.0063-0.0093-0.0093-0.0027-0.0024-0.0058-0.0042-0.0088-0.0062-0.0035-0.0025-7e-3 -0.0036-0.01035-0.0062-0.0028-0.0022-0.0062-0.0038-0.0088-0.0062-0.0024-0.0023-0.0043-0.0043-0.0067-0.0067-3e-3 -0.0029-6e-3 -0.0062-0.0088-0.0093-0.0024-0.0026-0.0053-0.0047-0.0083-0.0067-0.0041-0.0029-0.0087-0.0055-0.01241-0.0088-0.0032-0.0027-0.0061-0.0055-0.0093-0.0083-0.0024-2e-3 -0.0048-0.0044-0.0072-0.0062-0.0045-0.0035-0.0086-0.0072-0.01291-0.01085-0.0055-0.0046-0.01095-0.0095-0.01654-0.01395-0.0064-0.0051-0.01363-0.0099-0.01963-0.0155-0.0024-0.0022-0.0037-0.0043-0.0062-0.0062-0.0037-0.0029-0.0075-0.0056-0.01085-0.0088-0.0038-0.0035-0.0075-0.0084-0.01085-0.0124-0.0053-0.0058-0.01074-0.01124-0.01654-0.01654-0.0072-0.0067-0.01471-0.01274-0.0217-0.01964-0.0063-0.0062-0.01249-0.0127-0.01913-0.0186-6e-3 -0.0052-0.01175-0.0108-0.0181-0.0155-0.0046-0.0033-0.0097-0.0064-0.01447-0.0093-0.0047-3e-3 -0.0089-0.0049-0.01291-0.0088-0.0028-0.0027-0.0057-0.0064-0.0083-0.0093-0.0021-0.0023-0.0044-0.0041-0.0067-0.0062-0.0044-0.0041-0.0086-0.0083-0.01241-0.01292-0.0042-0.0049-0.0083-0.0096-0.01241-0.01447-0.0064-0.0081-0.0122-0.01679-0.0181-0.02532-0.0048-0.0069-0.0099-0.01384-0.01601-0.01964-0.0039-4e-3 -0.0079-0.0086-0.01241-0.01188-0.0032-0.0024-0.0063-0.0037-0.0098-0.0057-0.0046-0.0027-0.0098-0.0039-0.01447-0.0062-0.0069-0.0034-0.01355-0.0074-0.02016-0.01137-0.0052-3e-3 -0.01124-0.0063-0.01654-0.0093-0.0098-0.0049-0.01865-0.01067-0.02635-0.0186-0.0066-0.0064-0.01344-0.01292-0.02016-0.01912-0.0066-0.0059-0.01283-0.01197-0.01963-0.01757-0.0064-0.0051-0.01344-0.0099-0.02016-0.01447-0.0061-0.0043-0.01183-0.0088-0.0181-0.01292-0.0063-0.0042-0.01273-0.0083-0.01913-0.0124-4e-3 -0.0026-8e-3 -0.0062-0.01188-0.0088-0.0046-0.0029-0.0088-0.0066-0.01344-0.0093-0.0047-0.0026-0.0094-0.0059-0.01394-0.0088-0.0063-0.0038-0.01283-0.0074-0.01913-0.01137-0.0076-0.0052-0.01479-0.01094-0.0217-0.01705-0.0063-0.0053-0.01273-0.0104-0.01913-0.0155-0.0049-0.0039-0.0097-8e-3 -0.01497-0.01137-4e-3 -0.0028-0.0083-0.0055-0.01188-0.0088-0.0039-0.0033-0.0075-6e-3 -0.01138-0.0093-0.0047-0.0041-0.0093-0.0088-0.01344-0.01344-0.0049-0.0051-0.0097-0.01019-0.01497-0.01499-0.0057-0.0055-0.01164-0.01137-0.01654-0.01757-0.0047-0.0056-0.0089-0.01124-0.01394-0.01654-0.0051-0.0055-0.01042-0.01112-0.01603-0.01602-0.0048-0.0042-0.0097-0.0083-0.01497-0.01188-4e-3 -0.0025-0.0037-0.0021-0.01035-0.0057-3e-3 -0.0018-0.0059-0.0041-0.0088-0.0062-0.0039-0.0028-0.0077-0.0063-0.01138-0.0093-4e-3 -0.0033-0.0084-7e-3 -0.01188-0.01085-0.0048-5e-3 -0.0095-0.0098-0.01447-0.01447-0.0051-0.0047-0.0099-0.0093-0.0155-0.01343-0.0041-0.0032-0.0082-0.0063-0.01241-0.0093-0.0037-0.0026-0.0076-0.0038-0.01138-0.0062-4e-3 -0.0026-0.0079-0.0063-0.01188-0.0088-0.0033-0.0022-7e-3 -0.0041-0.01035-0.0062-5e-3 -0.0031-0.0097-0.0065-0.01447-0.0098-0.0048-0.0032-0.0096-0.0065-0.01394-0.01034-0.0033-0.0028-0.0065-0.0061-0.0098-0.0088-0.0037-3e-3 -7e-3 -0.0062-0.01085-0.0088-0.0048-0.0034-0.0089-0.0071-0.01344-0.01085-0.0048-0.0038-0.0098-0.0075-0.01447-0.01137-0.0047-0.0036-0.0092-0.0075-0.01394-0.01085-4e-3 -0.0028-0.0079-0.0061-0.01188-0.0088-0.0042-0.0029-0.0081-0.0061-0.01241-0.0088-0.0051-0.0032-0.01021-0.0065-0.0155-0.0093-0.0054-0.0028-0.01103-0.0054-0.01654-0.0078-0.0063-0.0029-0.0123-0.0058-0.0186-0.0088-0.0061-0.0029-0.01228-0.0058-0.0181-0.0093-0.0052-0.0031-0.01021-0.0064-0.0155-0.0093-0.0066-0.0037-0.01355-0.0073-0.01963-0.01189-0.0045-0.0033-0.0088-0.0066-0.01291-0.01033-0.0063-0.0057-0.0123-0.01177-0.0186-0.01757-7e-3 -0.0067-0.01344-0.01419-0.02016-0.02119-0.0067-0.0067-0.01389-0.01304-0.02066-0.01964-0.0049-0.0047-0.0095-0.0099-0.01498-0.01395-0.0024-0.0019-0.0053-0.0037-0.0083-0.0047l-5.29e-4 5.29e-4c-0.0021-7.68e-4 -0.0042-0.0017-0.0062-0.0026-0.0127 1e-3 -0.02855-0.0031-0.04806-0.02067-0.0043-0.0039-0.0085-0.0074-0.01291-0.01137-0.0042-0.0039-8e-3 -0.0082-0.01241-0.01188-0.0035-3e-3 -0.0071-0.0066-0.01085-0.0093-0.0049-0.0037-0.0098-0.0077-0.01394-0.0124-0.0026-0.0028-0.0052-0.0059-0.0078-0.0088 0.0011 8.99e-4 -0.0033-0.0032-0.0036-0.0031-0.0034-0.0023-0.0069-0.0039-0.01035-0.0062-0.0021-0.0014-0.0044-0.0027-0.0067-0.0036-0.0055-0.0023-0.01082-4e-3 -0.01601-0.0067-0.0037-0.0017-0.0071-0.0038-0.01085-0.0052-3e-3 -0.0014-0.0057-0.0028-0.0088-0.0041-0.0056-0.0026-0.01093-0.0053-0.01603-0.0088-0.0053-0.0039-0.01016-0.0083-0.01447-0.01343-0.0037-4e-3 -0.0072-0.0078-0.01138-0.01137-0.0028-0.0024-0.0059-0.0049-0.0088-0.0072l-0.0093-0.0078c-3e-3 -0.0024-0.0062-5e-3 -0.0093-0.0072-0.0028-0.0021-0.0054-0.0043-0.0083-0.0062-0.0024-0.0015-0.0045-0.0034-0.0067-0.0052-0.0026-0.0017-0.0052-0.0038-0.0078-0.0057-3e-3 -0.0023-0.0064-0.0038-0.0093-0.0062-0.0038-0.0031-0.0082-0.0062-0.01188-0.0093-0.0021-0.0017-0.0035-0.0032-0.0057-0.0046-0.0043-3e-3 -9e-3 -0.0058-0.01291-0.0093-3e-3 -0.0027-0.0065-0.0064-0.0093-0.0093-0.0026-0.0026-0.0063-0.0046-0.0093-0.0067-0.0038-0.0029-0.0084-0.0042-0.01241-0.0067-0.0034-2e-3 -0.0059-0.0042-0.0093-0.0062-0.0033-0.0019-6e-3 -0.0037-0.0093-0.0057-0.0037-0.0023-0.0072-0.0048-0.01085-0.0072-0.0032-2e-3 -6e-3 -0.0039-0.0093-0.0057-0.0032-0.0018-0.0061-4e-3 -0.0093-0.0057-0.0024-0.0012-0.0038-0.0026-0.0062-0.0041-0.0024-0.0014-0.0044-0.0027-0.0067-0.0041-0.0032-2e-3 -0.0062-4e-3 -0.0093-0.0062-0.0042-3e-3 -0.0082-0.0057-0.01188-0.0093-0.0028-0.0027-0.0058-0.0058-0.0088-0.0083-0.0052-0.0046-0.01-0.0093-0.01447-0.01447-0.0042-0.0047-0.0083-0.0097-0.01241-0.01447-0.0041-0.0046-0.0084-0.0087-0.01291-0.01292-0.0035-0.0033-0.0075-6e-3 -0.01138-0.0088-0.0034-0.0023-0.0066-0.0046-0.0098-0.0072-0.0024-0.0018-0.0057-0.0041-0.0083-0.0057-0.0032-0.0022-6e-3 -4e-3 -0.0093-0.0062-0.0036-0.0023-0.0066-0.0048-0.0098-0.0072-0.0032-0.0028-0.0061-6e-3 -0.0093-0.0088-0.0031-0.0028-0.0063-0.0063-0.0093-0.0093-0.0027-0.0026-0.0062-0.0062-0.0088-0.0088-0.0013-0.0011-0.0011-0.0017-0.0031-0.0031-0.0026-2e-3 -0.0067-4e-3 -0.0093-0.0062-0.0037-0.0031-0.0077-6e-3 -0.01085-0.0098-0.0026-0.0033-0.0033-0.0059-0.0057-0.0093-0.0028-0.0037-6e-3 -0.0072-0.0093-0.01033-0.0038-0.0036-0.0079-0.0065-0.01188-0.0098-0.0029-0.0024-0.0062-4e-3 -0.0093-0.0062-0.0013-9e-4 -0.0016-2e-3 -0.0031-0.0026-0.0038-0.0019-0.0081-0.0044-0.01188-0.0062-0.0049-0.0028-0.0098-0.0057-0.01447-0.0088-0.0057-0.0039-0.01125-0.0079-0.01654-0.0124-0.0028-0.0023-0.0063-0.0046-0.0093-0.0067-3e-3 -0.0022-0.0061-0.0043-0.0093-0.0062-0.0039-0.0024-0.0072-0.0043-0.01138-0.0062-0.0042-2e-3 -0.0081-0.0041-0.01188-0.0067-0.0026-0.0018-0.0066-0.0039-0.0093-0.0057-3e-3 -0.0021-0.0062-0.0042-0.0093-0.0062-0.0039-0.0026-0.0079-0.0057-0.01138-0.0088l-0.0062-0.0052-0.0093-0.0067c-0.0024-2e-3 -0.0037-0.0045-0.0062-0.0062-0.0013-1e-3 -0.0019-0.0015-0.0031-0.0021-0.0039-0.0017-0.0082-0.0042-0.01188-0.0062-0.0057-0.0031-0.01143-0.0068-0.01654-0.01085l-0.0093-0.0083c-0.0039-3e-3 -0.0078-0.0056-0.01188-0.0083-0.0058-0.0039-0.01124-0.0083-0.01654-0.01292-0.0049-0.0039-0.0093-0.0075-0.01447-0.01085-0.0041-0.0026-0.0078-6e-3 -0.01138-0.0093-0.0016-0.0013-0.0044-0.0019-0.0062-0.0031-0.0016-0.0013-0.0044-0.0025-0.0062-0.0036-0.0039-0.0023-0.0084-0.0043-0.01188-0.0072-0.0016-0.0012-0.0046-2e-3 -0.0062-0.0031-0.0026-0.0017-0.0067-0.0038-0.0093-0.0057-0.0038-0.0028-8e-3 -0.0058-0.01188-0.0083-0.0046-0.0031-0.0085-0.0065-0.01241-0.01034-0.0019-0.0018-0.0043-0.0039-0.0062-0.0057-0.0033-0.0032-0.0061-0.0061-0.0093-0.0093-0.0032-0.0035-0.0064-0.0076-0.0093-0.01137-0.0029-0.0037-0.0064-0.0072-0.0093-0.01085-0.0029-0.0036-0.0053-0.0072-0.0088-0.01034-0.0013-0.0012-0.0016-0.0017-0.0031-0.0026-0.0041-0.0022-0.0081-4e-3 -0.01188-0.0067-0.0024-0.0017-0.0038-0.0041-0.0062-0.0057-3e-3 -0.0019-0.0063-0.0034-0.0093-0.0052-0.0041-0.0025-0.0082-0.0043-0.01188-0.0072-0.0034-0.0026-0.0063-0.0063-0.0093-0.0093-0.0024-0.0022-0.0037-0.0038-0.0057-0.0062-0.0016-0.0019-0.0024-0.0025-0.0031-0.0031-0.0021-0.0017-4e-3 -0.0046-0.0062-0.0062-0.0019-0.0013-0.0043-2e-3 -0.0062-0.0031-0.0027-0.0016-0.0066-0.0041-0.0093-0.0057-0.0039-0.0023-0.0082-0.0031-0.01188-0.0057-0.0036-0.0021-0.0077-0.0042-0.01138-0.0062-0.0024-0.0013-0.0037-0.0026-0.0062-0.0036-0.0031-0.0013-0.0062-0.0023-0.0093-0.0036-0.0049-0.0022-0.0096-0.0036-0.01447-0.0057-0.0049-2e-3 -0.0097-0.0041-0.01394-0.0072-0.0024-0.0016-0.0062-0.0038-0.0088-0.0052-0.0032-0.0019-0.0063-4e-3 -0.0093-0.0062-3e-3 -0.0021-0.0063-0.0041-0.0093-0.0062-0.0034-0.0023-0.0072-0.0046-0.01085-0.0067-0.0061-0.0038-0.01249-0.0076-0.0186-0.01137-0.0046-0.0028-0.0085-0.0066-0.01344-0.0088-0.0044-2e-3 -0.0089-0.0043-0.01344-0.0062-0.0056-0.0024-0.01191-0.0038-0.01757-0.0062-6e-3 -0.0026-0.01167-0.0061-0.01757-0.0088-0.0067-0.0033-0.01315-0.0072-0.01963-0.01085-0.0063-0.0036-0.01259-0.0074-0.0186-0.01137-7e-3 -0.0046-0.01331-0.0095-0.01913-0.0155-0.0053-0.0058-0.0099-0.01182-0.01291-0.01912l-0.0062-0.01188c-0.0028-0.0039-0.0055-0.0076-0.0093-0.01085-5e-3 -0.0044-0.0099-0.0091-0.0155-0.01292-0.0039-0.0026-8e-3 -0.0035-0.01188-0.0062-0.0051-0.0033-0.01029-0.0062-0.01551-0.0093-0.0045-0.0027-0.0086-0.0071-0.01344-0.0093-0.0026-0.0011-0.0067-0.0025-0.0093-0.0026v5.29e-4c-0.04362-0.0021-0.06057-0.02404-0.05374-0.04134-0.0054-0.0044-0.01093-0.0086-0.01603-0.01344-0.0074-0.0068-0.01503-0.01409-0.02222-0.02119l-0.0031-0.0031c-8.4e-5 -8.2e-5 -0.0031 8.6e-5 -0.0031 0-0.01148-6.35e-4 -0.02567-0.0061-0.04186-0.01705-5.29e-4 -3.7e-4 -0.0026-2.91e-4 -0.0031-5.29e-4 -0.0033-0.0023-0.0063-0.0061-0.0093-0.0088-0.0027-0.0024-0.0059-0.0044-0.0088-0.0067-0.0042-0.0033-0.0086-0.0062-0.01291-0.0093-0.0039-0.0029-8e-3 -0.0063-0.01188-0.0093-0.0035-0.0025-0.0072-0.0038-0.01085-0.0062-0.0047-0.0032-0.0089-0.0068-0.01344-0.01033-0.0039-3e-3 -0.0079-0.0067-0.01241-0.0088-0.0061-0.0031-0.01244-6e-3 -0.0186-0.0093-0.0051-0.0027-0.0098-0.0061-0.01447-0.0093-0.0045-0.0031-0.0092-0.0058-0.01344-0.0093-0.0046-0.0038-0.0091-0.0077-0.01344-0.01188-0.0053-0.0049-0.0105-0.0102-0.0155-0.0155-0.0046-0.0048-9e-3 -0.0095-0.01344-0.01447-0.0032-0.0036-0.0058-0.0076-0.0093-0.01085-0.0038-0.0034-8e-3 -0.0056-0.01188-0.0088-0.0011-4.76e-4 -0.0021-0.0021-0.0031-0.0026-0.01169-0.0051-0.02371-0.01-0.03565-0.01447-5.29e-4 -2e-4 -0.0021-1e-3 -0.0026-1e-3 -2.62e-4 1.2e-5 -0.0029-1.2e-5 -0.0031 0-0.03847 0.0013-0.05888-0.01281-0.06046-0.02791-0.0034-0.0016-0.0075-0.0038-0.01085-0.0052-0.01109-0.0057-0.02183-0.0122-0.03256-0.0186-0.01093-0.0063-0.02177-0.01285-0.03204-0.02015-0.0074-0.0051-0.01463-0.0106-0.02222-0.0155-0.0061-0.0037-0.01251-0.0067-0.0186-0.01033-0.0078-0.0045-0.01532-0.0092-0.02222-0.01499-0.0075-0.0059-0.01466-0.01229-0.02222-0.01809-0.0085-0.0063-0.0177-0.01219-0.02635-0.01809-0.0104-0.0068-0.02085-0.01385-0.03152-0.02015-0.01225-0.0074-0.02429-0.01499-0.03514-0.02429-0.0077-0.0065-0.01519-0.01337-0.02222-0.02067l-0.0016-5.29e-4c-0.0028-1e-3 -0.0064-0.0023-0.0093-0.0031-0.0081-0.0028-0.01669-0.0068-0.02429-0.01085-0.0081-0.0044-0.01535-0.0093-0.02223-0.0155-0.0075-0.0065-0.01439-0.01337-0.02119-0.02067-0.0042-0.0044-0.0085-0.0093-0.01291-0.01344-9e-3 -0.0083-0.01574-0.01618-0.02016-0.02377-7.93e-4 -4.76e-4 -0.0021-0.0021-0.0031-0.0026-3e-3 -0.0012-0.0064-0.0022-0.0093-0.0036-0.0027-0.0012-0.0056-0.0019-0.0083-0.0031-0.0024-0.0011-0.0057-2e-3 -0.0083-0.0031-0.0024-1e-3 -0.0057-0.0022-0.0083-0.0031-0.0024-7.94e-4 -0.0047-0.0022-0.0072-0.0026-0.0031-5.02e-4 -0.0062-9.52e-4 -0.0093-0.0031-0.0033-8.99e-4 -0.0062-0.0017-0.0093-0.0031-0.0035-0.0015-0.0062-0.0033-0.0093-0.0057-0.0031-0.0022-0.0061-4e-3 -0.0093-0.0062-0.0024-0.0016-0.0057-0.0025-0.0088-0.0036-0.02305-0.0092-0.02146-0.0259-0.0083-0.02739 5.29e-4 -4.7e-5 0.0016 1.6e-5 0.0021 0 0.0045-1.41e-4 0.01003 1e-3 0.01654 0.0036 0.0016 7.67e-4 0.0039 0.0017 0.0057 0.0026 0.0034-0.0034 0.0096-0.0058 0.0186-0.0062 0.0011-3.9e-5 0.0021-1.5e-5 0.0031 0 0.0048 6.5e-5 0.0097 5.29e-4 0.01447 5.29e-4 0.0041 2.91e-4 0.0083 8.47e-4 0.01241 0.0031-0.0029-0.0026-6e-3 -0.0061-0.0088-0.0088-0.0046-0.0043-0.0089-0.0086-0.01291-0.01344-0.0026-0.0032-0.0062-0.0061-0.0088-0.0093-0.0016-0.0021-0.0038-0.0042-0.0057-0.0062-0.01339-0.01383-0.01098-0.02529-0.0031-0.0279 0.0054 1e-5 0.01241 0.0035 0.01963 0.01188 0.0019 0.0021 0.0035 0.0039 0.0052 0.0062-0.01172-0.02477-0.01484-0.04772-0.01188-0.06718-0.0013-0.00832 0.0021-0.016161 0.0036-0.024289-0.03806-0.00426-0.07335-0.011277-0.10594-0.019637h-5.3e-4zm41.725 5.292e-4c0.0077 0.00763 0.01471 0.01596 0.0217 0.024289 0.02545 0.00111 0.05692 0.01411 0.09043 0.03514-0.0053-0.022381 2.64e-4 -0.043449 0.0155-0.059428zm-0.98392 0.15296 5.29e-4 5.29e-4c0.0044 0.0021 0.0087 0.0047 0.01291 0.0072 0.01085 0.0066 0.02088 0.01402 0.03049 0.02222 0.0063 0.0058 0.01262 0.01148 0.01913 0.01705h5.29e-4c-7.94e-4 -3.17e-4 7.94e-4 1e-3 0.0021 1e-3 6.6e-5 1.3e-5 0.0019 9e-6 0.0072 0.0026 0.01233 0.0045 0.0241 0.01085 0.03565 0.01705 0.0123 0.0064 0.0245 0.01304 0.03669 0.01964 0.01228 0.0064 0.02445 0.01269 0.03669 0.01912-0.01807-0.01379-0.03609-0.02766-0.05426-0.04134-0.02564-0.01859-0.05098-0.0375-0.07648-0.05633-0.01704-0.0031-0.03411-0.0061-0.05116-0.0088zm-0.26665 0.03307c0.0011 5.55e-4 0.0024 0.0011 0.0036 0.0016 7.93e-4 3.44e-4 0.0016 1e-3 0.0026 1e-3v-5.3e-4l-5.29e-4 -5.29e-4c-0.0011-3.17e-4 -0.0021-1e-3 -0.0031-1e-3 -7.94e-4 -2.24e-4 -0.0019-3.17e-4 -0.0026-5.29e-4zm-38.714 0.20928c-0.0027 0.0027-0.0092 0.0058-0.0078 0.0088 0.0016-0.0014 0.0042-0.0037 0.0052-0.0047 7.94e-4 -0.0014 0.0037-0.0052 0.0026-0.0041zm40.487 0.04806c3e-6 0.0029 1.83e-4 0.0055 0 0.0083 0.0096 8e-3 0.01939 0.01572 0.02894 0.02377-0.0011-0.0039-0.0019-0.0077-0.0026-0.01137-0.0087-7e-3 -0.01765-0.01369-0.02635-0.02067zm-40.343 0.01602c-2e-4 2.91e-4 -0.0053 0.0077-0.0026 0.0047 9e-4 -0.0015 0.0017-3e-3 0.0026-0.0047zm39.3 0.14469c0.0052 0.0064 0.01069 0.0126 0.01601 0.01912 0.0066 0.0078 0.01326 0.01571 0.02016 0.02325 0.0069 0.0072 0.01408 0.01419 0.02119 0.02119 0.0033 0.0033 0.0065 0.0066 0.0098 0.0098h5.29e-4c0.01 0.0011 0.02188 0.0051 0.03514 0.01189 0.0055 0.0028 0.0105 0.0062 0.01601 0.0088 0.0068 0.0031 0.01365 0.0062 0.02016 0.0098 0.0061 0.0032 0.01225 0.0074 0.0186 0.01034 0.0033 0.0015 0.0058 0.0022 0.0093 0.0031 0.0039 8.99e-4 8e-3 0.0025 0.01188 0.0041-0.0035-0.0034-0.0068-0.0068-0.01035-0.01033-0.0056-0.0054-0.01177-0.0104-0.01757-0.0155-0.0062-0.0052-0.0122-0.0106-0.0186-0.0155-0.0075-0.0054-0.01484-0.01122-0.02273-0.01602-0.0069-4e-3 -0.01336-0.0082-0.02016-0.0124-0.0096-0.0058-0.01892-0.01167-0.02842-0.01757-0.0095-0.0056-0.01923-0.01134-0.02894-0.01654-0.0092-0.0047-0.01786-0.01-0.02687-0.01499-0.0016-9.26e-4 -0.0035-0.0016-0.0052-0.0026zm0.2036 0.14624c0.0093 0.0143 0.01648 0.02814 0.0155 0.03824 0.0048 0.0049 0.0094 0.01 0.01344 0.0155 0.0039 0.0061 0.0076 0.01262 0.01085 0.01912 7.94e-4 1e-3 0.0011 0.0024 0.0016 0.0036-3.2e-5 4.24e-4 0.0024 1e-3 0.0026 1e-3 0.0024 0.0024 6e-3 0.0043 0.0088 0.0062 0.0051 0.0033 0.01029 0.0062 0.0155 0.0093 0.0054 0.0028 0.01053 0.0063 0.01603 0.0088 5e-3 0.0023 0.01048 0.0045 0.0155 0.0067 0.0053 0.0023 0.01061 0.0045 0.01601 0.0067 0.0055 0.0021 0.01071 0.0042 0.01601 0.0067 0.0071 0.0032 0.01355 0.0073 0.02016 0.01137 0.0024 0.0015 0.0048 0.0032 0.0072 0.0047-0.0035-0.0072-0.0039-0.0138-0.0052-0.02067-0.0097-5e-3 -0.01939-0.01029-0.02894-0.0155-0.01482-0.0082-0.02897-0.01727-0.04289-0.02687-0.01241-0.0087-0.02439-0.01819-0.03514-0.02894-0.0068-0.0064-0.01344-0.01314-0.02016-0.01964-8e-3 -0.0075-0.01619-0.01526-0.02376-0.02326-0.0011-0.0011-0.0021-2e-3 -0.0031-0.0031zm0.50178 0.38189c0.0013 1e-3 0.0027 0.0021 0.0041 0.0031 0.0049 0.0032 0.0097 0.0062 0.01447 0.0098 0.0037 0.0028 0.0072 6e-3 0.01085 0.0088 0.0024 2e-3 0.0051 0.0033 0.0078 0.0047 0.0027 0.0013 0.0061 0.0028 0.0088 0.0041 4e-3 0.0018 0.0077 0.0038 0.01138 0.0062 0.0046 0.0031 0.0092 0.0067 0.01344 0.01033 0.0028 0.0023 0.0059 0.0048 0.0088 0.0072 0.0024 0.0018 0.0045 0.0038 0.0067 0.0057 5.3e-4 6.88e-4 0.0019 0.0014 0.0036 0.0026 0.0033 0.0021 6e-3 0.0045 0.0093 0.0067 0.0024 0.0016 0.0048 0.0036 0.0072 0.0052 0.0028 0.0019 0.0032 0.0018 0.0057 0.0031 0.0057 0.0026 0.01114 0.0061 0.01654 0.0093 0.0046 0.0027 0.0086 0.0052 0.01291 0.0083 0.0043 0.0029 0.0084 0.0064 0.01241 0.0098 0.0035 0.0031 0.0075 0.0057 0.01138 0.0083-2.49e-4 -2.64e-4 9e-5 -1e-3 -5.29e-4 -1e-3 -0.0062-0.0064-0.0123-0.0123-0.0186-0.0186-0.0063-0.0061-0.01302-0.0123-0.01913-0.0186-0.0053-0.0052-0.01117-9e-3 -0.01707-0.01344-0.0098-0.0067-0.02061-0.01239-0.03101-0.01809-0.01278-0.0065-0.02524-0.01357-0.03772-0.02067-0.0127-0.0067-0.02524-0.01357-0.03773-0.02067-0.0013-6.61e-4 -0.0024-0.0014-0.0036-0.0021zm9.8707 0.17467c-0.02868 0.05569-0.0612 0.10434-0.09508 0.12557-0.14502 0.09088-0.30065 0.16556-0.46044 0.22686-0.03885 0.01493-0.08407 5e-3 -0.12506-0.0021-0.17494-0.03033-0.16946-0.03242-0.27337-0.0832-0.03233-0.01847-0.06367-0.03838-0.09457-0.05891-7.94e-4 0.19419-0.1274 0.31759-0.29662 0.40463 0.0977 0.25506 0.08112 0.53562-0.1049 0.78807-0.10497 0.14247-0.32356 0.14407-0.48524 0.21601-0.02976-0.0097-0.05991-0.0184-0.08992-0.02739-0.09024 0.21801-0.14814 0.37366-0.19379 0.48938 0.01188 0.01921 0.02318 0.03863 0.03411 0.05839 0.02658 0.04801 0.04703 0.09946 0.06873 0.14986 0.02741 0.06368 0.05603 0.12687 0.07906 0.19224 0.01487 0.04203 0.0236 0.086 0.03462 0.12919 0.04663 0.1827 0.03405 0.12154 0.05633 0.28215 0.0047 0.05827 0.01254 0.11674 0.01394 0.17518 0.0013 0.05803-0.0063 0.12218-0.01913 0.185h8.3602v-2.7125c-0.2649-0.0495-0.53097-0.0908-0.79944-0.11937-0.43018-0.03803-0.86032-0.07243-1.2924-0.07803-0.4201 0.0017-0.84036 0.0012-1.2604 0.0067-0.19413 0.0073-0.38838 0.01037-0.5824 0.01912-0.0069 0.04253-0.01151 0.08534-0.01963 0.12764-0.01688 0.0578-0.07445 0.30451-0.14573 0.33331-0.25418 0.1027-0.525 0.17682-0.7984 0.19689-0.10784 0.0079-0.30919-0.27008-0.34003-0.34261-0.01601-0.03438-0.0316-0.06892-0.04754-0.10335-0.15449 0.12134-0.20618 0.08174-0.52762 0.05478-0.09482-0.06011-0.19421-0.11344-0.28474-0.17983-0.02707-0.01985-0.04482-0.05015-0.06563-0.07648-0.09318-0.11787-0.16738-0.24896-0.24495-0.37724zm-9.2718 0.2837c0.0016 0.0018 0.0035 0.0034 0.0052 0.0052-9.8e-5 2.91e-4 0.0082 0.0085 0.0057 0.0062 0.0021 0.0013 0.0045 0.0021 0.0067 0.0031 7.94e-4 0 0.0098 0.0049 0.0078 0.0031 0.0043 0.0019 0.0087 0.0041 0.01291 0.0062 0.0042 0.0022 0.0081 0.0044 0.01241 0.0062 0.0057 0.0022 0.01132 6e-3 0.01654 0.0093 0.0035 0.0024 0.0067 0.0038 0.01035 0.0062 0.0048 0.0029 0.0093 0.0065 0.01344 0.01033 0.0033 0.0034 0.0061 0.0068 0.0093 0.01033 0.0019 2e-3 4e-3 4e-3 0.0062 0.0057 0.0048 0.0035 0.0096 0.0074 0.01394 0.01137 5e-3 0.0042 0.0093 9e-3 0.01394 0.01343 0.0039 0.0035 0.0079 0.0069 0.01188 0.01034 0.0016 0.0015 0.0016 0.0027 0.0031 0.0041 0.0016 3.2e-5 0.0036 0.0011 0.0052 0.0016-0.0067-0.0059-0.01336-0.01225-0.01963-0.0186-7e-3 -0.0068-0.01378-0.01335-0.02066-0.02015-0.0057-0.0057-0.01177-0.01094-0.01757-0.01654-0.0048-0.0047-0.01029-0.0087-0.0155-0.01292-0.0062-0.0048-0.0123-0.0098-0.0186-0.01447-0.0016-0.0011-0.0029-0.0021-0.0047-0.0031-7.94e-4 -1.81e-4 -0.0016-5.02e-4 -0.0016-5.29e-4 -0.0067-0.0014-0.01323-0.0039-0.01963-0.0062-0.0075-3e-3 -0.0149-0.0066-0.0217-0.01085-0.0053-0.0029-0.01005-0.0061-0.01498-0.0093zm0.73019 0.50746c-0.01109 0.0022-0.02109 0.0054-0.03411 0.0062 7.94e-4 9.79e-4 0.0016 0.0021 0.0026 0.0031 0.0057 0.0053 0.01204 0.01092 0.01757 0.01654 0.0029 0.0031 0.0061 6e-3 0.0093 0.0088 0.0038 0.0032 0.0076 0.0066 0.01138 0.0098 0.0021 0.0018 4e-3 0.0032 0.0062 0.0047 0.0064 0.0043 0.01259 0.0092 0.0186 0.01395 0.0069 0.0054 0.01344 0.01093 0.02016 0.01654 0.0054 0.0042 0.01013 0.0094 0.01603 0.01292 0.0057 0.0033 0.01148 0.0065 0.01704 0.0098 0.0044 0.0028 0.0089 0.0056 0.01344 0.0083 0.0052 0.0031 0.0104 0.0066 0.01551 0.0098 0.0046 0.0027 9e-3 0.0057 0.01344 0.0088 0.0043 0.0029 0.0087 0.0058 0.01291 0.0088-0.0016-0.0014-3e-3 -0.0027-0.0047-0.0041-0.02658-0.02461-0.05229-0.05049-0.07803-0.07597-0.01953-0.01904-0.03877-0.03809-0.05736-0.05788zm4.9454 2.4288c-0.02389 0.01235-0.04887 0.02293-0.07545 0.03101h0.11059c-0.01167-0.01038-0.0235-0.02061-0.03514-0.03101z" fill="#f00"/>
  </clipPath>
  <clipPath id="clipPath13975">
   <path d="m-17.923 20.726v15.267h128.46v-15.267h-99.677c-0.01824 0.03986-0.03721 0.07962-0.05684 0.11886-0.12214 0.24178-0.30142 0.43737-0.50333 0.61392-0.15119 0.12246-0.3233 0.21359-0.50333 0.28525-0.075215 0.03029-0.15272 0.05181-0.23151 0.06925-0.035811 0.04672-0.072796 0.09275-0.1111 0.13746-0.047537 0.05233-0.092883 0.10683-0.14211 0.15761-0.00393 0.0041 0.00722-0.0086 0.010853-0.01292-0.010094 0.01396-0.20534 0.2335-0.1049 0.11886-0.046326 0.05537-0.1128 0.13202-0.16846 0.20102 0.00183 0.02249 0.00188 0.04516 0.00103 0.0677-0.00222 0.04733-0.013144 0.09316-0.029455 0.13746-0.016002 0.04088-0.035711 0.07987-0.055811 0.11886-0.015145 0.03273-0.036438 0.06224-0.053227 0.09405-0.00983 0.01758-0.017505 0.03607-0.024805 0.05478-0.00809 0.02192-0.016902 0.04346-0.026872 0.06459-0.01015 0.022-0.022302 0.04318-0.03359 0.0646-0.010422 0.0208-0.021497 0.04081-0.033073 0.06098-0.014057 0.02525-0.028577 0.05029-0.041858 0.07596-7.673e-4 0.0015-0.00132 0.0028-0.00206 0.0047-0.00349 0.01751-0.00765 0.03484-0.013435 0.05168-0.00756 0.02246-0.016039 0.04456-0.025839 0.06614-0.00971 0.02211-0.020032 0.04415-0.032039 0.06511-0.00423 7e-3 -0.00896 0.01388-0.013435 0.02067-0.00546 0.01078-0.010512 0.02176-0.016021 0.03256-0.011668 0.02308-0.022632 0.04686-0.03359 0.07028-0.013073 0.03175-0.03014 0.06135-0.044442 0.0925-0.00812 0.01702-0.01329 0.03486-0.019121 0.05271-0.0065 0.02157-0.016272 0.04195-0.025321 0.06253-0.00878 0.02162-0.018857 0.04255-0.029972 0.06305-0.0097 0.01528-0.015433 0.0323-0.021704 0.04909-0.00612 0.0173-0.010787 0.03527-0.016536 0.05271-0.00584 0.01802-0.013526 0.03481-0.018087 0.05323-0.00383 0.0177-0.00969 0.03494-0.016536 0.05168-0.00683 0.01528-0.015518 0.03018-0.024289 0.04444-0.011112 0.01793-0.022757 0.03527-0.034623 0.05271-0.01514 0.02267-0.031373 0.04461-0.048059 0.06615-0.019151 0.02497-0.037142 0.051-0.056327 0.07596-0.00122 0.0015-0.00241 0.0031-0.00362 0.0047 0.034416 0.02656 0.041296 0.09746-0.013436 0.19327-0.00135 0.0023-0.00278 0.0049-0.00414 0.0072-0.00916 0.01654-0.018198 0.03308-0.027388 0.04961-0.00782 0.01396-0.015137 0.02778-0.022738 0.04186-0.00522 0.0093-0.010964 0.01832-0.016536 0.02739-0.00161 0.0039-0.00813 0.0197-0.00827 0.02067-0.00416 0.01148-0.0087 0.02233-0.013436 0.03359-0.00324 0.0073-0.0071 0.01472-0.00982 0.02222-0.00283 0.0097-0.00452 0.01966-0.00672 0.02946-0.00523 0.02071-0.012036 0.04082-0.022738 0.05943-0.00784 0.01366-0.016547 0.0271-0.024289 0.04082-0.00593 0.01122-0.010885 0.02286-0.018603 0.03307-0.00807 0.0112-0.016902 0.02192-0.026872 0.03152-1.968e-4 2.02e-4 -0.0081 0.0076-0.011369 0.01085-2.91e-4 4.24e-4 -1.746e-4 5.82e-4 -5.292e-4 1e-3l-5.291e-4 5.29e-4c-0.00359 0.0051-0.00831 0.01206-0.00878 0.01292-0.010761 0.01596-0.020669 0.03216-0.031523 0.04806-0.00951 0.01522-0.018288 0.03105-0.027388 0.04651-0.00648 0.01154-0.00389 0.0049-0.00878 0.01912-0.00357 0.01103-0.00611 0.02193-0.0093 0.03307-0.00399 0.01525-0.00857 0.03034-0.01292 0.04547-0.02132 0.07425-0.056326 0.11762-0.090434 0.13488-0.00482 0.02379-0.00899 0.04774-0.01447 0.07131-0.00955 0.04162-0.021537 0.08252-0.03514 0.12299-0.00419 0.01145-0.00802 0.02291-0.011369 0.03462-0.051063 0.17821-0.12845 0.29066-0.20981 0.35708-3.44e-4 5.03e-4 -6.879e-4 0.0011-0.00103 0.0016-0.018785 0.02609-0.039737 0.05082-0.060978 0.07493-0.00161 0.0019-0.00305 0.0038-0.00465 0.0057 0.048576 0.04939 0.048116 0.15605-0.059428 0.27492-0.00901 0.01-0.017378 0.02007-0.025839 0.03049-0.00379 0.0051-0.00807 0.0101-0.011369 0.0155-3.175e-4 4.76e-4 -0.00101 0.0013-0.00156 0.0021-5.292e-4 7.41e-4 -0.00122 0.0016-0.00156 0.0021 1.241e-4 -1.7e-4 8.203e-4 -7.5e-5 0.00103-5.29e-4h5.292e-4c-0.00424 0.0085-0.00873 0.01587-0.013952 0.02377-0.00127 0.0018-0.00282 0.0034-0.00414 0.0052-0.030473 0.04157-0.051265 0.05874-0.066663 0.06201-0.00279 0.0097-0.00637 0.01909-0.010335 0.02842-4.498e-4 0.0025-0.00938 0.0191-0.012404 0.0248-0.0076 0.01336-0.014761 0.02686-0.02222 0.04031-0.00494 0.01193-0.013435 0.02261-0.018087 0.03462-4.498e-4 0.0012-0.00106 0.0024-0.00156 0.0036-0.00127 0.0032-0.00235 0.0062-0.00362 0.0093-3.969e-4 0.0025-9.26e-4 6e-3 -0.00103 0.0067-3.704e-4 0.0029-0.00143 0.01405-0.00156 0.01499-4.234e-4 0.0065-0.00122 0.01314-0.00206 0.01964-0.00114 0.0086-0.00201 0.01277-0.00362 0.02067-4.234e-4 0.0021-8.467e-4 3e-3 -0.00103 0.0036v5.29e-4c-1.934e-4 9.79e-4 5.027e-4 -0.0032-0.00156 0.0072-0.00312 0.01339-0.0082 0.0263-0.013951 0.03876-0.00596 0.01355-0.013737 0.02604-0.022738 0.03772-0.0013 0.0013-0.00592 0.0075-0.00878 0.01138-2.574e-4 5.29e-4 -7.673e-4 5.29e-4 -0.00103 0.0011-3.175e-4 5.29e-4 -0.00151 0.0021-0.00156 0.0021-0.00342 0.0052-0.00656 0.01056-0.010335 0.0155-5.821e-4 2.62e-4 -0.00509 0.0084-0.00517 0.0088l-5.292e-4 5.29e-4c-0.00701 0.01185-0.014795 0.02323-0.023254 0.03411-0.00527 0.0069-0.011038 0.01341-0.016536 0.02016 0.038395 0.04616 0.046251 0.13873-0.01292 0.26097l-0.00362 0.0093c-0.010803 0.02215-0.023125 0.04361-0.03514 0.06511-0.00939 0.01828-0.019907 0.03607-0.028422 0.05478-0.037085 0.08184-0.084424 0.12195-0.13074 0.14418 2.439e-4 0.0016 3.175e-4 0.0045 5.291e-4 0.0062 0.00111 0.01 0.00135 0.01992 0.00156 0.02997 1.794e-4 0.0078 3.969e-4 0.01548 5.291e-4 0.02326 3.175e-4 0.0074-6.085e-4 0.01543-0.00206 0.02273-0.00164 0.0096-0.00634 0.01773-0.011369 0.02585-0.00486 0.0068-0.010266 0.0131-0.01602 0.01913-0.00286 0.0027-0.0051 0.0054-0.00775 0.0083-0.00135 0.0013-0.00349 0.0035-0.00517 0.0057v0.001059c-4.498e-4 5.29e-4 -0.00124 0.0016-0.00156 0.0021-0.00135 0.0021-0.00309 0.0041-0.00465 0.0062 0.025614 0.0096 0.031076 0.05029-0.011885 0.09973-0.00459 0.0053-0.00871 0.01093-0.01292 0.01654-0.00382 5e-3 -0.00778 0.0098-0.011369 0.01497-5.292e-4 7.94e-4 -0.00101 0.0019-0.00156 0.0026-0.00204 0.0029-0.00424 0.0059-0.0062 0.0088-3.969e-4 5.29e-4 -3.175e-4 7.94e-4 -5.292e-4 0.0011l-5.291e-4 5.3e-4c-0.00222 0.0044-0.00499 0.0088-0.00775 0.01291-0.00262 0.0039-0.00536 0.0077-0.00827 0.01138-0.014152 0.01797-0.028233 0.03002-0.041341 0.03721-2.54e-4 0.0011-1.852e-4 0.0021-5.292e-4 0.0031-0.00456 0.01659-0.00811 0.03337-0.011885 0.05013-0.0023 0.0118-0.00609 0.02355-0.0093 0.03514-0.00164 6e-3 -0.00146 0.0036-0.00156 0.0062-0.00127 0.0072-3e-3 0.0145-0.00414 0.0217-4.762e-4 0.0043-9.789e-4 0.0086-0.00156 0.01291v5.3e-4c-1.784e-4 0.0042-9.261e-4 0.0084-0.00156 0.01291-0.00103 0.0075-0.00228 0.01569-0.00465 0.02429-5.292e-4 0.0019-0.00151 0.0038-0.00206 0.0057-2.421e-4 7.94e-4 -2.024e-4 0.0019-5.292e-4 0.0026-0.00135 0.0051-0.00151 0.01048-0.0031 0.01551-0.00228 0.0076-0.00545 0.01482-0.00827 0.02222 9.82e-5 -5.29e-4 -3.704e-4 0.0011-5.292e-4 0.0016v5.3e-4c-0.00138 0.0057-0.00328 0.01148-0.00517 0.01704-0.00116 0.0034-0.00383 0.0097-0.00206 0.0057-0.00324 0.0094-0.0081 0.01807-0.01292 0.02687-0.00891 0.0168-0.020817 0.03207-0.033073 0.04651-0.0031 0.0041-0.00656 0.0079-0.00982 0.01188-9.261e-4 0.0034-0.00201 0.0071-0.0031 0.01085 7.938e-4 -0.0031 8.732e-4 -0.0061 0.00156-0.0093-4.763e-4 5.29e-4 -0.00106 0.0011-0.00156 0.0016-3.439e-4 7.94e-4 -9.26e-4 0.0019-0.00156 0.0031-3.969e-4 5.29e-4 -0.00143 0.0013-0.00206 0.0021 0.00119-0.0019 0.00235-0.0035 0.00362-0.0052 5.027e-4 -0.0011 0.0013-0.0019 0.00156-0.0026-7.17e-5 2.65e-4 7.41e-5 7.94e-4 0 0.0011 3.969e-4 -5.29e-4 6.086e-4 -0.0011 0.00103-0.0016 0.00201-0.0075 0.00132-0.0108 0.00259-0.01707-0.00541 0.0092-0.010589 0.01857-0.015502 0.02791-0.00486 0.0095-0.00934 0.01889-0.01292 0.02894-0.00346 0.0093-0.00783 0.01799-0.010853 0.02739-0.00322 0.0096-0.0073 0.01913-0.00982 0.02894-0.00233 0.0087-9.26e-4 0.01807-0.00259 0.02687-0.00114 0.01196-0.00214 0.02426-0.00362 0.03617-0.00161 0.01206-0.00342 0.02371-0.00568 0.03566-0.00193 0.0094-0.00432 0.01902-0.0062 0.02842-0.018177 0.09153-0.083042 0.09478-0.091984 0.03359-0.092788 0.16088-0.22537 0.2057-0.32608 0.13901-0.1222 0.4826-0.43507 0.81224-0.83974 0.93586-0.16208 0.14464-0.30813 0.14951-0.44183 0.05271-0.76143-0.03553-1.6647-0.69075-2.1864-2.19-0.06377-0.18326-0.11377-0.37042-0.15503-0.55966-0.21309 0.44117-0.40757 0.89067-0.60513 1.3389-0.13995 0.32914-0.28253 0.65729-0.42478 0.98547-0.14284 0.35638-0.24599 0.72662-0.36432 1.0914-0.091296 0.31732-0.20838 0.62618-0.31678 0.93793-0.16439 0.4904-0.38247 1.1066-1.0914 1.1276-0.66212 0.01955-1.2883-0.40582-1.8164-0.80564-0.18752-0.14194-0.10448-0.45898-0.15658-0.68833 0.00701-0.37783-2.964e-4 -0.75572 0.016536-1.1333 0.015394-0.52251 0.088926-1.042 0.1695-1.558 0.059622-0.42528 0.11546-0.85205 0.20722-1.2718 0.085693-0.37636 0.21185-0.74404 0.34727-1.1054 0.1155-0.31954 0.2403-0.63603 0.39222-0.93999 0.029018-0.05669 0.060164-0.11237 0.0894-0.16898-0.007948-0.01652-0.015767-0.03314-0.023771-0.04961-0.10186-0.21038-0.20913-0.41708-0.31145-0.62667-0.25277-0.48962-0.51772-0.97249-0.79013-1.4506-0.083564-0.13521-0.15639-0.27628-0.23099-0.41651-0.18568-0.34901-0.321-0.67807-0.41289-0.98392zm18.477 0c7.6465e-4 0.0015 0.001299 0.0031 0.002066 0.0047 0.075629 0.15824 0.15144 0.31652 0.22686 0.4749 0.061918-0.0934 0.12123-0.1885 0.18345-0.28164 0.043677-0.06633 0.088558-0.13193 0.13281-0.19792zm74.207 1.4263c0.09316 0.0044 0.22573 0.13912 0.2713 0.17725 0.18866 0.28064 0.34669 0.58008 0.49609 0.88315 0.07358 0.1622 0.16499 0.35952 0.23151 0.52296 0.12718 0.3125 0.23469 0.626 0.32556 0.95085 0.03441 0.123 0.06642 0.2467 0.09973 0.37 0.04604 0.21522 0.13017 0.60392 0.17053 0.81132 0.0095 0.04869 0.01807 0.09752 0.02739 0.14624 0.08105-0.01182 0.16211-0.02208 0.24391-0.02532 0.01976-7.67e-4 0.0063 0.03934 0.0093 0.05891 0.0043 0.02773 0.0086 0.05547 0.01291 0.0832 0.01431-0.05313 0.10394-0.03313 0.35347-0.01034 0.23597-0.10443 0.25419-0.10448 0.26458 0.0186 0.0021 1.01e-4 0.0037 4.23e-4 0.0057 5.29e-4 0.03304 0.0016 0.01056 0.06533 0.01447 0.09818 6e-3 0.05058 0.01103 0.10125 0.01601 0.15193 0.05964 0.0024 0.10057 0.01 0.12971 0.02429 0.01474-0.15362 0.02775-0.30741 0.04754-0.46044 6.3e-5 -5.03e-4 -6.6e-5 -1e-3 0-0.0016-0.02035-0.16407-0.0021-0.29314 0.03824-0.38602-0.01876-0.11163-0.03819-0.22322-0.05685-0.33486-0.07174-0.4602-0.15819-0.91821-0.22117-1.3798-0.0035-0.03197-0.01185-0.06398-0.01085-0.09612 0.0066-0.20663 0.06489-0.4018 0.4253-0.34572 0.19022 0.0296 0.25457 0.36224 0.28629 0.57723 0.04812-0.10225 0.11832-0.22252 0.18706-0.21808 0.43018 0.0277 0.47743 0.0969 0.5085 0.3483 0.34261 0.01828 0.38603 0.21137 0.42582 0.5085 0.0548 0.51359 0.07446 1.0308 0.08992 1.5472 0.43868 0.06375 0.39703-0.04105 0.39429 0.2775-7.94e-4 0.1329-0.0021 0.26553-0.0031 0.39842-0.0016 0.24613-0.0038 0.49233-0.0062 0.73846-0.0024 0.44615-7e-3 0.89227-0.0093 1.3384-0.0019 0.67503-0.0093 1.3499-0.02946 2.0247-0.01355 0.54494-0.03226 1.09-0.05788 1.6345-0.0059 0.12601-0.0089 0.25183-0.01654 0.37775-0.0057 0.09527-0.01598 0.19012-0.02376 0.28526-0.02228 0.30764-0.0071 0.18205-0.03928 0.41341-0.0066 0.04726-0.0098 0.09493-0.01963 0.14159-9.2e-5 0.0024-5.29e-4 4e-3 -0.0011 0.0057-1.54e-4 7.94e-4 -2.65e-4 0.0013-5.29e-4 0.0021-8e-3 0.03508-1.96e-4 0.1022-0.03618 0.1018-0.20069-0.0021-0.39776-0.05879-0.59221-0.10852-0.01405-0.0036-0.0016-0.02943-0.0026-0.04393-0.0013-0.08412-5.29e-4 -0.16804 5.29e-4 -0.25218-0.0113 0.0043-0.0227 0.0079-0.03411 0.01188-0.02479 0.1137-0.05556 0.25598-0.05943 0.27078-0.02064 0.07899-0.0517 0.1551-0.07752 0.23254-0.0035 0.0079-0.13407 0.41058-0.26613 0.38758-0.47191-0.08219-0.46283-0.14931-0.47594-0.43201-0.0231 0.0041-0.04609 0.0086-0.06925 0.01241 0.01024 0.056 0.02069 0.11196 0.03101 0.16795 0.04422 0.08637 0.10964 0.18104 0.04444 0.22634-7.94e-4 5.29e-4 -0.0013 0.0011-0.0021 0.0016 0.01508 0.09116-0.0019 0.11348-0.1354 0.08992-0.45255 0.29091-0.45862 0.14803-0.48834-0.06356-0.0024-0.01654-0.0049-0.03307-0.0072-0.04961-0.02437-0.01617-0.0168-0.06353-0.0155-0.1049-0.0038-0.0265-0.0075-0.05309-0.01138-0.07958-0.01032-0.0471-0.02096-0.09547-0.03307-0.14831-0.03053 0.0044-0.06102 0.0048-0.08992 0.0011-0.10422-0.01365-0.1682-0.12644-0.25218-0.18965-0.07731-0.19232-0.15252-0.38516-0.23048-0.57723-0.01998-0.05299-0.0397-0.10608-0.05943-0.15916 0.0011 0.01831-0.0016 0.03337-0.01707 0.03669-0.08084 0.01741-0.16316 0.02405-0.24598 0.02635 0.0026 0.01278 0.0051 0.02548 0.0078 0.03824-0.0019 0.03122 0.02302 0.08052-0.0052 0.09405-0.50232 0.24106-0.50271 0.29767-0.65112 0.0072-0.04196-0.07964-0.08543-0.15873-0.12661-0.23874-0.01574 0.05958-0.03564 0.11755-0.06563 0.1726-0.06261 0.0907-0.07942 0.13138-0.22221 0.17725-0.05056 0.01625-0.10085 0.01659-0.14831 0.0052-0.01622 0.01225-0.03235 0.02492-0.04909 0.03204-0.0973 0.42369-0.46598 0.41525-0.57361-0.05013-0.09232-0.0249-0.15696-0.06913-0.21859-0.1602-0.04098-0.06311-0.0746-0.13007-0.0925-0.2036-0.0074-0.03292-0.01971-0.06488-0.03101-0.09664-2.65e-4 -0.0013-0.0016-5e-3 -5.29e-4 -0.0041 0.0021 0.0016 0.0046 0.0085 0.0036 0.0062-0.01453-0.03537-0.03495-0.06809-0.04857-0.10387-0.02516-0.06427-0.04619-0.12972-0.05219-0.19896-0.0055-0.0516-0.01217-0.10308-0.02223-0.154-5e-3 -0.02917-0.01027-0.05771-0.02429-0.08423-0.02805-0.05837-0.05688-0.1162-0.08475-0.17466-0.02909-0.06083-0.05625-0.12266-0.07803-0.18655-0.01423-0.04249-0.02769-0.08501-0.04444-0.12661-0.01577-0.04496-0.03498-0.08882-0.04754-0.13488-0.01326-0.04738-0.02652-0.09506-0.03152-0.14418-0.0065-0.04156-0.0159-0.0828-0.02842-0.12299-0.01664-0.05429-0.04164-0.10465-0.06873-0.15451-0.0266-0.0505-0.05342-0.10118-0.08578-0.14831-0.06177-0.08672-0.12443-0.17313-0.17208-0.26872-0.03598-0.07802-0.07121-0.15706-0.09354-0.2403-0.01378-0.06826-0.0209-0.13696-0.0186-0.20671-3.4e-5 -0.03621-5.29e-4 -0.0723-5.29e-4 -0.10852 2.33e-4 -0.039 4e-5 -0.0783 0-0.1173-5.29e-4 -0.05429-0.0013-0.10853-0.0036-0.16278-0.0024-0.05277-0.0055-0.10534-0.01344-0.15761-9e-3 -0.05645-0.01667-0.11355-0.03101-0.16898-0.01333-0.05881-0.03279-0.11584-0.04806-0.17415-0.02246-0.0731-0.039-0.14749-0.05736-0.22169-0.0085-0.04284-0.02318-0.08372-0.03566-0.12557-0.0096-0.03597-0.02111-0.07135-0.02791-0.108-0.0075-0.02843-0.01781-0.05624-0.02479-0.08475-0.01476-0.04576-0.03127-0.09141-0.03928-0.13901-0.0055-0.03122-0.01262-0.06198-0.01913-0.09302-0.01151-0.04069-0.03093-0.07811-0.04909-0.11627-0.01672-0.03691-0.02529-0.05919-0.04289-0.09302-0.01876-0.04247-0.03881-0.085-0.05013-0.13022-0.01463-0.04524-0.03088-0.08979-0.04599-0.13487-0.01831-0.04418-0.03538-0.08903-0.05581-0.13229-0.03022-0.05767-0.06299-0.11383-0.09405-0.17105-0.03107-0.06022-0.06168-0.12052-0.09147-0.18138-0.01844-0.04183-0.04538-0.10796-0.04857-0.14108-0.02357-0.05592-0.04199-0.11309-0.04909-0.17363-0.0013-0.01558-0.0032-0.03116-0.0062-0.04651-0.0013-0.0074-0.0071-0.04095-0.0078-0.04806-1.43e-4 -2.65e-4 1.41e-4 -7.94e-4 0-0.0011-1.8e-4 -2.64e-4 -2.64e-4 -7.93e-4 -5.29e-4 -0.0011-0.01437-0.02763-0.02853-0.0553-0.04237-0.0832-0.01288-0.02888-0.02609-0.0579-0.03307-0.08888-0.0037-0.01632-0.01093-0.05435-0.0093-0.04961 1.48e-4 5.29e-4 -1.14e-4 -0.0013 0-0.0011 0.0031 0.01024-0.0058-0.02297-0.0072-0.02635-0.0096-0.03774-0.01879-0.07563-0.02429-0.1142-0.0075-0.05073-0.0108-0.10171-0.0088-0.15296 5.29e-4 -0.03655 5.29e-4 -0.07303 0.0021-0.10956 0.0024-0.04971 0.0052-0.09924 0.0093-0.14883 0.0051-0.06516 0.01114-0.13001 0.01394-0.19534 0.0064-0.07149 0.01442-0.14294 0.02842-0.21342 0.01593-0.08815 0.03656-0.17588 0.07493-0.25735 0.0761-0.14009 0.14707-0.20081 0.32246-0.22634 0.04011-0.0058 0.08249 0.0035 0.11989 0.01912 0.03524 0.01471 0.06654 0.03739 0.09767 0.05994-0.03118-0.0727-0.06243-0.14533-0.09353-0.21808-0.02934-0.06861-0.063-0.13525-0.09043-0.20464-0.0159-0.04022-0.07458-0.09903-0.03927-0.12402 0.16726-0.11841 0.3751-0.16468 0.56276-0.24701 0.0011 0.0019 0.0021 0.0038 0.0031 0.0057-0.0021-0.01596-3e-3 -0.03167-0.0021-0.04703 0.0016-0.02952 0.0082-0.05869 0.01601-0.08733-0.02574-0.05271-0.0504-0.10578-0.07183-0.1602-0.01183-0.03002-0.04362-0.0625-0.03049-0.09198 0.05916-0.13284 0.15679-0.2449 0.23513-0.36742 0.1296 0.07168 0.26934 0.12717 0.38861 0.21497 0.03864 0.02845 0.0504 0.08187 0.07235 0.12454 0.0402 0.07814 0.07605 0.15854 0.1142 0.23771 0.02482 0.05149 0.05038 0.10262 0.07545 0.154 0.03239 0.04192 0.06425 0.08406 0.09715 0.12557 0.0118 0.01488 0.02376 0.02966 0.03566 0.04444-0.01101-0.20985-0.02278-0.44019-0.03049-0.59841-0.05064-0.14044-0.10093-0.28086-0.15193-0.42116-0.16815-0.49914-0.37613-0.98571-0.52141-1.4924-0.01312-0.10484-0.06679-0.34929 0.11369-0.38034 0.17175-0.02955 0.34472 0.07224 0.50126 0.14883 0.0444 0.02172 0.04848 0.08585 0.07028 0.13022 0.02617 0.05328 0.05122 0.107 0.07648 0.16071 0.02738-0.12129 0.05914-0.24713 0.10749-0.35037 0.09075-0.19379 0.23645-0.24599 0.46199-0.28215 0.0058-9.26e-4 0.01188-8.2e-4 0.0181-5.29e-4zm-0.75913 0.42271c3e-3 0.01376 0.0062 0.02761 0.0093 0.04134 0.0021-0.0067 0.0033-0.0099 0.0057-0.01705 3e-3 -9e-3 -0.01-0.01619-0.01497-0.02429zm0.52813 0.10697c0.01717 0.03258 0.03033 0.0506 0.04341 0.06046-0.01431-0.02025-0.02871-0.04048-0.04341-0.06046zm0.20619 0.30954c-0.0071 0.02963-0.01408 0.05926-0.02119 0.08888-0.03892 0.24412-0.06101 0.48972-0.07183 0.73587 0.06645 0.15143 0.12908 0.30456 0.19482 0.4563 0.0076 0.01763 0.01553 0.03512 0.02326 0.05271 0.04697-0.04225 0.09766-0.07844 0.15606-0.1018 0.07185-0.02874 0.12679 0.08892 0.19017 0.13332 0.1201 0.20824 0.20586 0.43192 0.29766 0.65319 0.06844 0.16497 0.13601 0.3301 0.20309 0.49558-0.02484-0.10803-0.05009-0.21569-0.07596-0.3235-0.10702-0.4212-0.24263-0.83452-0.41134-1.2351-0.08646-0.20526-0.12953-0.28932-0.22376-0.48628-0.08172-0.1591-0.1677-0.31655-0.26097-0.46922zm-66.275 0.34675c-0.00313 0.0032-0.00633 0.0064-0.0093 0.0098-7.408e-4 8.46e-4 -0.00135 0.0017-0.00206 0.0026-0.00206 0.0042-0.00362 0.0087-0.00568 0.01292 0.0013-0.0018 0.0023-0.0039 0.00362-0.0057 0.00457-0.0065 0.00894-0.0131 0.013435-0.01964zm69.387 0.47542c0.0029 0.03654 0.0058 0.07307 0.0093 0.10955 0.06992-0.02871 0.01804-0.0523-0.0093-0.10955zm0.03617 0.25528c-0.01363 0.0011-0.01463 0.01046 0.0088 0.02946 0.0033-0.0082 0.0057-0.01467 0.01085-0.02739-0.0077-0.0017-0.01466-0.0025-0.01963-0.0021zm0.07235 0.02481c0.0011 0.0072 0.0031 0.02063 0.0041 0.02687 0.0013 0.0076 0.0024 0.01518 0.0036 0.02274 0.01723 0.0093 0.0381 0.01977 0.0615 0.03101-0.0086-0.03535-0.03833-0.06245-0.06925-0.08062zm-4.2649 0.45475c-0.0019-0.0015-0.0029-0.0013-0.0021 0.0016 0.0038 0.01267 0.0087 0.02503 0.01394 0.03721 0.0011-0.0023 0.0024-0.0044 0.0036-0.0067 4e-3 -0.0079-0.0097-0.02751-0.01551-0.03204zm4.4659 0.75551c-0.0074 0.03427-0.01524 0.06847-0.02222 0.10284 3e-3 0.02411 0.0063 0.04824 0.0093 0.07235 0.0041-0.07418 0.0073-0.11889 0.01291-0.17518zm-1.4568 1.1415c0.0069 0.03898 0.01333 0.07789 0.02066 0.11679 5.29e-4 0.0028 0.0011 0.0055 0.0016 0.0083-0.0013-0.0098-0.0027-0.01963-0.0041-0.02946-6e-3 -0.03185-0.01217-0.06373-0.0181-0.0956zm-4.4002 1.0263c0.0024 0.0066 0.0057 0.01471 0.0026 0.0047-7.94e-4 -0.0016-0.0019-0.0031-0.0026-0.0047zm5.5862 0.2713c-0.0011 0.03775-0.0027 0.07541-0.0036 0.11317 0.01058 0.03606 0.02133 0.07199 0.03204 0.10801-0.0081-0.06806-0.01595-0.13609-0.02429-0.20412-0.0013-0.0057-0.0027-0.01138-0.0041-0.01707z" fill="#f00"/>
  </clipPath>
  <clipPath id="clipPath14242">
   <path d="m-14.431 55.624v10.307h23.009c-0.46354-0.96605-0.94708-1.9225-1.463-2.8618-0.16691-0.29849-0.33164-0.59794-0.49919-0.89607-0.02345-0.04172-0.04723-0.0834-0.070797-0.12506-0.085491-0.10411-0.17193-0.20796-0.25942-0.31058-0.032612-0.03825-0.059495-0.06847-0.0894-0.10335 0.00483 0.0141 0.00921 0.02834 0.01292 0.04289 0.035211 0.15447 0.025757 0.25705-0.10749 0.36742-0.020492 0.01699-0.048359 0.02114-0.072864 0.03152 0.0023 0.0071 0.00492 0.0141 0.00723 0.02119-0.010787 0.01058-0.02105 0.02156-0.031523 0.03255 0.00791 0.01347 0.015552 0.02706 0.02377 0.04031 0.00957 0.01543 0.053242 0.04036 0.03514 0.04186-0.045587 0.0037-0.091223 0.0042-0.13694 0.0036-0.075781 0.08564-0.15162 0.17191-0.24753 0.23203-0.030348 0.01902-0.034829-0.06274-0.049092-0.0956-0.018251-0.04205-0.033852-0.08513-0.049609-0.12816-0.043406 0.0549-0.091917 0.10544-0.14934 0.14676-0.023934 0.01426-0.047171 0.02994-0.07183 0.04289-0.049279 0.02593-0.10638 0.03359-0.16278 0.03566 0.2889 0.38144-0.092828 0.7248-0.67489 0.31213-0.025596-0.01815-0.051992-0.03531-0.076998-0.05426-0.026305-0.01995-0.052203-0.04041-0.078031-0.06098-0.00146 0.0026-0.00321 0.0049-0.00568 0.0072-5.292e-4 5.3e-4 -0.00101 0.0011-0.00156 0.0016 0.00346 0.0072 0.00124 0.0021 0.00517 0.01035 0.013713 0.02875 0.069911 0.07384 0.040824 0.08681-0.14239 0.06359-0.29076 0.12395-0.44338 0.15865-2.91e-4 1.35e-4 -7.408e-4 -1.3e-4 -0.00103 0-0.060978 0.02896-0.12294 0.05629-0.18448 0.08217-0.019246 0.0081-0.019061-0.02458-0.020672-0.05374-0.00206 9.3e-5 -0.00415 5.29e-4 -0.0062 5.29e-4 -0.056858 0.0024-0.040316-0.10596-0.060461-0.15916-0.029536-0.07802-0.058863-0.15609-0.088367-0.2341-0.010366 1.06e-4 -0.021376-0.0019-0.031523-0.0011-0.061285-0.06359-0.1259-0.12412-0.18397-0.19069-0.04753-0.05448-0.088431-0.10997-0.13229-0.16485 0.00206 0.0067 0.00241 0.0081 0.00465 0.01551 0.042746 0.1406 0.1001 0.32522 0.10077 0.47336 2.23e-4 0.04973-0.014097 0.09806-0.021188 0.14728-0.12613 0.08884-0.23196 0.2177-0.37827 0.26665-0.0666 0.02228-0.13762-0.03705-0.1974-0.0739-0.14267-0.08793-0.24786-0.37059-0.32091-0.51263-0.00512-0.01072-0.010379-0.02133-0.015503-0.03204-0.082096 0.01196-0.2093 0.02421-0.41703 0.06305-0.035733 0.0067-0.053202-0.05044-0.074931-0.07958-0.014627-0.01963-0.028938-0.04204-0.043408-0.06615 0.00282 0.01585 0.00604 0.03168 0.00878 0.04754 0.021057 0.25172 0.023224 0.12298-0.5519 0.14986-0.051447 0.07775-0.13045 0.1894-0.22583 0.16123-0.079138-0.02336-0.14427-0.04391-0.1974-0.06459-0.20296 0.03999-0.40844 0.06842-0.61237 0.10335-0.003305-0.01402-0.006417-0.02837-0.009818-0.04238-0.081123 0.04396-0.030045 0.04315-0.009818-0.04702v-5.29e-4c-0.011112-0.06425-0.017572-0.13002-0.026872-0.1943-0.004608-0.03185-0.005357-0.03612-0.007751-0.05168-0.008643 0.0046-0.017536 0.0097-0.025838 0.01497-0.054466 0.03553-0.085537 0.0965-0.14676 0.12454-0.14232-0.01794-0.294 2.56e-4 -0.42685-0.05374-0.10183-0.04148-0.10837-0.2466-0.097152-0.34468 0.007817-0.08636 0.01686-0.1725 0.028939-0.25838 0.009691-0.08344 0.021754-0.16681 0.027905-0.25063 0.007074-0.08048 0.017844-0.1604 0.035657-0.23926 0.010058-0.06021 0.020174-0.12004 0.020154-0.18138 0.003812-0.13147 0.003025-0.26332 0.006201-0.39481 0.003139-0.25623 0.01011-0.51222 0.014469-0.76843 0.005952-0.44548 0.014786-0.8909 0.021704-1.3364 0.002747-0.34778 0.008611-0.69579 0.020671-1.0433-0.013522-0.05246-0.026195-0.1051-0.037207-0.15813-0.028948-0.05739-0.057369-0.11495-0.086816-0.17208-0.20786-0.40327-0.064253-0.10957-0.23771-0.47129-0.10833-0.21986-0.085976-0.16431-0.16588-0.3607-0.022341-0.05491-0.047078-0.10906-0.065629-0.16537-0.012135-0.03683-0.041552-0.07749-0.026355-0.11317 0.044017-0.10334 0.083869-0.21855 0.14728-0.31161-0.033097-0.06726-0.06645-0.13488-0.095085-0.20412-0.018841-0.04556-0.031279-0.09321-0.044958-0.14056zm14.469 0c0.010707 0.01458 0.01554 0.02127 0.028422 0.03876 0.081217 0.11049 0.16238 0.22112 0.2434 0.33176 0.056574-0.02786 0.16739-0.02815 0.31006-0.02479-0.062411-0.14721-0.034814-0.2762 0.060461-0.34572zm1.0738 0c0.08168 0.03465 0.16997 0.08639 0.26252 0.15916 0.077505 0.06095 0.15128 0.12692 0.22221 0.19534 0.1323 0.12489 0.25133 0.26248 0.36587 0.4036 0.10749 0.13052 0.20563 0.2683 0.29972 0.40876-0.013969-0.0723-0.02785-0.1446-0.038241-0.21756-0.00145-0.01069-0.00311-0.02138-0.00465-0.03204-4.762e-4 -0.0033-3.492e-4 -0.0069-5.159e-4 -0.01035-9.128e-4 -0.0045-0.00238-0.01003-0.0031-0.01394-3.625e-4 4.5e-5 -6.88e-4 -4.2e-5 -0.00103 0-0.00384 5.29e-4 -0.00274-0.01191-0.00103-0.01138v-0.001058c-0.00707-0.04783 0.010246-0.04577 0.087333-0.04496-0.034231-0.10687-0.068891-0.21361-0.10335-0.3204-0.039072-0.16674-0.13971-0.33044-0.11731-0.50023 6.985e-4 -0.0053 0.00178-0.0099 0.00258-0.01497zm1.1017 0.8816c5.001e-4 0.0033 0.0014 0.0078 0.00207 0.01138 5.662e-4 -6.6e-5 9.843e-4 -5.29e-4 0.00155-5.29e-4 -6.059e-4 -0.0039-0.00184-0.0074-0.00362-0.01085zm5.5402-0.8816c0.03156 0.03397 0.062696 0.07349 0.093017 0.11834 0.010028-0.04698 0.028765-0.08685 0.053743-0.11834zm0.55862 0c0.095961 0.06592 0.19639 0.17256 0.29094 0.32711 0.00304 0.0049 0.00655 0.0097 0.00982 0.01447 0.024209 0.03632 0.049271 0.07234 0.066663 0.11266 0.015864 0.0384 0.031237 0.07726 0.038757 0.11834 0.00407 0.02421 0.00801 0.04829 0.00878 0.07286 0.00127 0.0016 0.00233 3e-3 0.00362 0.0047 0.00389 0.0046 0.00805 0.0088 0.011885 0.01344 0.00455 0.0055 0.00516 0.0069 0.00414 0.0062 0.00101 7.94e-4 -0.00325-0.0033 0.00723 0.0072 0.021958 0.02135 0.043574 0.04351 0.063045 0.06718 0.02957 0.03414 0.06373 0.06421 0.094051 0.09767 0.049797 0.05278 0.098107 0.10726 0.13591 0.1695 0.02432 0.03806 0.04673 0.07758 0.068213 0.11731 0.026125 0.05029 0.049705 0.10324 0.062528 0.15865 0.00634 0.02699 0.015004 0.05354 0.023254 0.0801 0.011954 0.03871 0.033825 0.07392 0.049609 0.1111 0.022916 0.04561 0.048147 0.08979 0.073897 0.13384 0.015322 0.02604 0.030121 0.05254 0.047026 0.07751 0.034612 0.05042 0.090304 0.08493 0.12919 0.13178 0.054248 0.05334 0.10826 0.10712 0.16175 0.16123 0.055549 0.05435 0.10988 0.10993 0.16433 0.16536 0.049319 0.05286 0.09487 0.10902 0.14263 0.1633 0.044141 0.04861 0.088604 0.09699 0.13022 0.14779 0.04088 0.04991 0.07945 0.10187 0.11524 0.15555 0.02795 0.04136 0.05538 0.08278 0.08837 0.12041 0.04541 0.05412 0.09097 0.10837 0.13539 0.1633 0.04326 0.0531 0.08673 0.10575 0.13022 0.15865 0.04604 0.05596 0.09082 0.11301 0.13488 0.17053 0.04234 0.05591 0.08196 0.11396 0.1204 0.1726 0.03576 0.05272 0.07166 0.10572 0.10387 0.16072 0.02341 0.04107 0.04561 0.08275 0.06459 0.12609 0.01855 0.04262 0.03609 0.08575 0.05116 0.12971 0.01774 0.05309 0.03353 0.10675 0.05013 0.1602 0.0093 0.03107 0.01665 0.06211 0.03101 0.09147 0.01782 0.04644 0.0489 0.08771 0.0677 0.13384 0.02609 0.05141 0.05531 0.1007 0.08268 0.15141 0.02687 0.0494 0.05345 0.09877 0.07906 0.14883 0.02559 0.04603 0.05197 0.09199 0.07855 0.13746 0.02776 0.04814 0.05183 0.09812 0.07751 0.14728 0.02032 0.03711 0.03922 0.07496 0.0584 0.11265 0.01537 0.0278 0.03029 0.05579 0.04806 0.08217 0.02013 0.03113 0.04065 0.06154 0.06253 0.09147 0.02548 0.0354 0.05076 0.07139 0.07597 0.10697 0.0178 0.02447 0.03495 0.04914 0.05374 0.07286 0.01823 0.02294 0.03661 0.04563 0.05529 0.06821 0.01951 0.02278 0.03874 0.04606 0.05839 0.06873 0.02556 0.03021 0.05077 0.06062 0.07493 0.09199 0.0097 0.01196 0.0261 0.03317 0.02791 0.03617 0.01467 0.0163 0.02391 0.02657 0.03772 0.03927 0.04022 0.0416 0.07739 0.08635 0.10335 0.13849 0.0153 0.03192 0.02961 0.06444 0.04186 0.09767 0.01382 0.03721 0.02721 0.07435 0.03772 0.11266 9e-3 0.02892 0.01717 0.05813 0.02687 0.08682 0.01694 0.0553 0.03112 0.11132 0.04289 0.16795 0.12298 0.59175-0.17759 0.84594-0.42168 0.67334 0.0033 0.37878-0.42119 0.4426-0.75654-0.12454-0.02407-0.0407-0.04867-0.08124-0.07183-0.12247-0.0412-0.07218-0.08005-0.14552-0.12041-0.21807-0.0074 3e-3 -0.0099 0.0035-0.01757 0.0067l0.0036 0.0093c0.12909 0.33206 0.09426 0.57207-0.01137 0.68574 0.19259 0.25934 0.38864 0.51612 0.57878 0.77721 0.04795 0.06376 0.09744 0.12655 0.14418 0.1912 0.02316 0.03204 0.09002 0.06758 0.06563 0.0987-0.09394 0.11986-0.22565 0.21072-0.36174 0.27905-0.02629 0.0132-0.0353-0.04708-0.05271-0.0708-6.61e-4 -7.94e-4 -0.0014-0.0016-0.0021-0.0026-0.0062-0.0019-0.01018-0.0093-0.01344-0.0186-0.05345-0.07341-0.10572-0.14762-0.15968-0.22066-0.37203-0.50845-0.75223-1.0113-1.1426-1.5059-0.033964-0.04229-0.068319-0.08434-0.10232-0.12661 0.026842 0.04531 0.053772 0.0906 0.080615 0.13591 0.10129 0.16021 0.20269 0.32038 0.30231 0.48163 0.06569 0.10631 0.20525 0.19834 0.19069 0.32246-5.03e-4 0.0042-0.0014 0.0082-0.0021 0.01241 0.01585 0.02474 0.01405 0.02241 0.03876 0.06098 0.02363 0.03688 0.1131 0.09736 0.07131 0.11059-0.06819 0.02159-0.14239 0.04145-0.21652 0.05116-0.04951 0.06257-0.10916 0.11928-0.16743 0.16898-0.03339 0.02848-0.03959-0.07868-0.05943-0.11782-0.0059-0.01169-0.0041-0.0078-0.0093-0.0181-0.02509 0.0037-0.05031 0.0066-0.07596 0.0088-0.055771 0.08936-0.13313 0.16888-0.21342 0.23203-0.042979 0.0338-0.059779-0.09178-0.087333-0.13901-0.088258-0.15188-0.23477-0.43223-0.30696-0.56844-0.013412-0.02492-0.02739-0.04955-0.040824-0.07441-1.791e-4 2.64e-4 -3.44e-4 0.0011-5.292e-4 0.0016-0.01456 0.03142-0.028854 0.06823-0.058395 0.0863-0.071213 0.04357-0.15032 0.08079-0.23306 0.09199-0.041714 0.0056-0.078475-0.03001-0.11782-0.04496-0.03091-0.031-0.064478-0.05938-0.092501-0.09302-0.013303-0.01598-0.020598-0.03598-0.030489-0.05426-0.012674-0.02344-0.02499-0.04712-0.037207-0.0708-0.054255-0.10653-0.10665-0.21296-0.1633-0.31781-0.045026-0.08551-0.091009-0.1705-0.13643-0.2558-0.026397-5.3e-5 -0.052691 2.49e-4 -0.079065-0.0016-0.012208-7.94e-4 -0.013216-0.02061-0.019637-0.03101-0.0434-0.07035-0.082572-0.14318-0.12351-0.21497-0.044944-0.07982-0.089653-0.15983-0.13436-0.23978 3.968e-4 0.0016 0.00164 0.0056 0.00206 0.0072 0.08821 0.25317 0.1704 0.50854 0.24391 0.76636 0.017865 0.10613 0.034731 0.17933-0.042374 0.17983 0.00679 0.05521 0.012724 0.1104 0.011885 0.16588-5.292e-4 0.03428-0.01928 0.0658-0.028939 0.0987-0.076204 0.01958-0.15187 0.0436-0.22789 0.06408 0.10888 0.16843 0.21593 0.33833 0.32039 0.50953 0.055872 0.09157 0.10836 0.18506 0.16278 0.2775 0.052494 0.08917 0.10759 0.17687 0.15813 0.26717 0.035567 0.06354 0.066743 0.12914 0.10025 0.19379 0.01991 0.0425 0.19025 0.32238 0.085266 0.40101-0.24531 0.18374-0.31017 0.15192-0.42788 0.02585-0.069823-0.075238-0.10499-0.12555-0.16992-0.20984-0.16901-0.22174-0.33706-0.44436-0.5054-0.66663 0.31404 0.60283 0.62093 1.2093 0.93173 1.8138 0.093159 0.17283 0.16187 0.29977 0.22531 0.41703h54.702c-0.0077-0.03835-0.0096-0.05282-0.01344-0.07286-0.0044-0.02162-7e-3 -0.04378-0.0098-0.06563-0.06228-0.48222 0.05804-0.78655 0.231-0.89658 0.01714-0.07828 0.05325-0.15836 0.11369-0.23564 0.03156-0.0344 0.06507-0.06689 0.09922-0.0987 0.02466-0.02785 0.04897-0.05619 0.0708-0.0863 0.03508-0.05749 0.07295-0.11296 0.11731-0.16382 0.04313-0.05207 0.08561-0.10444 0.12867-0.15658 0.0705-0.08392 0.14152-0.16802 0.21704-0.24753 0.05899-0.06048 0.11601-0.12252 0.17053-0.18707 0.042-0.04801 0.08446-0.09556 0.12919-0.14108 0.02745-0.02666 0.05413-0.05403 0.08062-0.08165 0.02855-0.03332 0.05521-0.06792 0.08371-0.10128 0.03734-0.04683 0.07653-0.09235 0.11472-0.13849 0.04248-0.04846 0.08341-0.09802 0.12557-0.14676 0.02627-0.03226 0.05023-0.0668 0.07493-0.10025 0.04631-0.06804 0.09187-0.13605 0.14108-0.20205 0.05373-0.06974 0.10737-0.14047 0.1695-0.20309 0.04602-0.049 0.09408-0.09546 0.14573-0.13849 0.05741-0.05289 0.11677-0.10335 0.18293-0.14521 0.06187-0.03987 0.12334-0.08008 0.18655-0.11782 0.08234-0.05125 0.16138-0.10784 0.23461-0.17157 0.10259-0.09311 0.20427-0.18737 0.30386-0.2837 0.10425-0.09803 0.20889-0.19594 0.31058-0.29662 0.03608-0.03619 0.0724-0.07188 0.10904-0.10749-0.0232-0.03804-0.04326-0.07964-0.0615-0.12816-0.03917-0.13098-0.03751-0.25808-0.0052-0.38964 0.06403-0.20696 0.20989-0.32099 0.41238-0.37517 0.0694-0.01114 0.13768-0.0176 0.20464-0.03876 5e-3 -0.0021 0.01-0.0041 0.01498-0.0062 0.07972-0.08682 0.16092-0.17251 0.23461-0.26458 0.06483-0.08062 0.12617-0.16363 0.18449-0.24908 0.08324-0.11441 0.17385-0.2228 0.27389-0.32298 0.09378-0.0975 0.18666-0.19565 0.2744-0.29869 0.05695-0.06063 0.11423-0.12112 0.17156-0.18138 0.01341-0.02687 0.02652-0.05391 0.04031-0.08062 0.04628-0.09704 0.10309-0.18796 0.16071-0.27854 0.02736-0.04247 0.05275-0.08629 0.07855-0.12971 0.03905-0.06073 0.0823-0.1186 0.12506-0.17673 0.02471-0.03179 0.04678-0.06537 0.0677-0.09974 0.0441-0.06455 0.09563-0.1233 0.14831-0.18087 0.01667-0.01722 0.02944-0.03787 0.04237-0.05788 0.02286-0.03503 0.04563-0.0697 0.06563-0.10645 1.51e-4 -2.65e-4 0.01196-0.02334 0.01188-0.02379-0.0013-0.0052-0.01461 0.03492-0.0062 0.0062 0.0094-0.02964 0.02008-0.0589 0.02997-0.08837 0.24011-0.7139 0.68354-0.85214 0.87592-0.57154 0.06693-0.0968 0.13408-0.19347 0.20981-0.2837 0.0993-0.11537 0.1897-0.20589 0.33435-0.2682 0.03558-0.01532 0.07393-0.02878 0.11266-0.0279 0.09326 0.0021 0.18506 0.02479 0.2775 0.03721 0.04335 0.03203 0.09466 0.05574 0.13591 0.08992 0.01791-0.06318 0.03794-0.10704 0.06098-0.11679 0.05911-0.02503 0.11273-0.04473 0.16381-0.06201 0.0199-0.02119 0.0406-0.04177 0.06149-0.06201 0.0089-0.03945 0.01794-0.07888 0.02687-0.11834 0.07145-0.31985 0.08291-0.38357 0.1602-0.68368 0.01349-0.05239 0.02845-0.11683 0.04754-0.18242zm65.494 0c0.03104 0.17937 0.04983 0.3606 0.06666 0.5426 0.0021 0.02429 0.0026 0.03201 0.0047 0.05323 0.02053-0.19866 0.04074-0.39733 0.06253-0.59583zm1.1545 0c-0.0085 0.25682-0.01669 0.51366-0.02479 0.7705 0.01669-0.0089 0.03306-0.01818 0.04961-0.02739 0.04833-0.22405 0.09625-0.44818 0.14934-0.67128 0.0057-0.02389 0.01109-0.0479 0.01654-0.07183zm3.945 0c0.03546 0.1814 0.07652 0.39607 0.08733 0.45527 0.02267 0.12406 0.04495 0.24793 0.06718 0.37207 0.01019-0.02257 0.01844-0.04198 0.03152-0.06976 0.03386-0.07195 0.06301-0.1465 0.10594-0.21342 0.03168-0.0494 0.05818-0.14069 0.11627-0.13229 0.7703 0.1109 0.73054 0.0091 0.77514 0.3452 0.0016 0.16525-0.01725 0.32934-0.04703 0.49196-0.04681 0.26176-0.10641 0.5217-0.18914 0.77463-0.06248 0.18781-0.12688 0.37684-0.21187 0.55604-0.02883 0.0608-0.05364 0.12488-0.09457 0.17828-0.07224 0.09428-0.13541 0.20875-0.24184 0.26148-0.04307 0.02135-0.08969 0.03199-0.13746 0.03824-0.05907 0.16893-0.11752 0.33791-0.17622 0.50695-0.13289 0.32794-0.19183 0.68951-0.37362 0.99684-0.03364 0.05688-0.06123 0.12338-0.11576 0.16071-0.11722 0.08024-0.25654 0.12126-0.38499 0.1819-0.10803-0.02585-0.23147-0.01609-0.32401-0.07751-0.05148-0.03417-0.09708-0.0737-0.13746-0.11782-0.03963 0.06558-0.07943 0.13105-0.12609 0.19172-0.01974 0.02566-0.04194 0.04921-0.06459 0.07234-0.14785 0.50058-0.29505 1.0014-0.44545 1.5012-0.11537 0.39254-0.23411 0.78401-0.34726 1.1772-0.05051 0.17544-0.09182 0.35334-0.1478 0.5271-0.02032 0.06312-0.04724 0.12404-0.0708 0.18603-0.2426 0.3655-0.17973 0.38266-0.92811-0.20981-0.08044-0.06368-0.02347-0.20389-0.02635-0.30644-0.0055-0.19436 0.0021-0.38898 0.0011-0.58343-0.0013-0.26435-0.0026-0.32062-0.0036-0.42168-0.27888-0.02381-0.5597-0.03299-0.83509-0.08216-0.02434-0.0043-2.65e-4 -0.04969 5.29e-4 -0.07441 0.0016-0.05271 0.0042-0.10494 0.0067-0.15762-0.05085-0.0013-0.10129-0.0046-0.15193-0.0098-0.02447 0.09547-0.05572 0.21613-0.11937 0.45992-0.04822 0.1847-0.0915 0.37045-0.14573 0.55346-0.03498 0.11805-0.24584 0.73088-0.32969 0.78755-0.1671 0.1129-0.39619 0.07584-0.59428 0.11369-0.08447-0.15108-0.19116-0.29181-0.25373-0.4532-0.01923-0.0496 0.01061-0.10572 0.01601-0.15865 0.0016-0.01672 0.0034-0.03341 0.0052-0.05013-0.0016 0.0055-3e-3 0.01103-0.0047 0.01654-0.14852 0.53613-0.62092 0.51303-0.90899 0.12299-0.07693-0.10416-0.03981-0.25591-0.04961-0.38499-0.01217-0.16063 0.01463-0.62709 0.01913-0.73174 0.0032-0.09505 7e-3 -0.19021 0.01035-0.28526-0.01532-0.0051-0.0301-0.01161-0.04444-0.0186-0.01122 0.01392-0.02283 0.02749-0.03411 0.04134-0.08871 0.17733-0.18835 0.34955-0.29145 0.51883-0.16532 0.26926-0.3449 0.52958-0.5364 0.78083-0.09557 0.12281-0.19137 0.24742-0.30696 0.35243-0.02471 0.02244-0.04414 0.06447-0.07751 0.06356-0.21752-0.0059-0.43168-0.05544-0.6475-0.0832-0.02652-0.06305-0.06257-0.12344-0.08888-0.18655-0.29942-0.12999-0.47304-0.17004-0.55862-0.20154-0.08838 0.07649-0.17784 0.15165-0.26975 0.22376-0.18802 0.1461-0.38132 0.28527-0.57826 0.41909-0.1876 0.12516-0.38161 0.24016-0.57412 0.3576-7.94e-4 0.0031-0.0016 0.0062-0.0026 0.0093-0.04136 0.13144-0.09759 0.25497-0.17312 0.37052-0.0618 0.09319-0.12952 0.18174-0.20774 0.262-0.10444 0.1035-0.22117 0.18726-0.36794 0.21756-0.06683 0.01238-0.13431 0.02085-0.20205 0.02585-0.08354 0.0083-0.16681 0.01318-0.25063 0.01757-0.05769 0.0044-0.11534 0.0105-0.1726 0.0186-0.0983 0.0552-0.19913 0.11311-0.30438 0.154-0.03293 0.01281-0.07575 0.05542-0.10128 0.03101-0.03757-0.03595-0.07305-0.06882-0.10645-0.09922-0.02455 3e-3 -0.04874 0.0064-0.07338 0.0088-0.19473 0.02426-0.39064 0.03616-0.58498 0.06356-0.2146 0.0347-0.42692 0.09002-0.64544 0.09302-0.13269-0.0047-0.26534-0.01556-0.39584-0.04082 0.0086 0.04662 0.01603 0.09574 0.0217 0.14728v5.29e-4c2.2e-4 0.0013 1.27e-4 0.0032 5.29e-4 0.0036 1.24e-4 7.94e-4 -2.65e-4 -0.0024 5.29e-4 0.0036 0.0016 0.0083 0.0047 0.02582 0.0072 0.04031 0.0075 0.02236 0.01659 0.04904 0.0186 0.05736 0.0109 0.04767 0.01963 0.09525 0.02223 0.14418 5.2e-5 5.29e-4 -5.1e-5 0.0011 0 0.0016h18.364v-10.307zm-79.662 0.05374c-0.003736 0.0016 0.004794 0.02801 0.013436 0.03256 0.014604 0.0077 0.029998 0.01818 0.045475 0.02842-0.017514-0.02125-0.035218-0.04245-0.056327-0.05995-0.001074-7.94e-4 -0.002051-0.0013-0.002585-0.0011zm5.8725 0.08062c0.00116 0.0024 0.00243 0.0045 0.00362 0.0067l5.292e-4 -5.3e-4c-0.00127-0.0019-0.00282-0.0043-0.00414-0.0062zm-5.888 0.65216c-0.00208-0.0019-0.002514-0.0016 0 0.0021 0.01556 0.02307 0.035407 0.04271 0.053227 0.06408 0.001529 2.64e-4 0.002622 7.94e-4 0.004134 0.0011-0.006908-0.0085-0.013673-0.01744-0.020671-0.02585-0.008623-0.01037-0.030449-0.03559-0.03669-0.04134zm79.948 0.0062c-0.0011 3e-3 -0.0031 0.01492-0.0041 0.01963-5.29e-4 0.03107-5.29e-4 0.05414 0 0.07442 0.0031-0.03148 0.0052-0.06299 0.0047-0.09354zm-78.018 0.08476c0.00647 0.01588 0.013278 0.03162 0.019637 0.04754 0.036935 0.09246 0.071831 0.18546 0.10852 0.27802 0.015291-0.0063 0.030534-0.01281 0.045992-0.0186 0.049259-0.01852 0.15245 0.27176 0.16226 0.30075 0.049203 0.13628 0.098601 0.27248 0.14779 0.40876 0.00164-0.02252 0.00665-0.04048 0.016536-0.05116 0.058162-0.062834 0.11174-0.11176 0.16123-0.14832-0.11809-0.17377-0.23719-0.34704-0.37259-0.50798-0.092047-0.10725-0.18663-0.21195-0.28939-0.30902zm69.716 0.67592c-0.0019 4e-3 -0.0033 0.03664-0.0041 0.06098 0.0026-0.01662 0.0057-0.03394 0.0057-0.03721-5.3e-5 -0.01924-7.94e-4 -0.02561-0.0016-0.02376zm-70.213 0.25735c0.007199 0.01363 0.014494 0.02721 0.021704 0.04082 0.002921-1.1e-5 0.005952-5.29e-4 0.008785-5.29e-4 -0.01018-0.01344-0.020294-0.02688-0.030489-0.04031zm1.0635 0.30127c-0.00308 0.0021 0.00485 0.02389 0.011369 0.04237 2.403e-4 7.94e-4 2.752e-4 0.0013 5.159e-4 0.0021 0.00381-0.0038 0.00756-0.0076 0.011369-0.01138-0.00677-0.01161-0.015062-0.02558-0.018087-0.02946-0.00238-3e-3 -0.00415-0.0043-0.00517-0.0036zm3.2711 0.91364c3.704e-4 7.94e-4 0.00114 0.0016 0.00156 0.0026 2.096e-4 5.29e-4 3.175e-4 0.0011 5.292e-4 0.0016 0.00528 0.0062 0.021124 0.02519 0.024805 0.02946 0.040419 0.0468 0.02888 0.03268-0.026872-0.03359zm0.27854 0.32608c0.00135 0.0043 0.00273 0.0086 0.00414 0.01291 0.00308 0.0036 0.00621 0.0072 0.0093 0.01085-0.00443-8e-3 -9e-3 -0.0158-0.013435-0.02379zm0.4346 2.0841c0.00279 6e-3 0.00554 0.01204 0.00827 0.0181 0.00736-0.0049 0.014928-0.0093 0.02222-0.01447-0.011615-0.0011-0.020418-0.0024-0.030489-0.0036zm-0.48007 0.21601c-3.704e-4 7.94e-4 -6.614e-4 0.0013-0.00103 0.0021 0.00271 0.01087 0.00525 0.02175 0.00827 0.03256 0.00414-0.0046 0.00851-0.0088 0.01292-0.01291-9.79e-4 -0.0027-0.00159-0.0056-0.00259-0.0083-0.00588-0.0044-0.011732-0.0089-0.017571-0.01344zm6.2792 0.32659c0.02815 0.04981 0.05558 0.0998 0.0832 0.14986-0.0027-0.0087-0.0063-0.01709-0.0088-0.02585-0.0072-0.01974-0.01034-0.04154-0.01964-0.06046-9.26e-4 -0.0021-2.91e-4 -2.48e-4 -0.0047-0.01035-0.01594-0.0163-0.03213-0.0328-0.04754-0.04961-9.79e-4 -0.0011-0.0016-0.0024-0.0026-0.0036zm-9.6128 0.64286c-1.268e-4 0.0047-3.731e-4 0.0073-5.159e-4 0.01241 0.00163 0.0081 0.00309 0.0319 0.00465 0.02376 0.00201-0.01045-0.00234-0.02096-0.00362-0.03152-1.874e-4 -0.0016-3.254e-4 -0.0029-5.159e-4 -0.0047zm1.2599 0.21497c0.00212 0.0031 0.00292 0.0043 0.00517 0.0078 0.01501 0.02167 0.023768 0.05117 0.047025 0.06356 0.018944 0.01008-0.015214-0.04316-0.032556-0.05581-0.00641-0.0047-0.01297-0.01016-0.019637-0.0155zm4.7206 0.43925c-9.26e-4 0.0019-0.00164 0.0038-0.00259 0.0057l5.292e-4 5.29e-4c0.0023 0.0016 0.00259-0.0019 0.00206-0.0062zm67.798 0.60616c-0.0105-1.51e-4 -0.01746 0.02656-0.04082 0.10387 0.01402-0.01929 0.03306-0.03571 0.04186-0.05788 0.0047-0.01191 0.0087-0.0241 0.01291-0.03617-0.0056-0.0058-0.01021-0.0098-0.01394-0.0098zm-9.4718 0.93483c-0.01199 0.0087-0.02363 0.01773-0.03566 0.02635-0.02418 0.01585-0.04888 0.03112-0.0739 0.04547 0.01527-0.0019 0.03026-0.0042 0.04548-0.0062 0.02138-0.0218 0.04264-0.04387 0.06408-0.06563z" fill="#f00"/>
  </clipPath>
 </defs>
 <circle cx="39.688" cy="39.688" r="35.089" fill="#78d1e2" style="paint-order:stroke markers fill"/>
 <g fill="#357a85">
  <path d="m-17.923 20.726c4.8418 0.78748 9.1152 1.4508 14.199 2.8099 2.7912 0.74621 9.5287 3.835 12.311 5.3672 5.2775 2.9068 9.4206 6.7973 15.686 7.0754 3.9007 0.17314 7.6955-1.2289 10.723-3.7823 0.81959-0.69129 2.7379-3.0683 3.685-3.3193 1.0644-0.28208 2.2417-1.0063 3.357-1.2075 0.75216-0.1357 1.7117-0.14428 2.4673-0.23802 1.7528-0.21744 3.0159 0.28732 4.6516 0.82728 0.51932 0.49642 1.1633 0.10088 1.7271 0.24238 1.1812 0.29642 2.3518 0.70828 3.5297 0.96516 0.25127 0.05479 0.46734 0.2148 0.70101 0.3222 0.31785 0.11756 0.62175 0.28371 0.95355 0.35268 1.8438 0.38328 3.8695 0.26178 5.746 0.59216 3.0838 0.54295 7.0845 1.7823 10.126 1.9521 3.9631 0.2212 7.9474 0.02823 11.914 0.12192 3.6365 0.08588 6.709 0.03365 10.325-0.24383 0.79206-0.06078 1.5941 0.09228 2.3832 0 1.851-0.21648 3.402-1.4698 5.1625-1.8302 0.51852-0.10613 1.0693 0.10614 1.5878 0 2.7063-0.55401 1.1162-0.71369 3.1771-1.0972 1.1963-0.22265 2.8444-0.23367 4.045-0.23367" clip-path="url(#clipPath13975)" opacity=".57401" style="paint-order:stroke markers fill"/>
  <path d="m-14.431 63.045c5.7737-2.5464 11.69-4.4347 17.792-6.1161 0.99559-0.27431 1.9517-0.7403 2.9782-0.85341 1.5792-0.17402 3.1786 0.05849 4.7663 0 6.9052-0.25436 13.96-0.93626 20.849 0.12192 8.5433 1.3123 16.114 5.6243 24.026 8.7823 1.6824 0.6715 3.9877 1.1771 5.8374 0.8476 3.0954-0.55146 11.89-3.952 14.097-6.2206 1.3932-1.4322 2.869-2.2104 4.8882-2.2104 0.99345 0 0.59338 0.04548 1.836-0.23802 0.11444-0.02611 0.45404-0.09934 0.33672-0.10305-1.1999-0.03787-2.401 0-3.6015 0" clip-path="url(#clipPath14242)" opacity=".57401" style="paint-order:stroke markers fill"/>
  <path d="m-22.617 10.927c10.098-0.80589 20.326-0.43396 30.474-0.43396 3.3951 0 6.9601-0.28599 10.325 0.24383 5.274 0.83039 9.6715 2.1667 14.694 3.537 2.3258 0.63456 4.5309-0.15999 6.8113-0.35994 1.5248-0.1337 3.2386-0.21033 4.7663-0.24383 4.2964-0.0942 8.7965 0.44039 13.077 0 3.3212-0.34171 6.4452-1.6472 9.6879-2.312 2.4564-0.50364 4.8588-0.60736 7.3164-0.94775 0.61575-0.08528 1.255-0.45283 1.8447-0.45283" clip-path="url(#clipPath13588)" opacity=".57401" style="paint-order:stroke markers fill"/>
 </g>
 <circle cx="39.688" cy="39.688" r="66.526" display="none" fill="none" stroke="#000" stroke-linecap="square" stroke-linejoin="round" stroke-width="62.761" style="paint-order:stroke markers fill"/>
 <g fill="#519fad" stroke-linecap="square" stroke-linejoin="round">
  <g stroke-width=".35507">
   <path d="m58.659 10.169c0.64579 0.41503 1.278 0.85127 1.8951 1.3078 0.55419 0.4099 1.0963 0.83614 1.6254 1.278" style="paint-order:stroke markers fill"/>
   <path d="m20.209 10.502c-0.0052 3e-3 -0.01022 0.0063-0.01499 0.01001-0.03388 0.02603-0.05364 0.06657-0.06571 0.10756-0.01207 0.04099-0.01761 0.08367-0.0296 0.12468-0.03465 0.11855-0.12563 0.21927-0.24005 0.26576-0.11442 0.04648-0.24987 0.03775-0.35738-0.02305" style="paint-order:stroke markers fill"/>
   <path d="m9.0913 22.51c-0.49344 0.8789-0.94898 1.7791-1.3649 2.6972-0.41111 0.90739-0.78355 1.8323-1.116 2.7714" style="paint-order:stroke markers fill"/>
   <path d="m72.2 26.497c0.45879 1.118 0.85631 2.2612 1.1902 3.4227 0.31468 1.0947 0.57282 2.2057 0.77305 3.327" style="paint-order:stroke markers fill"/>
   <path d="m72.309 26.761c-0.31589 1.0789-0.31973 2.2473-0.01093 3.3283 0.29995 1.05 0.89356 2.0145 1.6958 2.7553" style="paint-order:stroke markers fill"/>
   <path d="m72.309 26.761c-0.27843-0.13512-0.60542-0.16727-0.90484-0.08896-0.29941 0.07831-0.5688 0.26643-0.74543 0.52056-0.15846 0.228-0.24148 0.50471-0.25194 0.78217-0.01046 0.27746 0.04985 0.5554 0.15842 0.81095 0.21714 0.5111 0.61748 0.92296 1.0489 1.2726 0.43142 0.34965 0.90205 0.64982 1.3216 1.0136 0.41958 0.36376 0.79421 0.80529 0.95948 1.3354 0.0087 0.0279 0.0168 0.05598 0.02429 0.08423" style="paint-order:stroke markers fill"/>
   <path d="m69.68 57.873c-0.82031 1.3655-1.7354 2.6741-2.7365 3.9132-1.0349 1.2809-2.1616 2.4875-3.3688 3.6075" style="paint-order:stroke markers fill"/>
  </g>
  <g stroke-width=".086894">
   <path transform="scale(.26458)" d="m240.84 246.3c9.8e-4 -0.15354 0.36822-0.75033 0.54944-0.89287 0.0916-0.072 0.2127-0.2665 0.26913-0.4321 0.0598-0.17537 0.24327-0.45465 0.43951-0.66884 0.18531-0.20226 0.49751-0.58628 0.69379-0.85337 0.45118-0.61395 1.0212-1.2815 2.1267-2.4908 1.2455-1.3623 2.0719-2.351 2.6782-3.2041 0.48382-0.68081 1.6555-1.9456 1.8024-1.9456 0.0342 0-0.18253 0.29866-0.48166 0.66368-0.29913 0.36503-2.1849 2.6887-4.1905 5.1638-3.9746 4.9048-3.8879 4.8008-3.887 4.6602z" style="paint-order:stroke markers fill"/>
   <path transform="scale(.26458)" d="m226.66 249.08c-4.0681-0.26901-8.7535-1.266-13.079-2.7833-2.9059-1.0192-11.061-4.4427-20.671-8.6779l-1.084-0.47774 0.0157-7.2836 0.0157-7.2837 11.364-0.72524c6.2499-0.39888 22.348-1.4265 35.774-2.2836 13.426-0.85709 24.463-1.5581 24.526-1.5578 0.0973 4.2e-4 0.10409 0.022 0.0429 0.13632-0.04 0.0747-0.12843 0.29785-0.19656 0.49587-0.0681 0.19801-0.3671 0.72692-0.66437 1.1754-0.29728 0.44842-0.93082 1.4272-1.4079 2.175-4.1865 6.5629-9.1305 12.896-14.759 18.907-1.3796 1.4732-5.4919 5.5671-5.5419 5.5171-0.0236-0.0236 7.6161-9.5019 8.7746-10.886 0.0591-0.0706-0.036-0.0302-0.2195 0.0933-0.50508 0.33996-1.5096 1.3908-2.0078 2.1004-0.56011 0.79772-1.6129 2.0645-2.5474 3.0651-0.90425 0.96824-1.6659 1.8511-2.1314 2.4707-0.20193 0.26879-0.51737 0.65026-0.70097 0.84771-0.32436 0.34885-0.60901 0.80924-0.60901 0.98501 0 0.0476-0.11419 0.19807-0.25375 0.33435-0.26444 0.25822-0.57759 0.86551-0.60269 1.1688-0.0274 0.33073-0.37557 0.51649-1.6425 0.87622-2.4364 0.6918-4.966 1.2583-6.4858 1.4525-1.7638 0.22534-3.9931 0.28519-5.9076 0.15859zm28.001-19.567c0.45451-0.56292 0.81057-1.0393 0.79125-1.0586-0.0517-0.0517-0.49006 0.0991-0.79574 0.27386-0.55158 0.31527-0.90509 0.89887-0.97401 1.608-0.0464 0.4771-0.12436 0.5427 0.9785-0.82323z" style="paint-order:stroke markers fill"/>
   <path transform="scale(.26458)" d="m253.75 230.22c0.10926-0.76962 0.59871-1.3687 1.3287-1.6262 0.14284-0.0504 0.25971-0.0779 0.25971-0.0611 0 0.0328-1.382 1.7446-1.5389 1.9062-0.0829 0.0853-0.0889 0.0587-0.0495-0.21888z" style="paint-order:stroke markers fill"/>
   <path transform="scale(.26458)" d="m253.79 230.27c0-0.282 0.27666-0.87571 0.52275-1.1218 0.25345-0.25345 0.7321-0.53742 0.84335-0.50033 0.0338 0.0113-0.21934 0.36989-0.56253 0.79696-0.81405 1.013-0.80357 1.0023-0.80357 0.82516z" style="paint-order:stroke markers fill"/>
   <path transform="scale(.26458)" d="m253.81 230.12c0.0576-0.38455 0.33457-0.87845 0.61701-1.1003 0.27835-0.21865 0.63718-0.40794 0.72061-0.38013 0.0543 0.0181-1.0235 1.4258-1.2794 1.671-0.0915 0.0877-0.0972 0.0693-0.0582-0.19057z" style="paint-order:stroke markers fill"/>
   <path transform="scale(.26458)" d="m253.81 230.11c0.0586-0.36669 0.34023-0.86692 0.61594-1.0942 0.25628-0.21125 0.62694-0.40175 0.72079-0.37047 0.0607 0.0202-1.266 1.7362-1.3423 1.7362-0.0208 0-0.0183-0.12218 6e-3 -0.2715z" style="paint-order:stroke markers fill"/>
  </g>
  <g stroke-width=".35507">
   <path d="m8.6134 55.966c0.55379 1.0676 1.1641 2.1059 1.8274 3.1091 0.51682 0.7816 1.0658 1.5419 1.6452 2.2783" style="paint-order:stroke markers fill"/>
   <path d="m12.086 61.353 0.12301 0.065" style="paint-order:stroke markers fill"/>
   <path d="m12.086 61.353c0.19341 0.03124 0.39591 0.0037 0.57394-0.07808 0.17803-0.08177 0.33088-0.21743 0.43321-0.3845 0.10408-0.16992 0.15509-0.36872 0.1682-0.56755 0.01312-0.19883-0.01032-0.39847-0.0467-0.59438-0.18706-1.0073-0.72891-1.9451-1.5082-2.6103s-1.7906-1.053-2.8148-1.0795" style="paint-order:stroke markers fill"/>
   <path d="m9.2015 56.991c0.64729 0.14017 1.2557 0.45585 1.743 0.90439 0.46624 0.42917 0.82071 0.97873 1.0194 1.5805 0.1987 0.60174 0.24118 1.2543 0.12218 1.8767" style="paint-order:stroke markers fill"/>
  </g>
 </g>
</svg>
