<?xml version="1.0" encoding="UTF-8"?>
<!-- Created with Inkscape (http://www.inkscape.org/) -->
<svg width="200" height="200" version="1.1" viewBox="0 0 79.375 79.375" xmlns="http://www.w3.org/2000/svg">
 <defs>
  <clipPath id="clipPath14704">
   <path d="m4.4907-46.508v41.197c0.22362-0.11385 0.6271-0.094418 0.7767-0.1018 0.65626 0.08154 1.2836 0.317 1.8903 0.57102 0.11874 0.049181 0.23925 0.094165 0.35605 0.14779 0.51874 0.23818 1.0255 0.50499 1.5358 0.76016 0.39592 0.19796 0.79468 0.3907 1.1906 0.58859 0.36251 0.17794 0.72715 0.35146 1.0924 0.52348 0.29134 0.033949 0.58456 0.048529 0.87746 0.062012 0.2075 0.00798 0.4151 0.00871 0.6227 0.010853 0.15457-2e-4 0.30898 6.614e-4 0.46354 0.00206 0.12058 1.3e-4 0.24118-0.00243 0.36174-0.00414l0.03721-0.00103c1.8367-0.038256 2.4119 0.98367 1.7265 1.6092 0.0819 0.15798 0.13959 0.32654 0.16743 0.50074 0.0196 0.021491 0.0395 0.042914 0.05943 0.064079 0.12939 0.15229 0.24378 0.31642 0.35037 0.48576 0.08746-0.047477 0.17479-0.09515 0.262-0.14314 0.48844-0.28373 0.97502-0.57169 1.4717-0.84078 0.34366-0.19117 0.69478-0.36791 1.0387-0.55862 0.21437-0.11736 0.4322-0.22975 0.66094-0.31678 0.42963-0.16346 0.80727-0.23514 1.125-0.23823 1.3994-0.013621 1.6371 1.3071 0.04703 2.02 0.12148 0.22312 0.21113 0.48102 0.19947 0.73897-0.0038 0.08492-0.01661 0.16912-0.02481 0.25373-0.04873 0.28027-0.1704 0.53717-0.30954 0.78238 0.13737-0.073886 0.28228-0.13377 0.42943-0.18707 0.10092-0.036569 0.20213-0.072209 0.30437-0.1049 0.33572-0.10656 0.75304-0.067133 1.0299 0.1664 0.09164 0.077292 0.16648 0.17303 0.2496 0.25942 0.18555 0.28475 0.27672 0.70297 0.16175 1.0361-0.03543 0.10265-0.07984 0.20188-0.11989 0.30282-0.0082 0.015682-0.01926 0.029103-0.02791 0.044442 0.14165 0.23923 0.1611 0.59268 0.0052 1.0139 2.1184-0.64544 2.6955 1.1714 0.35347 2.0846-0.05947 0.023188-0.11784 0.048798-0.17777 0.070797-0.07999 0.031442-0.15984 0.063021-0.23978 0.094568-0.0063 0.00275-0.02167 0.00949-0.03462 0.014986-0.0015 8.732e-4 -2e-3 0.0014-0.0031 0.00206-0.04584 0.029333-0.02194 0.013975-0.07131 0.044958-0.09822 0.062439-0.19848 0.12194-0.29972 0.17932-0.15572 0.088115-0.31371 0.1725-0.47284 0.25425-0.14673 0.075514-0.29322 0.1531-0.4439 0.22014-0.05216 0.01936-0.103 0.036768-0.15451 0.053227-0.0279 0.017756-0.05603 0.034603-0.08475 0.05116-0.01792 0.010332-0.03659 0.019606-0.05478 0.029455-0.04504 0.023119-0.09167 0.049819-0.13901 0.071314-0.04199 0.03866-0.08338 0.078159-0.12661 0.11524-0.01247 0.014854-0.02468 0.0301-0.03772 0.044442-0.09249 0.10167-0.18729 0.1854-0.29714 0.26872-0.01491 0.011311-0.03138 0.020733-0.04703 0.031006-0.08635 0.054955-0.17399 0.10741-0.26407 0.15606-0.0995 0.054443-0.20195 0.104-0.30592 0.14934-0.06089 0.027-0.12116 0.054022-0.18242 0.080098-0.09304 0.040679-0.18573 0.082105-0.2806 0.11834-0.11362 0.042165-0.22963 0.076741-0.34727 0.10594-0.07157 0.020376-0.14211 0.04263-0.21187 0.06873-0.0362 0.013962-0.07359 0.025114-0.10955 0.039791-0.07483 0.029341-0.15031 0.056648-0.22634 0.082682-0.03534 0.013099-0.07094 0.025082-0.10645 0.037724-0.0513 0.019865-0.10176 0.042054-0.154 0.059428-0.06529 0.023373-0.13063 0.047695-0.19689 0.068213-0.04964 0.016526-0.09885 0.034084-0.14831 0.05116-0.04383 0.015293-0.08785 0.028926-0.13178 0.043925-0.07036 0.025035-0.14039 0.051671-0.21084 0.076481-0.11842 0.039712-0.2547 0.07855-0.37052 0.10025-0.02786 0.011197-0.05528 0.023818-0.08268 0.036174-5e-3 0.00209-0.15097 0.054915-0.21704 0.077515-6.09e-4 2.911e-4 -8.47e-4 7.408e-4 -0.0016 0.00103-0.02205 0.010308-0.04283 0.020169-0.05374 0.026355-0.07508 0.032452-0.15142 0.061684-0.22893 0.08785-0.10813 0.037363-0.21839 0.069851-0.33176 0.086816-0.07389 0.011472-0.14684 0.019442-0.21136 0.029455-0.12658 0.016079-0.25424 0.024376-0.38189 0.018087-0.10367-0.00251-0.20742-0.00765-0.31058-0.018603-0.12557-0.011618-0.25151-0.023249-0.37259-0.060978-0.10018-0.031633-0.19954-0.066115-0.29352-0.11369-0.25682-0.13023-0.48125-0.31242-0.60358-0.58291-0.03274-0.1385-0.07263-0.27547-0.09819-0.41548-0.0038-0.020886-0.0057-0.043671-0.0062-0.067179-0.32813 0.041138-0.6595 0.049388-0.98754-0.010853-0.13456-0.031295-0.38299-0.073745-0.51108-0.15554-0.15373-0.098159-0.30795-0.20047-0.43615-0.33021-0.25618-0.25925-0.31121-0.71869-0.23564-1.0578 0.03115-0.091848 0.05738-0.18524 0.09302-0.27544 0.08704-0.22028 0.25509-0.40452 0.41134-0.57723 0.09289-0.09388 0.18817-0.18527 0.28422-0.27595-0.06583 0.013544-0.13322 0.02027-0.19947 0.032039-0.16508 0.018558-0.41332 0.062169-0.58963 0.032556-0.16947-0.028462-0.34011-0.061154-0.50178-0.11937-0.4233-0.15243-0.71698-0.71458-0.66404-1.1472 0.04104-0.22294 0.09421-0.44189 0.19275-0.64802 0.13687-0.26806 0.30205-0.51912 0.53744-0.71262 0.1616-0.14154 0.32953-0.27537 0.50333-0.40153-0.050873-0.039457-0.13166-0.10274-0.42115-0.3178-0.16385-0.12173-0.33222-0.23679-0.49403-0.36122-0.20736-0.15946-0.4078-0.32817-0.6134-0.48989-1.3249-1.0422 0.10185 0.1035-1.2883-1.0206-1.0564-0.84267-2.1107-1.6887-3.1569-2.544-0.39439-0.31764-0.77993-0.64618-1.1627-0.97772v17.498h68.611v-60.757zm55.405 44.308c0.32183 0.20314 0.6087 0.45604 0.88263 0.72192 0.12123-0.12984 0.26821-0.23038 0.42478-0.28009 0.10117-0.019744 0.20211-0.042415 0.30386-0.058911 0.11404-0.01849 0.2336 0.011956 0.34778 0.013436 0.20599 0.016705 0.41155 0.038627 0.61495 0.075964 0.30056 0.051132 0.60166 0.10366 0.89762 0.17725 0.2798 0.08051 0.54776 0.18802 0.80667 0.31781 0.07389-0.48412 0.74273-0.92818 1.9932-0.8878 0.32717 0.010564 0.65436 0.020391 0.97875 0.06873 0.394 0.047575 0.78625 0.11981 1.157 0.26613 0.38543 0.15354 0.75713 0.34486 1.0842 0.60306 0.45165 0.37392 0.81152 0.7754 0.7798 1.4128-0.03439 0.13615-0.06049 0.27488-0.10284 0.40876-0.0145 0.045833-0.04121 0.086857-0.06666 0.12764-0.14081 0.22567-0.31846 0.41983-0.56069 0.54002-0.26366 0.12598-0.54149 0.21617-0.83147 0.2589-0.43256 0.066334-0.86993 0.07702-1.3069 0.088367-0.08674 0.00146-0.1732 0.00249-0.25993 0.00259 0.0054 0.014388 0.01125 0.028459 0.01654 0.042891 0.17638 0.46717 0.32431 0.94885 0.35915 1.45 0.0086 0.1457 0.01299 0.28259 0.0093 0.41444 0.02296 0.010901 0.04567 0.022341 0.06873 0.033073 1.3656 0.63543 0.84754 1.7327-0.46509 1.094-0.01791 0.01873-0.03588 0.037301-0.05271 0.056844-0.13709 0.089777-0.26908 0.18843-0.41134 0.26975-0.04249 0.024286-0.09218 0.033111-0.13953 0.045475-0.05383 0.014055-0.108 0.02549-0.16226 0.03514 2.6311 2.6726 0.17413 5.4729-4.7103 2.9879-0.0024-0.00116-0.0044-0.00246-0.0067-0.00362-0.11641 0.012695-0.25475-0.00572-0.40876-0.063045-0.19974 0.28068-0.5734 0.23416-0.85886-0.21032-0.05125 0.00716-0.10287 0.012721-0.15451 0.015502-0.1154 0.00856-0.22819-0.011568-0.33951-0.038757-0.12317-0.03421-0.22839-0.10018-0.33073-0.17415-0.06821-0.055741-0.12977-0.11791-0.18655-0.185-0.0085-0.011083-0.01701-0.021825-0.02532-0.033073-0.02188-0.029789-0.04235-0.060512-0.06253-0.091467-0.0078-0.012004-0.01262-0.018939-0.01447-0.021704-0.03056-0.040651-0.0633-0.079772-0.09457-0.11989-0.0226-0.027603-0.04334-0.05702-0.06821-0.082682-0.0033-0.00328-0.01378-0.013012-0.04754-0.039791-0.07014-0.053766-0.1426-0.10406-0.21549-0.154-0.04537-0.033815-0.09704-0.056206-0.14831-0.079065-0.02698-0.014274-0.05794-0.022294-0.08062-0.024805-0.07803-0.011758-0.15616-0.023003-0.23409-0.035657-0.04609-0.00607-0.0919-0.016222-0.13798-0.02222-0.02745-0.00343-0.01101-7.673e-4 -0.02791-0.00259-0.07635-0.00487-0.15264-0.014094-0.22893-0.020153-0.09675-0.00408-0.19206-0.018703-0.28629-0.040307-0.10676-0.023034-0.20495-0.069193-0.30077-0.11989-0.10158-0.055162-0.19781-0.12016-0.29042-0.18914-0.01352-0.010467-0.027291-0.020537-0.040822-0.031006-0.22702-0.17566-0.38484-0.35248-0.48369-0.5178-0.32526-0.14306-0.5407-0.32431-0.64751-0.50695-0.56346-0.18321-1.1172-0.39356-1.6743-0.59686-0.29701-0.11015-0.77608-0.30495-0.98495-0.38912-0.28081-0.087734-0.57948-0.10816-0.86041-0.19637-0.34343-0.082144-0.69063-0.14367-1.0346-0.22376-5.5952-1.3029-5.3011-5.4621-1.0377-5.4079 0.69766 0.00886 1.5017 0.1309 2.4035 0.39636 0.28409 0.083627 0.57569 0.14051 0.86403 0.20877 0.3394 0.073675 0.67994 0.13795 1.016 0.22686 0.5182 0.13153 0.98783 0.39191 1.4779 0.59686 0.5429 0.20137 1.0785 0.42142 1.6402 0.56586 0.28869 0.078064 0.58719 0.10308 0.88315 0.13643 0.2299 0.019934 0.45701 0.058919 0.68265 0.1049 0.03664-0.032082 0.07561-0.064065 0.11679-0.096118 0.1487-0.11576 0.32637-0.17642 0.50488-0.22789-0.0159-0.015255-0.03159-0.03078-0.04754-0.045992-0.0456-0.041843-0.09095-0.084298-0.13642-0.12661-0.14995-0.11355-0.29986-0.22721-0.44958-0.34106-0.0852-0.065511-0.83812-0.60695-0.74931-0.72347 0.40126-0.52645 0.96776-0.90372 1.4516-1.3555zm0.20464 0.1788c-0.0049-7.885e-4 0.01625 0.021602 0.08268 0.080615 0.02906 0.025818 0.05801 0.05147 0.08733 0.076998-0.06382-0.07564-0.16098-0.15615-0.17002-0.15761zm8.4021 1.48c-0.0037 2.236e-4 -0.01453 0.005902-0.01963 0.007235-0.04427 0.007621-0.03778 0.007475-0.07286 0.038757 0.04369-0.011726 0.08257-0.025576 0.09302-0.043925 7.94e-4 -0.001527 7.94e-4 -0.00214-5.29e-4 -0.002066zm-48.697 1.8852c-0.0072 5.345e-4 -0.01455 0.00184-0.0217 0.0031 0.0024 3.599e-4 0.0048 6.694e-4 0.0072 0.00103 0.0049 7.487e-4 0.01937-0.0045 0.01447-0.00413zm-7.3458 3.0928c-0.0057 0.00563-0.01175 0.011009-0.01705 0.017052-0.0035 0.00398 0.0096-0.010155 0.01395-0.00723 0.0076 0.00498-0.03762 0.051331-0.02015 0.044441 0.0113-0.00444 0.01405-0.019778 0.02067-0.029972l5.03e-4 -5.292e-4c1e-3 -0.00778 0.0013-0.015851 0.0021-0.02377zm6.1609 1.7157c-0.11456 0.071066-0.22936 0.14176-0.34365 0.21342 0.0456-0.012787 0.09156-0.025657 0.13591-0.042375 0.05131-0.021672 0.10146-0.045113 0.15193-0.06873 0.05323-0.027006 0.10944-0.047235 0.16485-0.069247-0.03676-0.00991-0.07293-0.021106-0.10904-0.033073zm-5.1005 1.0196c-0.02982 0.029999-0.06256 0.063782-0.04134 0.057878 0.01486-0.00414 0.01824-0.025067 0.02894-0.036174 0.0011-0.00114 7.67e-4 0.0031 1e-3 0.00465 0.0038-0.00882 0.0076-0.017537 0.01137-0.026355zm7.2352 0.067696c-0.01439 0.01179-0.02844 0.02382-0.04238 0.036174 0.0221-0.013351 0.03935-0.023884 0.02584-0.018603 0.0056-0.00586 0.02284-0.02272 0.01654-0.017571zm-5.0178 1.2423c-0.0061 0.00632-0.01259 0.012615-0.01809 0.019121-0.04034 0.060268 0.01441-0.021077 0.01602-0.013435 7.94e-4 -0.00196 0.0013-0.00375 0.0021-0.00568z" fill="#f00"/>
  </clipPath>
  <clipPath id="clipPath14764">
   <path d="m-6.0456-34.202v48.012c0.059341-0.05743 0.11844-0.115 0.18035-0.1726 0.38425-0.35752 0.66684-0.80353 0.95963-1.2346 0.49457-0.76063 0.95178-1.5441 1.4356-2.3115 0.079188-0.12662 0.15801-0.25341 0.23668-0.38034-0.037663-0.41609-0.05378-0.86171-0.044959-1.3374 0.00346-0.18674 0.00552-0.3734 0.0062-0.56017-0.00344-0.43113 0.00251-0.86235 0.00569-1.2935 0.00335-0.53583 0.01365-1.0716 0.032556-1.6071 0.0229-0.81472 0.061883-1.6296 0.12402-2.4422 0.078989-0.99503 0.18154-1.9922 0.40153-2.9673 0.26378-0.49931 0.44921-1.0487 0.79117-1.4981 0.2073-0.27243 0.48179-0.56358 0.81959-0.61908 0.67292-0.11056 1.2144-0.19446 1.6836-0.2005 0.78207-0.010073 1.3635 0.19682 2.02 0.86041 0.22354 0.22409 0.43534 0.45927 0.62218 0.7152 0.20327 0.26875 0.39364 0.54655 0.58963 0.82062 0.076256 0.10663 0.14865 0.21223 0.21911 0.31729 2.1125 0.3833 2.4762 0.14853 2.4748 2.2495-0.023887 0.49353-0.077879 0.98323-0.14056 1.4733-0.00356 0.025905-0.00764 0.051636-0.011369 0.077515 0.25253-0.25361 0.50778-0.50416 0.77101-0.74672 0.36125-0.35143 0.74284-0.68596 1.0516-1.0868 1.5974-2.0734 3.2393-2.9095 4.4927-2.8892 2.393 0.038663 3.3717 3.1974-0.07028 6.8197-0.47994 0.50509-0.99399 0.9754-1.5167 1.4356-0.29602 0.26331-0.57882 0.54037-0.85628 0.82269 0.12993-0.00819 0.25652-0.012692 0.37982-0.01292 2.1956-0.00404 3.3297 1.2255 3.0257 2.6774 0.54292 0.46336 0.59411 1.608-0.42581 3.0484-0.02949 0.04166-0.05887 0.0834-0.08837 0.12506-0.22872 0.30158-0.48795 0.57845-0.75964 0.84181-0.31508 0.30821-0.64708 0.59847-0.95601 0.91312-0.20493 0.21956-0.41652 0.43314-0.61082 0.66249-0.202 0.2384-0.41253 0.46939-0.63717 0.68678-0.20701 0.2147-0.41403 0.42933-0.63097 0.63407-0.11203 0.115-0.22022 0.23274-0.31884 0.35967-0.1793 0.21544-0.36693 0.42408-0.56792 0.6196-0.27419 0.27187-0.55195 0.54099-0.83974 0.7984-0.36511 0.32813-0.73182 0.65436-1.0914 0.98857-0.20885 0.19696-0.42313 0.38824-0.61805 0.59945-1.7394 1.8847-3.3356 1.3618-3.2458 0.03204-0.91322-0.11365-1.4671-1.4235-0.4346-3.2964l0.03514-0.06408c0.10984-0.18924 0.23761-0.36698 0.39067-0.524 0.1218-0.13717 0.23609-0.28033 0.34778-0.42581 0.063251-0.08199 0.12664-0.16402 0.19017-0.24598-2.4259-0.59872-2.7711-0.61623-2.9642-1.5813-0.14627 0.236-0.29314 0.47192-0.44183 0.70642-0.45835 0.71805-0.94546 1.4191-1.5095 2.0593-1.6375 1.8588-3.258 2.6277-4.5062 2.6417v8.1566h88.161v-17.072c-0.12654-0.0135-0.245-0.0424-0.33693-0.07958-0.02696-0.01257-0.05342-0.02662-0.0801-0.03979 0.01458 0.05755 0.02773 0.11539 0.03927 0.17363 0.0026 0.1939 0.06811 0.6874-0.14108 0.8568-0.67749 0.5486-1.0446 0.66324-1.6583 0.18448-0.11189-0.09268-0.22065-0.18902-0.32815-0.2868-0.08949 0.30331-0.19032 0.61845-0.39532 0.85731-0.29645 0.34542-0.97518 0.22466-1.294 0.02739-0.15027-0.08622-0.29929-0.17455-0.44855-0.26252 0.17665 0.2583 0.34329 0.5231 0.48524 0.80357 0.13782 0.29464 0.28054 0.59362 0.30386 0.92449 0.0066 0.09363 0.02635 0.19735-0.01601 0.28112-0.13006 0.25717-0.32481 0.47616-0.48731 0.71417-0.10385 0.04105-0.20148 0.10452-0.31161 0.12299-0.15147 0.0254-0.28779 0.02696-0.41651 0.0077-0.18038 0.19857-0.37255 0.3843-0.58549 0.5457-0.06586 0.04992-0.13072-0.03873-0.19275-0.12661-0.17172 0.11858-0.34512 0.23454-0.52193 0.34468 0.20722 0.81953-0.06973 1.334-0.51986 1.3885 0.04983 0.10679 0.10284 0.21234 0.14728 0.32143 0.15139 0.37157 0.24217 0.78558 0.25373 1.1865-0.0051 0.08398-0.0069 0.38796-0.06511 0.48628-0.10054 0.16994-0.20302 0.34413-0.3359 0.48989 1.2157 1.4163-0.02938 2.5444-1.7157 1.0284-0.02342-0.02105-0.04686-0.042-0.07028-0.06305-0.16184-0.14352-0.32619-0.28406-0.49351-0.42116-0.23194-0.18494-0.47192-0.36119-0.6873-0.56586-0.22177-0.21437-0.41975-0.45077-0.62942-0.67696-0.35124-0.38489-0.68624-0.78354-1.0134-1.1891-0.55645-0.67732-1.0912-1.3725-1.6299-2.064-0.73605-0.94451-1.4575-1.9005-2.1761-2.8582-0.50585-0.67202-1.0274-1.361-1.3891-2.1249-0.04553-0.09617-0.07649-0.19837-0.11472-0.29766-0.0403-0.12837-0.08812-0.25502-0.12092-0.38551-0.02006-0.07981-0.02861-0.16207-0.03721-0.24391-0.02951-0.27962-0.02865-0.55514 0.02479-0.83199 0.03338-0.1723 0.07559-0.32934 0.12402-0.47336-1.0078-1.3266-0.39689-2.3062 0.52038-2.0262 0.08453-0.51278 0.39074-0.79436 0.75137-0.79117 0.45691 0.00405 0.99874 0.46349 1.2795 1.481 0.01103 0.019288 0.0231 0.041212 0.03204 0.052193 0.0276 0.033865 0.05639 0.066868 0.0863 0.098702 0.10637 0.11321 0.23369 0.23444 0.34365 0.34158 0.01209 0.010996 0.02458 0.021577 0.03669 0.032556 0.173-0.12423 0.44636-0.32079 0.84905-0.67743 0.08012-0.10352 0.15886-0.2082 0.23771-0.31264-0.2628-0.216-0.52114-0.43801-0.77463-0.66508-0.24206-0.21892-0.11976-0.10135-0.2899-0.2744-0.0393-0.039964-0.15091-0.077355-0.12454-0.11937-0.17973-0.1624-0.08991-0.15605 0.30592-0.37207 0.94223-1.1802 0.71167-1.3862 1.2097-0.87643 0.22444 0.23007 0.45723 0.45186 0.6935 0.66973 0.08804 0.082344 0.17563 0.16506 0.26355 0.24753 0.19153 0.16358 0.38431 0.32584 0.57671 0.48834 0.01005 0.00824 0.02043 0.016071 0.03049 0.024289-0.31219-0.35827-0.60782-0.73123-0.86506-1.1307-0.28786-0.46191-0.58395-0.97964-0.43563-1.5518 0.040029-0.15445 0.15286-0.27964 0.22944-0.41961 0.25598-0.079841 0.50676-0.18052 0.7643-0.25425-0.078282-0.05124-0.1558-0.10378-0.23203-0.15813-0.094925-0.080222-0.19796-0.15183-0.28474-0.24081-0.064053-0.065677-0.18921-0.1317-0.16485-0.22014 0.14255-0.51761 0.32539-1.0414 0.63355-1.481 0.05897-0.08413 0.27096-0.049066 0.46767 0.010335-0.50455-0.5832-0.03059-1.3738 1.3348-1.3751 0.06641-6.583e-5 0.14177 0.008023 0.21239 0.011886 0.48427-0.38365 1.4346-0.51313 2.7595-0.091984 0.0037 0.001185 0.0076 0.002432 0.01138 0.003617 0.0061 1.083e-4 0.09809 8.2286e-4 0.10852 5.1594e-4 0.06337-9.9219e-4 0.1268-5.6092e-4 0.19017-5.1594e-4 0.0792-6.0589e-4 0.15851 1.6156e-4 0.23771-5.1594e-4 0.16502-0.001865 0.32962-0.00391 0.49454-0.010335 0.2298-0.010006 0.45984-0.02106 0.68988-0.023254 0.23781-0.009169 0.47574-0.018364 0.7121-0.048059 0.23817-0.031715 0.47768-0.059435 0.709-0.12764 0.21365-0.062849 0.4174-0.15461 0.61443-0.25787 0.71804-0.3763 1.3421-0.53153 1.8438-0.52917 0.30674 0.00144 0.56738 0.061738 0.77566 0.1664v-32.932zm81.739 33.76c0.0011 3.2543e-4 0.0099 0.001717 0.0181 0.003101-0.0041-1.331e-5 0.0083 9.15e-6 0.0052 0-0.01519-0.00209-0.02429-0.003382-0.02326-0.003101zm-5.179 5.2405c-0.0011-9.69e-5 0.0067 0.00622 0.02532 0.020153 0.01066 8e-3 0.06774 0.049851 0.11886 0.079582-0.072-0.050708-0.14157-0.099467-0.14418-0.099736zm10.531 0.88057c0.07021 0.033643 0.14052 0.06729 0.21032 0.1018 0.28972 0.14035 0.57724 0.28684 0.85938 0.44287v-0.48266c-0.14537-0.018074-0.29097-0.033027-0.4377-0.039791-0.2106-0.011419-0.42116-0.017928-0.632-0.022221zm-3.6173 8.0889c0.01439 0.0096 0.02817 0.01983 0.04289 0.02894-0.01879-0.01913 0.02655 0.0051 0.02066 0.0016-0.02011-0.01269-0.04144-0.02209-0.06356-0.03049zm-2.4732 4.9335c0.01609 0.0106 0.03615 0.0225 0.02479 0.0078-0.0011-0.0013-0.0021-0.0028-0.0031-0.0041-0.0072-9.79e-4 -0.01447-0.0025-0.0217-0.0036z" fill="#f00"/>
  </clipPath>
  <clipPath id="clipPath14944">
   <path d="m-2.6267 66.896v62.157h87.661v-62.157zm12.598 1.4743c0.28671-0.01151 0.66648 0.13946 1.0728 0.53123 0.20773 0.20029 0.42782 0.3864 0.64854 0.57206 0.11588 0.09548 0.23357 0.18839 0.35243 0.28009 0.15188-0.741 0.5207-1.0882 0.84853-1.0909 0.41313-0.0034 0.75713 0.53324 0.50643 1.4934-0.01084 0.04153-0.01689 0.08417-0.02377 0.12661 0.19202-0.08848 0.44982-0.07205 0.6165-0.07286 0.03735-1.9e-4 0.07075 0.02521 0.10594 0.03772 0.10401 0.04502 0.20491 0.09603 0.30437 0.14986 0.0035-0.01982 0.0077-0.03919 0.01757-0.05633 0.35739-0.62361 0.50837-0.75084 1.0278-0.63407 0.20211 0.0487 0.39948 0.11237 0.5948 0.18345 0.05357 0.01834 0.10734 0.03781 0.16071 0.05736 0.0126-0.0069 0.02482-0.01431 0.03772-0.02066 0.04319-0.0213 0.09232-0.02957 0.14004-0.03617 0.22604-0.03112 0.44531 0.0072 0.64234 0.12609 0.13932 0.08422 0.26704 0.18305 0.39119 0.28835 0.12775 0.10255 0.25609 0.20464 0.38189 0.30954 0.11465 0.09305 0.23513 0.17797 0.3607 0.2558 0.16197 0.10103 0.32496 0.20004 0.49144 0.29352 0.18236 0.10127 0.36326 0.20532 0.5457 0.30644 0.19594 0.10819 0.38994 0.22047 0.57723 0.34313 0.2073 0.12871 0.41504 0.25601 0.62684 0.37724 0.22769 0.13126 0.45934 0.25808 0.67076 0.41496 0.11289 0.08382 0.2195 0.17514 0.32608 0.26665 0.0072 2.65e-4 0.01447 7.94e-4 0.0217 0.0011 0.12511 6e-5 0.24765 0.02439 0.36845 0.05426 0.12525 0.03317 0.24859 0.07097 0.36949 0.11782 0.15004 0.05861 0.29191 0.13524 0.42943 0.21859 0.1103 0.06927 0.22 0.13979 0.32918 0.21084 0.03361 0.02331 0.04948 0.02664 0.10077 0.04909 0.07918 0.03523 0.07338 0.02921 0.15348 0.05943 0.07168 0.02831 0.14063 0.06179 0.20877 0.09767 0.06261 0.03358 0.12967 0.05579 0.19585 0.08062 0.11038 0.03998 0.21542 0.09362 0.31678 0.15244 0.07407 0.04267 0.14943 0.08227 0.22376 0.12454 0.14014 0.07636 0.27201 0.1673 0.39946 0.26303 0.11014 0.07368 0.20085 0.17519 0.31471 0.2434 0.05469 0.03738 0.1161 0.0593 0.1757 0.08682 0.08065 0.02334 0.15402 0.08827 0.23874 0.0987 0.07302 0.01214 0.14611 0.02776 0.21859 0.04392 0.06773 0.01371 0.13919 0.03316 0.20309 0.04909 0.06742 8e-3 0.13424 0.0213 0.20102 0.03359 0.10638 0.01958 0.21126 0.04665 0.31626 0.07286 0.05404 0.01593 0.10955 0.02101 0.16485 0.03101 0.09381 0.01812 0.18927 0.02864 0.2837 0.04289 0.06357 0.01069 0.1272 0.02037 0.19069 0.03152 0.08685 0.01775 0.17258 0.04187 0.25786 0.06615 0.06539 0.0191 0.13137 0.03446 0.19689 0.05323 0.0236 0.0064 0.06628 0.01971 0.07907 0.0217 1.6692 0.26355 1.4595 1.62 0.0067 1.4376 0.01418 0.29182 0.01466 0.32156-0.29714 0.33641-0.10831-0.0036-0.21672-0.0076-0.32453-0.01913-0.18536-0.0185-0.37049-0.04204-0.55346-0.07751-0.3023-0.05554-0.6022-0.12482-0.89555-0.21704-0.35731-0.10526-0.71278-0.21727-1.0707-0.32039-0.06017-0.01754-0.11974-0.03703-0.17983-0.05478 0.41505 0.23999 0.82329 0.49157 1.2206 0.76016 0.53906 0.35838 0.32968 0.20964 0.82166 0.57258 0.13163 0.0971 0.26614 0.1908 0.39429 0.29249 0.10131 0.08041 0.19681 0.16789 0.29404 0.25321 0.10321 0.09055 0.20907 0.17866 0.30748 0.2744 0.06749 0.06566 0.12599 0.13944 0.18914 0.20929 0.08192 0.09977 0.27346 0.30229 0.32143 0.44959 0.04955 0.15216 0.11427 0.30781 0.10697 0.46767-0.02257 0.49683-0.35586 0.55981-0.78755 0.71468-0.05145 0.01847-0.10807-0.01418-0.16226-0.02119-0.06503-0.01762-0.13122-0.03202-0.19534-0.05271-0.04442-0.01434-0.08707-0.0344-0.13022-0.05219-0.23839-0.09827-0.47074-0.21022-0.69918-0.3297-0.21078-0.1092-0.4191-0.2232-0.6258-0.34003-0.03954 0.04262-0.07993 0.08447-0.12041 0.12609 0.05695 0.06755 0.14078 0.16708 0.28629 0.33848 0.11639 0.1371 0.25078 0.2609 0.35088 0.41031 0.06717 0.10026 0.09755 0.22082 0.14624 0.33124-0.36596 0.2413-0.70993 0.52039-1.0981 0.72399-0.042 0.02201-0.07344-0.06021-0.10955-0.09095-0.04901-0.04172-0.09736-0.08416-0.14573-0.12661-0.2308-0.20257-0.46017-0.40641-0.69298-0.60668-0.23907-0.20559-0.47922-0.41059-0.71934-0.61495-0.21265 0.19213-0.45123 0.35917-0.68988 0.51522-0.05135 0.03357-0.08714-0.08655-0.13074-0.12971-0.0051-0.0054-0.01036-0.01066-0.0155-0.01601-0.0047 0.0038-0.0093 0.0076-0.01395 0.01138-0.11633 0.15008-0.24348 0.29357-0.37052 0.43615 0.04433 0.1234 0.05649 0.23975 0.0062 0.33228-0.19897 0.36608-0.3888 0.52578-0.57412 0.56327-0.29499 0.37679-0.36798 0.25556-0.72347-0.12454-0.51023-0.55684-1.0279-1.1068-1.5456-1.6567 0.05822 0.07257 0.11561 0.14565 0.17053 0.22066 0.09536 0.13025 0.17086 0.27388 0.25632 0.41083 0.07985 0.25243 0.26831 0.49393 0.23926 0.75706-0.07983 0.72312-0.66924 0.60316-1.1457 0.52297-0.06909-0.01162-0.11394-0.08186-0.16743-0.12712-0.12361-0.10459-0.19486-0.17788-0.27492-0.26355-0.19743 0.18526-0.32276 0.03686-0.54054-0.2036-0.0191-0.02109-0.03109-0.03495-0.04754-0.05323-0.04237 0.0059-0.06869-0.04733-0.09405-0.10645-0.05135-0.0578-0.10133-0.11362-0.17312-0.19482-0.07456-0.08526-0.14849-0.17129-0.22272-0.25683-0.07253 0.07495-0.14705 0.14828-0.22169 0.22169 0.06006 0.0699 0.12033 0.13974 0.18138 0.20877 0.12212 0.13807 0.25612 0.26557 0.37155 0.40928 0.05636 0.07016 0.20415 0.16526 0.14159 0.22996-0.31911 0.33003-0.72497 0.56952-1.1276 0.79013-0.0703 0.03853-0.10246-0.1405-0.14728-0.23874-0.01132-0.01426-0.02577-0.03473-0.03876-0.05478-0.01496-0.0097-0.03179-0.0086-0.05168 0.01138-0.11567-0.14218-0.23226-0.28322-0.34933-0.42426-0.07174-0.04845-0.13504-0.09703-0.17105-0.1235-0.3594-0.29083-0.7155-0.58558-1.0728-0.87902 0.01059 0.21969-0.01064 0.44071-0.02997 0.66146 0.15207 0.17145 0.3043 0.34268 0.4563 0.51418 3.44e-4 2.64e-4 9.53e-4 7.94e-4 1e-3 0.0011 0.07793 0.08354 0.1554 0.1673 0.23461 0.2496 0.15406 0.16009 0.31082 0.31807 0.46612 0.47697 0.10474 0.11926 0.20878 0.23893 0.31419 0.3576 0.01522 0.01714 0.17439 0.18674 0.30076 0.33642 0.05405-2.65e-4 0.08269 0.05196 0.11679 0.14728 0.01157 0.01696 0.02238 0.03321 0.02842 0.04547 0.0861 0.17495 0.35326 0.39912 0.22066 0.54209-0.29135 0.31412-0.77516 0.37259-1.1849 0.49764-0.04482 0.01368-0.05899-0.07255-0.08837-0.10904-0.3001-0.39399-0.60094-0.78772-0.9095-1.1751-0.04211 0.04354-0.08561 0.0857-0.13074 0.12661 0.03042 0.03457 0.06007 0.06972 0.09095 0.10387 0.08486 0.09385 0.54816 0.56299 0.66508 0.76326 0.01473 0.02524 0.028 0.0513 0.04186 0.077 0.0156 0.0011 0.03165 0.04292 0.03152 0.05788 0.07499 0.14615 0.14014 0.2976 0.21291 0.44493-0.38733 0.18639-0.75408 0.42421-1.1622 0.55914-0.05674 0.01876-0.07844-0.08975-0.11576-0.13643-0.2399-0.30003-0.45797-0.61831-0.70538-0.9126-0.15983-0.20073-0.32083-0.40042-0.48214-0.59996 0.0022 0.04883 0.0022 0.09701-5.29e-4 0.14418 0.20179 0.28116 0.41062 0.57176 0.43046 0.59945 0.22553 0.43881 0.45695 0.7345-0.0078 1.3369-0.28525 0.3701-0.75408 0.08745-0.98805-0.08888-0.15749-0.11869-0.2642-0.29692-0.4222-0.41444-0.09858-0.10021-0.19631-0.20125-0.29456-0.30179-0.0078 0.01691-0.01627 0.03363-0.02377 0.05064-0.13913 0.04292-0.27152 0.13387-0.41703 0.12868-0.35932-0.01291-0.54138-0.21683-0.76688-0.43253-0.28008-0.2727-0.55973-0.54624-0.83085-0.82796-0.26235-0.27807-0.5292-0.55133-0.79737-0.82372-0.10213-0.1168-0.20648-0.23197-0.30799-0.34933-0.23179-0.26328-0.46578-0.52491-0.69298-0.7922-0.47016-0.5534-0.94487-1.1027-1.4268-1.6459-0.43776-0.51079-0.88406-1.0148-1.2945-1.5482-0.2789-0.37813-0.55932-0.75948-0.73897-1.1973-0.13677-0.44071-0.17206-0.73688 0.017052-1.1689 0.10623-0.16637 0.12165-0.21418 0.30903-0.3545 0.060196-0.04508 0.12896-0.0808 0.20102-0.10232 0.31518-0.09414 0.51578-0.0532 0.80512 0.07855 0.15031 0.09647 0.19009 0.11667 0.33745 0.23668 0.20203 0.16454 0.38945 0.34622 0.57413 0.5302 0.052238-0.04893 0.1114-0.09136 0.17983-0.12299-0.12661-0.1368-0.22126-0.2433-0.39016-0.46871-0.097872-0.13059-0.21604-0.25069-0.28319-0.39946-0.060509-0.13406-0.18405-0.31679-0.091984-0.4315 0.2402-0.29929 0.63676-0.42887 0.95498-0.64337 0.07247 0.03594 0.14827 0.0649 0.21704 0.10749 0.00709 0.0044 0.014115 0.0094 0.021188 0.01394-0.16606-0.22314-0.41688-0.56395-0.48369-0.73329-0.051457-0.13041-0.14-0.30519-0.054777-0.41651 0.01579-0.02061 0.028795-0.0367 0.043925-0.05633-0.13096-0.16301-0.52988-0.65949-0.55139-0.68987-0.062897-0.088845-0.13406-0.17774-0.16485-0.28215-0.063498-0.21534-0.1594-0.44372-0.11369-0.66352 0.12108-0.58224 0.50656-0.5056 0.94154-0.57826 0.087111 0.0289 0.17707 0.05028 0.26148 0.0863 0.24674 0.1053 0.43107 0.22888 0.65371 0.38137 0.0045 0.0031 0.00895 0.0062 0.013435 0.0093 0.069888 0.0026 0.14797 0.02381 0.21291 0.03152 0.042672 0.0051 0.084137 0.01291 0.12506 0.02326-0.32296-0.27203-0.64557-0.54421-0.971-0.81339-8.731e-4 -7.94e-4 -0.00172-0.0013-0.00259-0.0021-0.20498-0.15472-0.41087-0.30871-0.61495-0.46457-0.14452-0.11037-0.28508-0.22581-0.43098-0.33435-0.12545-0.093332-0.25647-0.17882-0.38292-0.27078-0.056123-0.04082-0.19552-0.06539-0.16485-0.12764 0.0018-0.0037 0.00337-0.0067 0.00517-0.01035-0.3179-0.13054-0.27403-0.12224 0.22479-0.48111 0.24235-0.54655 0.29779-0.7703 0.39429-0.77205 0.055325-0.0011 0.12506 0.06904 0.25373 0.18862 0.015806 0.01553 0.032124 0.0306 0.048059 0.04599 0.00148-0.0013 0.00265-0.0024 0.00414-0.0036 0.044964-0.03712 0.08343 0.08166 0.12557 0.12196 0.032938 0.0315 0.065489 0.0633 0.098185 0.09509 0.13617 0.12432 0.27366 0.2468 0.41083 0.37 0.073442 0.06107 0.14742 0.12197 0.21962 0.18449 0.1951 0.16892 0.38759 0.34116 0.58136 0.5116 1.7407 1.4438-0.594-0.49854 1.3658 1.155 0.24365 0.20557 0.49389 0.40349 0.73691 0.60978 0.26742 0.22703 0.52861 0.46139 0.79478 0.68988 0.11054 0.09488 0.22222 0.18853 0.33383 0.28215 4.49e-4 -0.0048 0.0017-0.0097 0.0021-0.01447 0.07043-0.03239 0.1401-0.06727 0.20929-0.10284-0.83771-0.8623-0.02726-1.7097 1.233-0.78497 0.11562 0.08483 0.22999 0.17112 0.34416 0.25787-0.04758-0.05098-0.06709-0.07169-0.13281-0.14211-0.14875-0.15942-0.30546-0.31222-0.44338-0.48111-0.07205-0.08823-0.12312-0.19187-0.18448-0.28784-0.0011-0.0024-4e-3 -0.0078-0.0052-0.01035-0.05636-0.03532-0.11257-0.07117-0.16795-0.108-0.0813-0.05417-0.15884-0.11422-0.23874-0.17053-0.26829-0.18918-0.5336-0.38152-0.78756-0.58965-0.23503-0.18365-0.46233-0.37682-0.69712-0.56069-0.97767-0.76558-0.79715-1.5777-0.1664-1.603zm5.1025 16.043c-0.01003-0.01955-0.0211-0.03855-0.03152-0.05788-0.0012-8.5e-5 -0.0024-0.0011-0.0036-5.29e-4 -0.0075 0.0028-0.01478 0.0059-0.02222 0.0088 0.01617 0.01889 0.03275 0.03713 0.05168 0.05323 4e-3 0.0034 0.0056 0.0011 0.0057-0.0036zm1.2351-0.92966c-0.02764-0.04051-0.07045-0.09239-0.11679-0.14728-0.01569 1.09e-4 -0.03485 0.0052-0.05581 0.01344 0.06897 0.07764 0.13767 0.15543 0.20722 0.23254-0.01306-0.03942-0.02388-0.06869-0.03462-0.0987zm46.908-13.335c0.08164 0.0021 0.14921 0.02688 0.19844 0.06924 0.0078-2.49e-4 0.01553-0.0036 0.02326-0.0031 0.05909 0.0037 0.11686 0.02922 0.16846 0.07493 0.06245-0.01228 0.12141-0.01894 0.17622-0.02016 0.01513-2.65e-4 0.02991-5.29e-4 0.04444 0 0.41804 0.01246 0.58468 0.33632 0.39326 0.58136 0.11472 0.08442 0.21087 0.19664 0.31988 0.28991 0.207-0.08953 0.41667-0.17316 0.632-0.2434 0.38163-0.09291 0.53491-0.15178 1.0139-0.08527 0.18032 0.02503 0.40039 0.04477 0.51263 0.1881 0.72501 0.92587 0.91762 1.1699 0.7276 1.8428 0.12736-0.01765 0.25464-0.03583 0.38292-0.04289 0.09879-0.0054 0.19813 0.0044 0.29611 0.0181 0.46432 0.06509 0.75006 0.15846 1.0578 0.38602 0.30726-0.20817 0.61387-0.41737 0.91674-0.632 0.47434-0.34726 0.95322-0.68756 1.4387-1.0191 0.81201-0.5545 1.5336-0.78941 2.1053-0.79995 1.7152-0.03163 2.0829 1.9565-0.49196 3.3957-0.02837 0.01585-0.05607 0.0324-0.08423 0.04857 0.33332-0.03016 0.66761-0.04882 1.0025-0.05116 0.0039 2.64e-4 0.18516 0.0082 0.39326 0.02946 0.45159-0.15771 0.90582-0.30798 1.3632-0.44959 0.30638-0.10798 0.61474-0.21015 0.92088-0.31884 0.43223-0.15346 1.5075-0.63887 1.8397-0.22634 0.50023 0.6212 0.45631 1.5286 0.6842 2.2929-0.15612 0.14935-0.30574 0.30619-0.4687 0.44803-0.04533 0.03946-0.1025 0.06255-0.154 0.09353-0.11739 0.07061-0.23563 0.14021-0.35398 0.20929-0.0073 0.1059-0.01643 0.21205-0.02222 0.31936-0.01413 0.09488-0.03293 0.18852-0.05478 0.28112 0.01103 5.29e-4 0.02204-1.99e-4 0.03307 0.0011 0.18475 0.0049 0.36095 0.05911 0.53537 0.1142 1.5736 0.49712 1.1148 1.8343-0.41445 1.2139-0.07641-0.031-0.14012-0.06154-0.22634-0.06305-0.1528-0.01754-0.306-0.02188-0.4594-0.02119-0.15282 0.24727-0.32593 0.48271-0.51108 0.70538-0.12827 0.1543-0.26903 0.29765-0.40359 0.44649-0.78068 0.82119-1.6642 1.5378-2.5244 2.2732-0.7893 0.6857-1.5676 1.3841-2.3756 2.0479-0.63448 0.52662-1.269 1.0534-1.9146 1.5663-0.3746 0.29568-0.74231 0.60207-1.1353 0.87333-4e-3 0.0027-0.0035 0.0021-0.0072 0.0047-0.11652 0.1022-0.24166 0.19525-0.37982 0.27182-0.69011-0.6995-1.5083-1.2924-2.0702-2.0986-0.08107-0.11631 0.26986-0.39015 0.53485-0.56741 0.01868-0.02326 0.03747-0.04614 0.05633-0.06925 0.02548-0.03254 0.05099-0.06514 0.07648-0.09767 0.24859-0.3406 0.45895-0.70687 0.678-1.0666 0.22885-0.39177 0.46507-0.7791 0.70487-1.1643-0.91305 0.47101-1.8327 0.92987-2.7595 1.3725-1.4171 0.68038-2.8588 1.3121-4.3191 1.8939-0.95428 0.3853-1.9164 0.74994-2.8949 1.0692-0.23303 0.07603-0.46421 0.15832-0.6997 0.22634-0.18604 0.05374-0.37624 0.09225-0.56431 0.13849-0.21385 0.0467-0.4255 0.10342-0.6413 0.14004-0.15233 0.02585-0.30728 0.03723-0.46147 0.04703-0.63904 0.04044-1.236 0.02207-1.8133-0.32298-0.19724-0.11788-0.32967-0.32001-0.49454-0.48007 0.03759-0.65063 0.02299-1.3063 0.11265-1.9518 0.0117-0.08426 0.11868-0.12203 0.18293-0.17777 0.26718-0.23175 0.57703-0.40667 0.87592-0.59273 0.72678-0.44248 1.4648-0.86677 2.188-1.3152-0.1009-0.41919-0.14991-0.84892-0.1757-1.2821-0.40971-0.34434-0.64058-0.49415-0.68574-0.61702-0.14452 0.03406-0.2903 0.06243-0.43357 0.10077-0.04557 0.01439-0.09228 0.0282-0.13952 0.04186-0.17994 0.07178-0.35833 0.148-0.53433 0.22893-0.22102 0.10518-0.44331 0.20164-0.678 0.2713-0.47063-0.86708-1.0303-1.6916-1.4118-2.6014-0.03988-0.09511 0.15745-0.13344 0.23874-0.19689 0.19747-0.1541 0.43254-0.26188 0.65784-0.3669 0.17334-0.07971 0.35707-0.13152 0.54002-0.18345 0.13034-0.037 0.25559-0.06647 0.37879-0.09353-0.18597-0.01775-0.29648-0.13804-0.29404-0.29662-0.0019 5.29e-4 -0.0038 0.0013-0.0057 0.0021-0.51655 0.17044-0.82768 0.03427-0.86455-0.17725-0.43844 0.19108-0.73918 0.09941-0.82527-0.08475-0.40579 0.30766-0.78236-0.09543-0.38137-0.80305 0.05034-0.08884 0.11984-0.16241 0.19482-0.23048 0.08752-0.0778 0.195-0.11988 0.30748-0.14521 0.06461-0.01148 0.12916-0.02291 0.1943-0.03101 0.06092-0.0086 0.12218-0.01008 0.18345-0.01447 0.03138-0.0032 0.06336-0.0033 0.09457-0.0083 0.01955-0.0027 0.0389-0.0059 0.05839-0.0088 0.0038-5.29e-4 0.0076-0.0011 0.01138-0.0016 0.0021-2.52e-4 0.0067-7.94e-4 0.0098-0.0011 0.03382-0.01217 0.0795-0.02349 0.11627-0.03617 0.03432-0.01159 0.04827-0.02662 0.07958-0.04703 0.08334-0.06019 0.17418-0.10797 0.26872-0.14779 0.07268-0.03113 0.1474-0.05727 0.22169-0.08423 0.05504-0.02286 0.11793-0.03851 0.17001-0.06046 0.05564-0.03031 0.10753-0.06621 0.16123-0.09973 0.10824-0.07097 0.22623-0.12524 0.34572-0.17415 0.09736-0.04119 0.19816-0.07356 0.29817-0.10749 0.11788-0.04217 0.23169-0.09391 0.34882-0.13798 0.20341-0.07921 0.4137-0.13999 0.62425-0.19689 0.11004-0.02985 0.22005-0.0594 0.33021-0.08837 0.06785-0.03089 0.13655-0.0598 0.2067-0.08527 0.07868-0.03023 0.15799-0.05759 0.23978-0.07803 0.05178-0.01183 0.10344-0.02553 0.15503-0.03824 0.04846-0.01344 0.09613-0.02883 0.14263-0.04806 0.03902-0.01553 0.07165-0.04236 0.10542-0.06666 0.061-0.04429 0.11834-0.09351 0.17673-0.14108 0.06171-0.05235 0.12742-0.0995 0.19482-0.14418 0.06334-0.04171 0.12694-0.08318 0.19017-0.12506 0.05956-0.03796 0.11794-0.07771 0.1757-0.11834 0.06856-0.05083 0.13698-0.10133 0.20826-0.14831 0.09667-0.06642 0.19637-0.12794 0.30127-0.18035 0.11128-0.05518 0.22775-0.09856 0.3452-0.13849 0.07545-0.02572 0.15136-0.04895 0.22479-0.0801 0.0028-0.0013 6e-3 -0.0019 0.0088-0.0031-0.1913-0.22391-0.0043-0.58191 0.63355-0.6351 0.03289-0.0028 0.06386-0.01341 0.0956-0.0217 0.03039-5e-3 0.05261-0.01688 0.07958-0.02997 0.07282-0.03994 0.14933-0.07165 0.22738-0.09974 0.0393-0.01392 0.07898-0.02687 0.1173-0.04341 0.05009-0.02783 0.10381-0.04635 0.15865-0.06253 0.0049-0.0016 0.0065-0.0019 0.01034-0.0031 0.0038-0.0019 0.0076-0.0035 0.01551-0.0067 0.01728-0.0071 0.01429-6e-3 0.02429-0.01035 0.04356-0.02122 0.08797-0.04051 0.12919-0.06615 0.06714-0.04764 0.13555-0.09364 0.20464-0.13849 0.08279-0.05284 0.16151-0.1118 0.24236-0.16743 0.08081-0.05479 0.1554-0.11806 0.2341-0.1757 0.08128-0.0622 0.17559-0.10131 0.27078-0.13643 0.06195-0.02463 0.12587-0.04284 0.1912-0.05581 0.02588-0.0047 0.05174-0.0081 0.07751-0.01344 0.1025-0.0209 0.1961-0.0306 0.2806-0.03204 0.07195-0.04357 0.14171-0.07984 0.20619-0.10284h5.29e-4c0.13815-0.08424 0.265-0.1271 0.36897-0.12764 0.03988-2.09e-4 0.07656 0.0054 0.10955 0.0155 0.13238-0.07294 0.25355-0.10899 0.35243-0.10645zm-6.3164 4.1165c-0.01225 0.0032-0.02442 0.0066-0.03669 0.0098-0.02919 0.01177-0.05811 0.02416-0.08682 0.03721 0.04116-0.01572 0.08237-0.03127 0.12351-0.04702zm16.913 0.07131c-0.02334 0.0034-0.16008 0.05614-0.1602 0.05839-7.1e-5 0.0013-5.29e-4 0.0024-5.29e-4 0.0036 0.0088-0.0027 0.01762-0.0048 0.02635-0.0078 0.03684-0.0126 0.07581-0.02024 0.11059-0.03773 0.02665-0.01339 0.03141-0.01767 0.02379-0.01654zm-66.744 0.03721c-0.029242-4e-3 0.00996 0.06187 0.019637 0.05684 0.013594-0.0071 0.027194-0.01418 0.040824-0.02119-0.00156-0.0011-0.0031-0.0021-0.00465-0.0031-0.028519-0.02204-0.046063-0.03123-0.05581-0.03255zm59.948 0.05891c0.0052-0.0066-0.0021 0.0011-0.03049 0.03256-0.0085 0.0044-0.01939 0.01995-0.031 0.03876 0.02919-0.03284 0.05506-0.06314 0.06149-0.07131zm-60.66 1.5792c-0.011396-7.94e-4 -0.00814 0.01371-0.0062 0.03979 0.013981-0.0075 0.027877-0.01521 0.041858-0.02273-0.017211-0.01032-0.029439-0.01662-0.035657-0.01707zm20.347 0.84439c0.0021 0.01728 0.03998 0.0159 0.0584 0.02479 0.0077 0.0037-0.01484-0.0082-0.02273-0.01138-0.0118-0.0047-0.02379-9e-3 -0.03566-0.01344zm27.023 0.14624c-0.03305 0.0099-0.06628 0.01924-0.0987 0.03101-0.01606 0.0058-0.06256 0.02416-0.04547 0.02326 0.04891-0.0026 0.09681-0.02727 0.14418-0.05426zm-26.883 1.8128c0.03028 0.01177 0.06039 0.02408 0.09095 0.03514 0.1092 0.03948 0.12101 0.06638 0.09457 0.0217-0.06284-0.04059-0.12524-0.05766-0.18552-0.05685zm-13.819 5.8307c0.04323 0.04188 0.0876 0.0818 0.13901 0.11214 0.04273 0.02522-0.05348-0.10239-0.10284-0.10749-0.01162-0.0013-0.02431-3e-3 -0.03617-0.0047zm55.622 1.4413c-0.0099 0.0073-0.01371 0.0097-0.02894 0.02119-0.01209 0.0092-0.04854 0.0367-0.03617 0.0279 0.02331-0.01664 0.04365-0.03279 0.06511-0.04909z" fill="#f00"/>
  </clipPath>
 </defs>
 <circle cx="39.688" cy="39.688" r="37.916" fill="#ffbe6d" style="paint-order:stroke markers fill"/>
 <path d="m25.392 29.551c-0.18749 0.75543 0.80243-0.10464 1.0179 0.16303 1.8474 2.2947 1.73 2.8412 2.5777 6.6788 0.08767 0.3969 0.64419 4.4994 0.46854 5.4691-0.15579 0.86006-0.66571 1.7483-1.0309 2.5332-0.49648 1.0669-0.9385 2.1896-1.4995 3.2236-0.43417 0.80028-0.96574 1.5089-1.3125 2.3605-0.30061 0.73834-0.52327 1.5736-0.65555 2.3598-0.07276 0.43248-0.04374 1.1305-0.26784 1.5625-0.37937 0.73131-1.1497 1.5899-1.2762 2.4078-0.14799 0.95679 0.23408 2.4815-0.40895 3.3113-0.25348 0.3271-0.99504 0.04157-1.3262 0.13837-0.22306 0.06521-0.41639 0.21153-0.63843 0.28017-0.35225 0.1089-0.83197-0.04326-1.1994 0-1.4464 0.17029-2.6837-0.14496-3.7271-1.2467-1.5761-1.6643-1.7834-4.3593-1.9865-6.4863-0.08632-0.90381 0.18684-1.9042-0.17125-2.7722-0.15212-0.36873-0.41952-0.82294-0.61103-1.1762-0.77173-1.4234-2.338-2.4039-3.049-3.9073-0.22325-0.47209-0.62592-1.0347-0.80077-1.5693-0.59694-1.8252-0.64665-3.5833-0.64665-5.502 0-0.54891-0.10475-1.2742 0-1.8153 0.1832-0.94618 1.3481-2.3688 2.2448-2.6996 0.76091-0.28071 1.2185-0.1371 1.9427-0.23016 1.7994-0.23121 3.6688-0.16783 5.4896-0.16783 0.67324 0 1.3996 0.08037 2.0646 0 0.93852-0.11342 1.587-0.82926 2.4236-1.1056 0.38116-0.1259 0.68968-0.39065 1.0823-0.53636 0.11453-0.0425 0.25075 0.03912 0.36648 0 0.16672-0.05637 0.28347-0.21926 0.45005-0.27606 0.11346-0.03869 0.30768 0.10804 0.35963 0 0.14509-0.30178 0.07992-0.66491 0.11987-0.99737z" fill="#caa271" style="paint-order:stroke markers fill"/>
 <path d="m47.022 38.816c1.7624-0.01371 3.3938 0.11729 5.0485 0.75967 0.631 0.24497 0.8444 0.4549 1.4995 0.63363 0.7249 0.19778 0.83602 0.06544 1.4056 0.34524 1.8088 0.88855 2.3632 2.2595 2.5058 4.182 0.06299 0.84967 0.0478 1.527-0.63774 2.1406-1.1461 1.0258-2.6891 0.93284-4.123 1.0364-0.30367 0.02193-0.79663-0.07319-1.1111 0-0.83679 0.19477-1.6659 0.97556-2.3544 1.5029-1.1514 0.88198-0.68784 2.0899-1.0542 3.2243-0.1384 0.4285-2.5068 0.63257-2.8469 0.5302-0.51388-0.15472-0.72124-0.71628-1.0118-1.0967-0.34587-0.45291-0.86534-0.93712-1.0453-1.4995-0.65909-2.0593-0.40826-5.1218-0.40826-7.3803 0-0.74848-0.30025-2.6749 0.34456-3.2408 0.17547-0.15398 0.81421 0.0793 1.0398 0 0.35233-0.12384 0.68585-0.39875 1.0953-0.46649 0.22838-0.03778 0.69467 0.12454 0.86585 0 0.27898-0.20297 0.52517-0.44754 0.78776-0.67131z" fill="#caa271" style="paint-order:stroke markers fill"/>
 <g fill="none" stroke-linecap="square" stroke-linejoin="round">
  <g stroke="#dfb681">
   <ellipse cx="38.035" cy="-2.8729" rx="40.44" ry="27.688" clip-path="url(#clipPath14764)" opacity=".95003" stroke-width="7.281" style="paint-order:stroke markers fill"/>
   <ellipse cx="38.796" cy="-16.13" rx="31.995" ry="28.068" clip-path="url(#clipPath14704)" opacity=".95003" stroke-width="4.621" style="paint-order:stroke markers fill"/>
   <ellipse cx="41.204" cy="97.974" rx="40.44" ry="27.688" clip-path="url(#clipPath14944)" opacity=".9017" stroke-width="6.781" style="paint-order:stroke markers fill"/>
  </g>
 </g>
</svg>
